fira-sans_ultra-italic.sfdir
StartChar: exclam
Encoding: 33 33 2126
Width: 226
Flags: MW
HStem: 678 20G<60 287 287 287>
VStem: -17 219<68.5 110> -17 304
LayerCount: 2
Back
Fore
SplineSet
31 279 m 1xa0
 60 698 l 1
 287 698 l 1
 199 279 l 1
 31 279 l 1xa0
107 199 m 0xc0
 161 199 202 160 202 102 c 0
 202 35 148 -22 79 -22 c 0
 22 -22 -17 18 -17 78 c 0
 -17 142 36 199 107 199 c 0xc0
EndSplineSet
EndChar

StartChar: quotedbl
Encoding: 34 34 993
Width: 465
Flags: MW
HStem: 401 297<91 209 73 272 91 295 313 431>
VStem: 73 421<401 698>
LayerCount: 2
Fore
SplineSet
91 698 m 1
 272 698 l 1
 209 401 l 1
 73 401 l 1
 91 698 l 1
313 698 m 1
 494 698 l 1
 431 401 l 1
 295 401 l 1
 313 698 l 1
EndSplineSet
EndChar
StartChar: numbersign
Encoding: 35 35 2128
Width: 581
Flags: MW
HStem: 0 263<14 78 14 187 8 78 257 303 14 412 14 233> 124 139<14 41 -6 78 257 266 482 510> 434 138<93 123 75 161 340 349 565 590>
VStem: -6 615<124 572>
LayerCount: 2
Back
Fore
SplineSet
590 434 m 1xb0
 528 434 l 1
 482 263 l 1
 529 263 l 1xb0
 510 124 l 1
 445 124 l 1x70
 412 0 l 1
 233 0 l 1xb0
 266 124 l 1
 220 124 l 1x70
 187 0 l 1
 8 0 l 1xb0
 41 124 l 1
 -6 124 l 1x70
 14 263 l 1
 78 263 l 1
 123 434 l 1
 75 434 l 1
 93 572 l 1
 161 572 l 1
 190 682 l 1
 370 682 l 1
 340 572 l 1
 386 572 l 1
 415 682 l 1
 595 682 l 1
 565 572 l 1
 609 572 l 1
 590 434 l 1xb0
303 263 m 1
 349 434 l 1
 303 434 l 1
 257 263 l 1
 303 263 l 1
EndSplineSet
Substitution2: "'onum' Oldstyle Figures lookup 26 subtable" numbersign.osf
Substitution2: "'tnum' Tabular Numbers lookup 25 subtable" numbersign.tf
AlternateSubs2: "'aalt' Access All Alternates lookup 1 subtable" numbersign.tf numbersign.osf
EndChar
StartChar: dollar
Encoding: 36 36 2206
Width: 553
GlyphClass: 2
Flags: MW
HStem: -5 21G<175 175>
VStem: 311 227<187 215>
LayerCount: 2
Back
Fore
SplineSet
380 432 m 0
 490 390 538 323 538 233 c 0
 538 134 477 29 320 -1 c 1
 296 -167 l 1
 151 -167 l 1
 175 -5 l 1
 81 8 10 51 -29 98 c 1
 91 212 l 1
 136 169 192 147 238 147 c 0
 291 147 311 177 311 197 c 0
 311 233 291 244 236 267 c 0
 105 317 64 387 64 462 c 0
 64 558 129 656 271 684 c 1
 291 836 l 1
 437 836 l 1
 415 688 l 1
 487 676 549 642 593 598 c 1
 488 488 l 1
 438 525 396 539 361 539 c 0
 313 539 294 518 294 499 c 0
 294 471 313 460 380 432 c 0
EndSplineSet
Substitution2: "'onum' Oldstyle Figures lookup 26 subtable" dollar.osf
Substitution2: "'tnum' Tabular Numbers lookup 25 subtable" dollar.tf
AlternateSubs2: "'aalt' Access All Alternates lookup 1 subtable" dollar.tf dollar.osf
EndChar
StartChar: ampersand
Encoding: 38 38 2379
Width: 804
GlyphClass: 2
Flags: MW
HStem: -22 150<302.5 303> 585 134<351 373>
VStem: 28 234<165 197 165 210.5> 115 203<523.5 550.5 523.5 560> 396 202<544.5 561.5>
LayerCount: 2
Back
Fore
SplineSet
376 719 m 0xd8
 523 719 598 649 598 551 c 0
 598 498 577 439 451 355 c 1
 529 267 l 1
 548 298 562 329 580 375 c 1
 747 321 l 1
 711 255 672 204 630 157 c 1
 729 55 l 1
 540 -22 l 1
 489 36 l 1
 414 -10 339 -22 267 -22 c 0
 119 -22 28 54 28 164 c 0xe8
 28 257 80 313 185 373 c 1
 131 437 115 473 115 528 c 0
 115 592 164 719 376 719 c 0xd8
364 585 m 0
 338 585 318 567 318 534 c 0
 318 513 324 500 347 471 c 1
 395 507 396 538 396 551 c 0
 396 572 382 585 364 585 c 0
292 252 m 1xe0
 276 231 262 212 262 182 c 0
 262 148 280 128 325 128 c 0
 350 128 373 132 395 136 c 1
 292 252 l 1xe0
EndSplineSet
Substitution2: "'ss03' Style Set 3 lookup 36 subtable" ampersand.ss03
Substitution2: "'aalt' Access All Alternates lookup 0 subtable" ampersand.ss03
EndChar

StartChar: quotesingle
Encoding: 39 39 994
Width: 244
Flags: MW
HStem: 401 297<91 209 73 272> 678 20G<91 272 272 272>
VStem: 73 199
LayerCount: 2
Fore
SplineSet
91 698 m 1x60
 272 698 l 1
 209 401 l 1
 73 401 l 1xa0
 91 698 l 1x60
EndSplineSet
EndChar
StartChar: parenleft
Encoding: 40 40 2150
Width: 312
Flags: MW
HStem: -171 1044<129 270>
VStem: -2.32001 213.53
LayerCount: 2
Back
Fore
SplineSet
270 873 m 1
 402 776 l 1
 291 644 244 506 222 347 c 0
 200 193 206 49 281 -83 c 1
 129 -171 l 1
 47 -33 -28 110 6 353 c 0
 39 591 150 735 270 873 c 1
EndSplineSet
Substitution2: "'case' Case-Sensitive Forms lookup 29 subtable" parenleft.case
Substitution2: "'dnom' Denominators lookup 17 subtable" parenleft.dnom
Substitution2: "'numr' Numerators lookup 16 subtable" parenleft.numr
Substitution2: "'sups' Superscript lookup 15 subtable" uni207D
Substitution2: "'subs' Subscript lookup 14 subtable" uni208D
AlternateSubs2: "'aalt' Access All Alternates lookup 1 subtable" uni208D uni207D parenleft.numr parenleft.dnom parenleft.case
EndChar
StartChar: parenright
Encoding: 41 41 2151
Width: 312
Flags: MW
HStem: -173 1044<64 206>
VStem: 122.44 214.3
LayerCount: 2
Back
Fore
SplineSet
206 871 m 1
 286 733 362 590 329 347 c 0
 295 109 184 -35 64 -173 c 1
 -68 -76 l 1
 43 56 90 194 112 353 c 0
 134 507 127 651 52 783 c 1
 206 871 l 1
EndSplineSet
Substitution2: "'case' Case-Sensitive Forms lookup 29 subtable" parenright.case
Substitution2: "'dnom' Denominators lookup 17 subtable" parenright.dnom
Substitution2: "'numr' Numerators lookup 16 subtable" parenright.numr
Substitution2: "'sups' Superscript lookup 15 subtable" uni207E
Substitution2: "'subs' Subscript lookup 14 subtable" uni208E
AlternateSubs2: "'aalt' Access All Alternates lookup 1 subtable" uni208E uni207E parenright.numr parenright.dnom parenright.case
EndChar
StartChar: asterisk
Encoding: 42 42 2118
Width: 445
Flags: MW
HStem: 725 20G<197 384 384 384>
VStem: 27 458<509 511>
LayerCount: 2
Back
Fore
SplineSet
485 511 m 1
 356 496 l 1
 440 408 l 1
 282 301 l 1
 244 421 l 1
 176 300 l 1
 48 407 l 1
 153 496 l 1
 27 509 l 1
 103 677 l 1
 209 615 l 1
 197 745 l 1
 384 745 l 1
 337 615 l 1
 454 680 l 1
 485 511 l 1
EndSplineSet
EndChar
StartChar: plus
Encoding: 43 43 2273
Width: 546
GlyphClass: 2
Flags: MW
HStem: 249 167<54 185 31 208 380 511 54 357> 558 20G<229 402 402 402>
VStem: 31 503<249 416>
LayerCount: 2
Back
Fore
SplineSet
402 578 m 1
 380 416 l 1
 534 416 l 1
 511 249 l 1
 357 249 l 1
 334 86 l 1
 161 86 l 1
 185 249 l 1
 31 249 l 1
 54 416 l 1
 208 416 l 1
 229 578 l 1
 402 578 l 1
EndSplineSet
Substitution2: "'onum' Oldstyle Figures lookup 26 subtable" plus.osf
Substitution2: "'tnum' Tabular Numbers lookup 25 subtable" plus.tf
Substitution2: "'dnom' Denominators lookup 17 subtable" plus.dnom
Substitution2: "'numr' Numerators lookup 16 subtable" plus.numr
Substitution2: "'sups' Superscript lookup 15 subtable" uni207A
Substitution2: "'subs' Subscript lookup 14 subtable" uni208A
AlternateSubs2: "'aalt' Access All Alternates lookup 1 subtable" uni208A uni207A plus.numr plus.dnom plus.tf plus.osf
EndChar
StartChar: comma
Encoding: 44 44 2123
Width: 242
Flags: MW
HStem: 0 21G<24 24>
VStem: -48 252
LayerCount: 2
Back
Fore
SplineSet
109 199 m 0
 164 199 204 160 204 104 c 0
 204 61 185 29 140 -52 c 2
 60 -188 l 1
 -48 -188 l 1
 24 0 l 1
 -1 17 -14 42 -14 73 c 0
 -14 144 40 199 109 199 c 0
EndSplineSet
EndChar
StartChar: hyphen
Encoding: 45 45 2168
Width: 398
Flags: MW
HStem: 230 166<21 390 44 367>
VStem: 21 369<230 396>
LayerCount: 2
Back
Fore
SplineSet
21 230 m 1
 44 396 l 1
 390 396 l 1
 367 230 l 1
 21 230 l 1
EndSplineSet
Substitution2: "'case' Case-Sensitive Forms lookup 29 subtable" hyphen.case
Substitution2: "'aalt' Access All Alternates lookup 0 subtable" hyphen.case
EndChar
StartChar: period
Encoding: 46 46 2129
Width: 240
Flags: MW
HStem: -22 221<71.5 113.5>
VStem: -17 219<68.5 110>
LayerCount: 2
Back
Fore
SplineSet
107 199 m 0
 161 199 202 160 202 102 c 0
 202 35 148 -22 79 -22 c 0
 22 -22 -17 18 -17 78 c 0
 -17 142 36 199 107 199 c 0
EndSplineSet
EndChar

StartChar: slash
Encoding: 47 47 996
Width: 507
Flags: MW
HStem: -120 945<180 352>
VStem: -7 545
LayerCount: 2
Fore
SplineSet
538 780 m 1
 180 -120 l 1
 -7 -76 l 1
 352 825 l 1
 538 780 l 1
EndSplineSet
Substitution2: "'frac' Diagonal Fractions lookup 15 subtable" fraction
Substitution2: "'aalt' Access All Alternates lookup 0 subtable" fraction
EndChar
StartChar: zero
Encoding: 48 48 2017
Width: 599
Flags: MW
HStem: -22 160<265.5 304 265.5 393> 541 159<315 353.5>
VStem: 23 216<179 220 179 342.5> 381 215<464.5 505.5>
LayerCount: 2
Back
Fore
SplineSet
356 700 m 0
 510 700 596 605 596 431 c 0
 596 254 523 -22 263 -22 c 0
 108 -22 23 76 23 252 c 0
 23 433 96 700 356 700 c 0
339 541 m 0
 291 541 273 501 251 338 c 0
 243 279 239 235 239 205 c 0
 239 153 251 138 280 138 c 0
 328 138 343 171 367 343 c 0
 376 405 381 449 381 480 c 0
 381 531 368 541 339 541 c 0
EndSplineSet
Substitution2: "'zero' Slashed Zero lookup 32 subtable" zero.zero
Substitution2: "'onum' Oldstyle Figures lookup 26 subtable" zero.osf
Substitution2: "'tnum' Tabular Numbers lookup 25 subtable" zero.tf
Substitution2: "'frac' Diagonal Fractions lookup 19 subtable" zero.numr
Substitution2: "'dnom' Denominators lookup 17 subtable" zero.dnom
Substitution2: "'numr' Numerators lookup 16 subtable" zero.numr
Substitution2: "'sups' Superscript lookup 15 subtable" uni2070
Substitution2: "'subs' Subscript lookup 14 subtable" uni2080
AlternateSubs2: "'aalt' Access All Alternates lookup 1 subtable" uni2080 uni2070 zero.numr zero.dnom zero.tf zero.osf zero.zero
EndChar

StartChar: one
Encoding: 49 49 880
Width: 480
Flags: MW
HStem: 0 21G<180 390 180 180>
VStem: 27 458<535 682>
LayerCount: 2
Fore
SplineSet
390 0 m 1
 180 0 l 1
 245 465 l 1
 101 382 l 1
 27 535 l 1
 290 682 l 1
 485 682 l 1
 390 0 l 1
EndSplineSet
Substitution2: "'onum' Oldstyle Figures lookup 22 subtable" one.osf
Substitution2: "'tnum' Tabular Numbers lookup 21 subtable" one.tf
Substitution2: "'frac' Diagonal Fractions lookup 16 subtable" one.numr
Substitution2: "'dnom' Denominators lookup 14 subtable" one.dnom
Substitution2: "'numr' Numerators lookup 13 subtable" one.numr
Substitution2: "'sups' Superscript lookup 12 subtable" onesuperior
Substitution2: "'subs' Subscript lookup 11 subtable" oneinferior
AlternateSubs2: "'aalt' Access All Alternates lookup 1 subtable" oneinferior onesuperior one.numr one.dnom one.tf one.osf
EndChar
StartChar: two
Encoding: 50 50 2019
Width: 525
Flags: MW
HStem: 0 163.5 536 164<242 267>
VStem: 306 226<476.5 500.5>
LayerCount: 2
Back
Fore
SplineSet
295 700 m 0
 456 700 532 616 532 518 c 0
 532 435 517 340 249 163 c 1
 499 164 l 1
 453 0 l 1
 -19 0 l 1
 0 151 l 1
 268 374 306 418 306 485 c 0
 306 516 284 536 250 536 c 0
 209 536 178 513 137 468 c 1
 23 579 l 1
 92 653 189 700 295 700 c 0
EndSplineSet
Substitution2: "'onum' Oldstyle Figures lookup 26 subtable" two.osf
Substitution2: "'tnum' Tabular Numbers lookup 25 subtable" two.tf
Substitution2: "'frac' Diagonal Fractions lookup 19 subtable" two.numr
Substitution2: "'dnom' Denominators lookup 17 subtable" two.dnom
Substitution2: "'numr' Numerators lookup 16 subtable" two.numr
Substitution2: "'sups' Superscript lookup 15 subtable" uni00B2
Substitution2: "'subs' Subscript lookup 14 subtable" uni2082
AlternateSubs2: "'aalt' Access All Alternates lookup 1 subtable" uni2082 uni00B2 two.numr two.dnom two.tf two.osf
EndChar

StartChar: three
Encoding: 51 51 882
Width: 526
Flags: MW
HStem: -22 165<174.5 221.5 174.5 317.5> 283 146<191 210 148 233> 541 159<250.5 275.5>
VStem: 285 221<197.5 246> 315 214<507.5 513.5>
LayerCount: 2
Fore
SplineSet
304 700 m 0xe8
 454 700 529 634 529 538 c 0xe8
 529 477 496 396 373 359 c 1
 445 350 506 310 506 220 c 0
 506 130 440 -22 195 -22 c 0
 76 -22 -1 26 -47 93 c 1
 83 200 l 1
 117 161 150 143 199 143 c 0
 244 143 285 168 285 227 c 0
 285 265 264 283 210 283 c 2xf0
 148 283 l 1
 191 429 l 1
 233 429 l 2
 304 429 315 475 315 500 c 0
 315 527 294 541 257 541 c 0
 209 541 163 519 124 484 c 1
 33 605 l 1
 110 665 197 700 304 700 c 0xe8
EndSplineSet
Substitution2: "'onum' Oldstyle Figures lookup 22 subtable" three.osf
Substitution2: "'tnum' Tabular Numbers lookup 21 subtable" three.tf
Substitution2: "'frac' Diagonal Fractions lookup 16 subtable" three.numr
Substitution2: "'dnom' Denominators lookup 14 subtable" three.dnom
Substitution2: "'numr' Numerators lookup 13 subtable" three.numr
Substitution2: "'sups' Superscript lookup 12 subtable" threesuperior
Substitution2: "'subs' Subscript lookup 11 subtable" threeinferior
AlternateSubs2: "'aalt' Access All Alternates lookup 1 subtable" threeinferior threesuperior three.numr three.dnom three.tf three.osf
EndChar

StartChar: four
Encoding: 52 52 883
Width: 584
Flags: MW
HStem: 0 21G<258 471 258 258> 127 163<252 275 511 553> 686 20G<249 249>
VStem: -6 581<127 290>
LayerCount: 2
Fore
SplineSet
553 127 m 1
 489 127 l 1
 471 0 l 1
 258 0 l 1
 275 127 l 1
 -6 127 l 1
 14 270 l 1
 249 706 l 1
 429 640 l 1
 252 290 l 1
 299 290 l 1
 344 430 l 1
 531 430 l 1
 511 290 l 1
 575 290 l 1
 553 127 l 1
EndSplineSet
Substitution2: "'onum' Oldstyle Figures lookup 22 subtable" four.osf
Substitution2: "'tnum' Tabular Numbers lookup 21 subtable" four.tf
Substitution2: "'frac' Diagonal Fractions lookup 16 subtable" four.numr
Substitution2: "'dnom' Denominators lookup 14 subtable" four.dnom
Substitution2: "'numr' Numerators lookup 13 subtable" four.numr
Substitution2: "'sups' Superscript lookup 12 subtable" foursuperior
Substitution2: "'subs' Subscript lookup 11 subtable" fourinferior
AlternateSubs2: "'aalt' Access All Alternates lookup 1 subtable" fourinferior foursuperior four.numr four.dnom four.tf four.osf
EndChar
StartChar: five
Encoding: 53 53 2022
Width: 556
Flags: MW
HStem: -22 162<191 241 191 329.5> 291.5 168.5 316 144<246.5 417> 530 152<290 513 290 290>
VStem: 314 222<210.5 276.5>
LayerCount: 2
Back
Fore
SplineSet
557 682 m 1x58
 513 530 l 1
 290 530 l 1
 277 440 l 1
 309 455 342 460 369 460 c 0
 465 460 536 395 536 270 c 0
 536 151 450 -22 209 -22 c 0
 89 -22 17 32 -27 93 c 1
 102 202 l 1
 130 167 166 140 216 140 c 0
 266 140 314 168 314 253 c 0
 314 300 290 316 256 316 c 0xb8
 237 316 216 310 186 291 c 1
 46 292 l 1
 100 682 l 1
 557 682 l 1x58
EndSplineSet
Substitution2: "'onum' Oldstyle Figures lookup 26 subtable" five.osf
Substitution2: "'tnum' Tabular Numbers lookup 25 subtable" five.tf
Substitution2: "'frac' Diagonal Fractions lookup 19 subtable" five.numr
Substitution2: "'dnom' Denominators lookup 17 subtable" five.dnom
Substitution2: "'numr' Numerators lookup 16 subtable" five.numr
Substitution2: "'sups' Superscript lookup 15 subtable" uni2075
Substitution2: "'subs' Subscript lookup 14 subtable" uni2085
AlternateSubs2: "'aalt' Access All Alternates lookup 1 subtable" uni2085 uni2075 five.numr five.dnom five.tf five.osf
EndChar
StartChar: six
Encoding: 54 54 2023
Width: 581
Flags: MW
HStem: -22 153<269 312 269 386.5> 325 144<305 454.5> 550 150<370.5 413.5>
VStem: 19 225<171.5 210 171.5 244> 353 218<254 295>
LayerCount: 2
Back
Fore
SplineSet
401 469 m 0
 508 469 571 398 571 281 c 0
 571 170 499 -22 274 -22 c 0
 100 -22 19 76 19 232 c 0
 19 256 21 280 24 307 c 0
 59 543 206 700 407 700 c 0
 479 700 533 678 567 649 c 1
 472 527 l 1
 451 541 430 550 397 550 c 0
 344 550 299 517 274 434 c 1
 316 459 363 469 401 469 c 0
283 131 m 0
 341 131 353 231 353 277 c 0
 353 313 342 325 312 325 c 0
 298 325 278 321 254 306 c 1
 248 260 244 224 244 196 c 0
 244 147 255 131 283 131 c 0
EndSplineSet
Substitution2: "'onum' Oldstyle Figures lookup 26 subtable" six.osf
Substitution2: "'tnum' Tabular Numbers lookup 25 subtable" six.tf
Substitution2: "'frac' Diagonal Fractions lookup 19 subtable" six.numr
Substitution2: "'dnom' Denominators lookup 17 subtable" six.dnom
Substitution2: "'numr' Numerators lookup 16 subtable" six.numr
Substitution2: "'sups' Superscript lookup 15 subtable" uni2076
Substitution2: "'subs' Subscript lookup 14 subtable" uni2086
AlternateSubs2: "'aalt' Access All Alternates lookup 1 subtable" uni2086 uni2076 six.numr six.dnom six.tf six.osf
EndChar

StartChar: seven
Encoding: 55 55 886
Width: 477
Flags: MW
HStem: -22 21G<196 196> 520 162<56 280 34 531>
VStem: 5 526
LayerCount: 2
Fore
SplineSet
511 539 m 1
 196 -22 l 1
 5 45 l 1
 280 520 l 1
 34 520 l 1
 56 682 l 1
 531 682 l 1
 511 539 l 1
EndSplineSet
Substitution2: "'onum' Oldstyle Figures lookup 22 subtable" seven.osf
Substitution2: "'tnum' Tabular Numbers lookup 21 subtable" seven.tf
Substitution2: "'frac' Diagonal Fractions lookup 16 subtable" seven.numr
Substitution2: "'dnom' Denominators lookup 14 subtable" seven.dnom
Substitution2: "'numr' Numerators lookup 13 subtable" seven.numr
Substitution2: "'sups' Superscript lookup 12 subtable" sevensuperior
Substitution2: "'subs' Subscript lookup 11 subtable" seveninferior
AlternateSubs2: "'aalt' Access All Alternates lookup 1 subtable" seveninferior sevensuperior seven.numr seven.dnom seven.tf seven.osf
EndChar

StartChar: eight
Encoding: 56 56 887
Width: 597
Flags: MW
HStem: -22 153<261 309 261 361.5> 557 143<316.5 355.5>
VStem: -1 219<168 193 168 200> 71 209<481 502.5 481 524> 358 217<188 220> 385 211<514.5 531.5>
LayerCount: 2
Fore
SplineSet
471 365 m 1xe8
 544 320 575 264 575 202 c 0
 575 92 466 -22 257 -22 c 0
 87 -22 -1 65 -1 169 c 0xe8
 -1 231 42 305 145 347 c 1
 91 388 71 433 71 482 c 0
 71 566 137 700 354 700 c 0
 507 700 596 633 596 532 c 0xd4
 596 490 568 416 471 365 c 1xe8
342 557 m 0xd4
 291 557 280 515 280 490 c 0
 280 472 286 451 311 434 c 1
 333 424 l 1
 381 463 385 507 385 522 c 0
 385 541 369 557 342 557 c 0xd4
280 131 m 0xe8
 338 131 358 170 358 206 c 0
 358 234 343 251 307 268 c 1
 270 283 l 1
 228 252 218 203 218 183 c 0
 218 153 242 131 280 131 c 0xe8
EndSplineSet
Substitution2: "'onum' Oldstyle Figures lookup 22 subtable" eight.osf
Substitution2: "'tnum' Tabular Numbers lookup 21 subtable" eight.tf
Substitution2: "'frac' Diagonal Fractions lookup 16 subtable" eight.numr
Substitution2: "'dnom' Denominators lookup 14 subtable" eight.dnom
Substitution2: "'numr' Numerators lookup 13 subtable" eight.numr
Substitution2: "'sups' Superscript lookup 12 subtable" eightsuperior
Substitution2: "'subs' Subscript lookup 11 subtable" eightinferior
AlternateSubs2: "'aalt' Access All Alternates lookup 1 subtable" eightinferior eightsuperior eight.numr eight.dnom eight.tf eight.osf
EndChar
StartChar: nine
Encoding: 57 57 2026
Width: 582
Flags: MW
HStem: 226 148<152.5 302.5> 550 150<297 344.5>
VStem: 33 219<406 453.5 406 474> 373 224<483.5 514.5>
LayerCount: 2
Back
Fore
SplineSet
339 700 m 0
 506 700 597 608 597 479 c 0
 597 288 492 24 55 -34 c 1
 31 118 l 1
 201 151 271 183 328 269 c 1
 287 239 253 226 199 226 c 0
 106 226 33 294 33 414 c 0
 33 534 118 700 339 700 c 0
252 430 m 0
 252 382 271 374 292 374 c 0
 313 374 340 384 365 411 c 1
 370 445 373 473 373 494 c 0
 373 535 362 550 327 550 c 0
 267 550 252 477 252 430 c 0
EndSplineSet
Substitution2: "'onum' Oldstyle Figures lookup 26 subtable" nine.osf
Substitution2: "'tnum' Tabular Numbers lookup 25 subtable" nine.tf
Substitution2: "'frac' Diagonal Fractions lookup 19 subtable" nine.numr
Substitution2: "'dnom' Denominators lookup 17 subtable" nine.dnom
Substitution2: "'numr' Numerators lookup 16 subtable" nine.numr
Substitution2: "'sups' Superscript lookup 15 subtable" uni2079
Substitution2: "'subs' Subscript lookup 14 subtable" uni2089
AlternateSubs2: "'aalt' Access All Alternates lookup 1 subtable" uni2089 uni2079 nine.numr nine.dnom nine.tf nine.osf
EndChar
StartChar: colon
Encoding: 58 58 2122
Width: 240
Flags: MW
HStem: -22 545<50.5 178> 302 221<116 158>
VStem: -17 219<68.5 110> 27 219<392.5 434>
LayerCount: 2
Back
Fore
SplineSet
151 523 m 0x50
 205 523 246 484 246 426 c 0
 246 359 192 302 124 302 c 0
 67 302 27 342 27 402 c 0
 27 466 81 523 151 523 c 0x50
107 199 m 0xa0
 161 199 202 160 202 102 c 0
 202 35 148 -22 79 -22 c 0
 22 -22 -17 18 -17 78 c 0
 -17 142 36 199 107 199 c 0xa0
EndSplineSet
EndChar

StartChar: semicolon
Encoding: 59 59 995
Width: 246
Flags: MW
HStem: 0 21G<29 29> 302 221<122.5 160>
VStem: -9 218<82.5 108.5> 31 219<393.5 433.5>
LayerCount: 2
Fore
SplineSet
155 523 m 0xd0
 209 523 250 480 250 426 c 0
 250 361 192 302 128 302 c 0
 71 302 31 346 31 402 c 0
 31 465 90 523 155 523 c 0xd0
114 199 m 0xe0
 169 199 209 160 209 104 c 0
 209 61 190 29 145 -52 c 1
 65 -188 l 1
 -43 -188 l 1
 29 0 l 1
 4 17 -9 42 -9 73 c 0
 -9 144 45 199 114 199 c 0xe0
EndSplineSet
EndChar
StartChar: less
Encoding: 60 60 2261
Width: 525
GlyphClass: 2
Flags: MW
HStem: 66 534<406 481>
VStem: 9 523<241 444>
LayerCount: 2
Back
Fore
SplineSet
481 600 m 1
 532 444 l 1
 210 333 l 1
 493 221 l 1
 406 66 l 1
 9 241 l 1
 34 424 l 1
 481 600 l 1
EndSplineSet
Substitution2: "'onum' Oldstyle Figures lookup 26 subtable" less.osf
Substitution2: "'tnum' Tabular Numbers lookup 25 subtable" less.tf
AlternateSubs2: "'aalt' Access All Alternates lookup 1 subtable" less.tf less.osf
EndChar

StartChar: equal
Encoding: 61 61 1095
Width: 524
Flags: MW
HStem: 136 166<39 473 15 497> 362 167<71 505 47 528>
VStem: 15 513<136 529>
LayerCount: 2
Fore
SplineSet
71 529 m 1
 528 529 l 1
 505 362 l 1
 47 362 l 1
 71 529 l 1
39 302 m 1
 497 302 l 1
 473 136 l 1
 15 136 l 1
 39 302 l 1
EndSplineSet
Substitution2: "'onum' Oldstyle Figures lookup 22 subtable" equal.osf
Substitution2: "'tnum' Tabular Numbers lookup 21 subtable" equal.tf
Substitution2: "'dnom' Denominators lookup 14 subtable" equal.dnom
Substitution2: "'numr' Numerators lookup 13 subtable" equal.numr
Substitution2: "'sups' Superscript lookup 12 subtable" equalsuperior
AlternateSubs2: "'aalt' Access All Alternates lookup 1 subtable" equalsuperior equal.numr equal.dnom equal.tf equal.osf
EndChar

StartChar: greater
Encoding: 62 62 1098
Width: 523
Flags: MW
HStem: 66 534<55 130>
VStem: 7 520<233 424>
LayerCount: 2
Fore
SplineSet
527 424 m 1
 501 241 l 1
 55 66 l 1
 7 233 l 1
 325 332 l 1
 45 455 l 1
 130 600 l 1
 527 424 l 1
EndSplineSet
Substitution2: "'onum' Oldstyle Figures lookup 22 subtable" greater.osf
Substitution2: "'tnum' Tabular Numbers lookup 21 subtable" greater.tf
AlternateSubs2: "'aalt' Access All Alternates lookup 1 subtable" greater.tf greater.osf
EndChar
StartChar: question
Encoding: 63 63 2130
Width: 490
Flags: MW
HStem: 548 171<253.5 277.5>
VStem: 103 219<68.5 110> 123 194<287 289 287 376> 299 232<490.5 532.5>
LayerCount: 2
Back
Fore
SplineSet
313 719 m 0x90
 461 719 531 651 531 565 c 0x90
 531 367 318 392 317 289 c 0
 317 285 318 277 319 273 c 1
 128 246 l 1
 124 262 123 277 123 294 c 0xa0
 123 458 299 455 299 526 c 0
 299 539 289 548 266 548 c 0
 234 548 201 529 164 497 c 1
 45 605 l 1
 109 671 194 719 313 719 c 0x90
227 199 m 0xc0
 281 199 322 160 322 102 c 0
 322 35 269 -22 200 -22 c 0
 143 -22 103 18 103 78 c 0
 103 142 157 199 227 199 c 0xc0
EndSplineSet
EndChar

StartChar: at
Encoding: 64 64 1220
Width: 1007
Flags: MW
HStem: -230 156<396 501> -1 125<709 747 709 818> 5 131<380 483.5> 381 132<499 527> 566 153<413 638.5>
VStem: 20 190<110 267 110 293> 270 188<152 201 152 239.5> 802 186<324.5 435>
LayerCount: 2
Fore
SplineSet
572 719 m 0xdf
 833 719 988 555 988 361 c 0
 988 210 908 -1 728 -1 c 0xdf
 655 -1 588 47 583 97 c 1
 551 37 503 5 441 5 c 0xbf
 319 5 270 79 270 177 c 0
 270 302 332 513 553 513 c 0
 610 513 685 492 734 462 c 1
 694 160 l 2
 691 132 701 124 717 124 c 0
 777 124 802 279 802 370 c 0
 802 500 724 566 553 566 c 0
 273 566 210 345 210 189 c 0
 210 31 302 -74 490 -74 c 0
 539 -74 621 -58 671 -39 c 1
 701 -186 l 1
 639 -211 532 -230 470 -230 c 0
 184 -230 20 -60 20 181 c 0
 20 405 176 719 572 719 c 0xdf
481 136 m 0xbf
 486 136 497 133 509 150 c 1
 542 378 l 1
 534 382 529 381 525 381 c 0
 473 381 458 237 458 165 c 0
 458 139 467 136 481 136 c 0xbf
EndSplineSet
EndChar
StartChar: B
Encoding: 66 66 36
Width: 612
GlyphClass: 2
Flags: MW
HStem: 0 161<241 245> 291 143<279 293 259 298> 542 156<294 306 306 307 294 294>
VStem: 366 232<220 258.5> 378 235<493 515.5>
AnchorPoint: "Anchor-14" 0 0 basechar 0
AnchorPoint: "Anchor-13" 0 0 basechar 0
AnchorPoint: "Anchor-12" 338 698 basechar 0
AnchorPoint: "Anchor-11" 0 0 basechar 0
AnchorPoint: "Anchor-10" 0 0 basechar 0
LayerCount: 2
Back
Fore
SplineSet
463 369 m 1xf0
 532 355 598 322 598 221 c 0xf0
 598 100 511 0 245 0 c 2
 -7 0 l 1
 90 698 l 1
 306 698 l 2
 495 698 613 661 613 535 c 0xe8
 613 432 535 388 463 369 c 1xf0
298 434 m 2xe8
 384 434 378 482 378 504 c 0
 378 527 365 542 307 542 c 2
 294 542 l 1
 279 434 l 1
 298 434 l 2xe8
268 161 m 2xf0
 351 161 366 197 366 243 c 0
 366 274 343 291 293 291 c 2
 259 291 l 1
 241 161 l 1
 268 161 l 2xf0
EndSplineSet
Substitution2: "'c2sc' Capitals to Small Capitals lookup 27 subtable" b.sc
Substitution2: "'aalt' Access All Alternates lookup 0 subtable" b.sc
Position2: "'cpsp' Capital Spacing lookup 0 subtable" dx=5 dy=0 dh=10 dv=0
EndChar
StartChar: E
Encoding: 69 69 65
Width: 507
GlyphClass: 2
Flags: MW
HStem: 0 159<243 454> 278 153<281 451 260 471> 539 159<296 513 296 296>
VStem: -5 564
AnchorPoint: "Anchor-14" 0 0 basechar 0
AnchorPoint: "Anchor-13" 0 0 basechar 0
AnchorPoint: "Anchor-12" 325 698 basechar 0
AnchorPoint: "Anchor-11" 424 0 basechar 0
AnchorPoint: "Anchor-10" 224 0 basechar 0
LayerCount: 2
Back
Fore
SplineSet
559 698 m 1
 513 539 l 1
 296 539 l 1
 281 431 l 1
 471 431 l 1
 451 278 l 1
 260 278 l 1
 243 159 l 1
 476 159 l 1
 454 0 l 1
 -5 0 l 1
 92 698 l 1
 559 698 l 1
EndSplineSet
Substitution2: "'c2sc' Capitals to Small Capitals lookup 27 subtable" e.sc
Substitution2: "'aalt' Access All Alternates lookup 0 subtable" e.sc
Position2: "'cpsp' Capital Spacing lookup 0 subtable" dx=5 dy=0 dh=10 dv=0
EndChar
StartChar: F
Encoding: 70 70 93
Width: 473
GlyphClass: 2
Flags: MW
HStem: 0 21G<-7 220 -7 -7> 248 158<276 432 254 454> 539 159<295 495 295 295>
VStem: -7 548
AnchorPoint: "Anchor-14" 0 0 basechar 0
AnchorPoint: "Anchor-13" 0 0 basechar 0
AnchorPoint: "Anchor-12" 315 698 basechar 0
AnchorPoint: "Anchor-11" 0 0 basechar 0
AnchorPoint: "Anchor-10" 0 0 basechar 0
LayerCount: 2
Back
Fore
SplineSet
541 698 m 1
 495 539 l 1
 295 539 l 1
 276 406 l 1
 454 406 l 1
 432 248 l 1
 254 248 l 1
 220 0 l 1
 -7 0 l 1
 90 698 l 1
 541 698 l 1
EndSplineSet
Substitution2: "'c2sc' Capitals to Small Capitals lookup 27 subtable" f.sc
Substitution2: "'aalt' Access All Alternates lookup 0 subtable" f.sc
Position2: "'cpsp' Capital Spacing lookup 0 subtable" dx=5 dy=0 dh=10 dv=0
EndChar
StartChar: G
Encoding: 71 71 96
Width: 643
GlyphClass: 2
Flags: MW
HStem: -22 162<296 332 296 353.5> 262 153<343 398 340 636> 560 159<349.5 449>
VStem: 16 231<202 308.5 202 367>
AnchorPoint: "Anchor-14" 0 0 basechar 0
AnchorPoint: "Anchor-13" 0 0 basechar 0
AnchorPoint: "Anchor-12" 401 698 basechar 0
AnchorPoint: "Anchor-11" 0 0 basechar 0
AnchorPoint: "Anchor-10" 307 0 basechar 0
LayerCount: 2
Back
Fore
SplineSet
430 719 m 0
 537 719 619 676 665 622 c 1
 539 508 l 1
 504 543 474 560 424 560 c 0
 275 560 247 375 247 242 c 0
 247 162 272 140 320 140 c 0
 344 140 362 145 382 151 c 1
 398 262 l 1
 340 262 l 1
 343 415 l 1
 636 415 l 1
 588 59 l 1
 505 7 395 -22 312 -22 c 0
 104 -22 16 79 16 259 c 0
 16 475 124 719 430 719 c 0
EndSplineSet
Substitution2: "'c2sc' Capitals to Small Capitals lookup 27 subtable" g.sc
Substitution2: "'aalt' Access All Alternates lookup 0 subtable" g.sc
Position2: "'cpsp' Capital Spacing lookup 0 subtable" dx=5 dy=0 dh=10 dv=0
EndChar
StartChar: H
Encoding: 72 72 107
Width: 638
GlyphClass: 2
Flags: MW
HStem: 0 21G<-7 220 -7 -7 345 571 345 345> 271 177<282 381 257 407> 678 20G<92 317 317 317 442 668 668 668>
VStem: -7 675
AnchorPoint: "Anchor-14" 332 349 basechar 0
AnchorPoint: "Anchor-13" 0 0 basechar 0
AnchorPoint: "Anchor-12" 380 698 basechar 0
AnchorPoint: "Anchor-11" 0 0 basechar 0
AnchorPoint: "Anchor-10" 280 0 basechar 0
LayerCount: 2
Back
Fore
SplineSet
345 0 m 1
 381 271 l 1
 257 271 l 1
 220 0 l 1
 -7 0 l 1
 92 698 l 1
 317 698 l 1
 282 448 l 1
 407 448 l 1
 442 698 l 1
 668 698 l 1
 571 0 l 1
 345 0 l 1
EndSplineSet
Substitution2: "'c2sc' Capitals to Small Capitals lookup 27 subtable" h.sc
Substitution2: "'aalt' Access All Alternates lookup 0 subtable" h.sc
Position2: "'cpsp' Capital Spacing lookup 0 subtable" dx=5 dy=0 dh=10 dv=0
EndChar
StartChar: I
Encoding: 73 73 115
Width: 287
GlyphClass: 2
Flags: MW
HStem: 0 21G<-7 220 -7 -7> 678 20G<90 317 317 317>
VStem: -7 324
AnchorPoint: "Anchor-14" 0 0 basechar 0
AnchorPoint: "Anchor-13" 0 0 basechar 0
AnchorPoint: "Anchor-12" 204 698 basechar 0
AnchorPoint: "Anchor-11" 180 0 basechar 0
AnchorPoint: "Anchor-10" 107 0 basechar 0
LayerCount: 2
Back
Fore
SplineSet
317 698 m 1
 220 0 l 1
 -7 0 l 1
 90 698 l 1
 317 698 l 1
EndSplineSet
Substitution2: "'c2sc' Capitals to Small Capitals lookup 27 subtable" i.sc
Substitution2: "'aalt' Access All Alternates lookup 0 subtable" i.sc
Position2: "'cpsp' Capital Spacing lookup 0 subtable" dx=5 dy=0 dh=10 dv=0
EndChar

StartChar: J
Encoding: 74 74 54
Width: 320
GlyphClass: 2
Flags: MW
HStem: 678 20G<124 351 351 351>
VStem: -73 424
AnchorPoint: "Anchor-11" 0 0 basechar 0
AnchorPoint: "Anchor-10" 0 0 basechar 0
AnchorPoint: "Anchor-9" 237 698 basechar 0
AnchorPoint: "Anchor-8" 0 0 basechar 0
LayerCount: 2
Fore
SplineSet
270 114 m 1
 240 -91 93 -159 -33 -201 c 1
 -73 -39 l 1
 18 -5 33 49 44 123 c 2
 124 698 l 1
 351 698 l 1
 270 114 l 1
EndSplineSet
Substitution2: "'c2sc' Capitals to Small Capitals lookup 23 subtable" j.sc
Substitution2: "'aalt' Access All Alternates lookup 0 subtable" j.sc
Position2: "'cpsp' Capital Spacing lookup 0 subtable" dx=5 dy=0 dh=10 dv=0
EndChar

StartChar: Q
Encoding: 81 81 85
Width: 677
GlyphClass: 2
Flags: MW
HStem: -22 69 -22 162<293.5 364.5> -19 21G<696 696> 558 161<323 405>
VStem: 17 233<207 290 207 365.5> 449 233<407 492>
LayerCount: 2
Fore
SplineSet
485 47 m 1x9c
 596 44 647 24 696 -19 c 1x3c
 541 -193 l 1
 501 -119 430 -22 299 -22 c 0x5c
 113 -22 17 90 17 269 c 0
 17 462 104 719 400 719 c 0
 586 719 682 610 682 431 c 0
 682 295 637 131 485 47 c 1x9c
250 244 m 0x5c
 250 170 269 140 318 140 c 0
 434 140 449 359 449 455 c 0
 449 529 429 558 381 558 c 0
 265 558 250 336 250 244 c 0x5c
EndSplineSet
Substitution2: "'c2sc' Capitals to Small Capitals lookup 23 subtable" q.sc
Substitution2: "'aalt' Access All Alternates lookup 0 subtable" q.sc
Position2: "'cpsp' Capital Spacing lookup 0 subtable" dx=5 dy=0 dh=10 dv=0
EndChar
StartChar: R
Encoding: 82 82 218
Width: 615
GlyphClass: 2
Flags: MW
HStem: 0 21G<-7 220 -7 -7 362 608 362 362> 238 153<274 278 253 315> 541 157<295 295 295 329>
VStem: 396 232<469 506>
AnchorPoint: "Anchor-14" 0 0 basechar 0
AnchorPoint: "Anchor-13" 0 0 basechar 0
AnchorPoint: "Anchor-12" 369 698 basechar 0
AnchorPoint: "Anchor-11" 0 0 basechar 0
AnchorPoint: "Anchor-10" 270 0 basechar 0
LayerCount: 2
Back
Fore
SplineSet
628 511 m 0
 628 420 612 350 487 276 c 1
 608 0 l 1
 362 0 l 1
 278 238 l 1
 253 238 l 1
 220 0 l 1
 -7 0 l 1
 90 698 l 1
 358 698 l 2
 536 698 628 639 628 511 c 0
295 541 m 1
 274 391 l 1
 315 391 l 2
 380 391 396 449 396 489 c 0
 396 523 371 541 329 541 c 2
 295 541 l 1
EndSplineSet
Substitution2: "'c2sc' Capitals to Small Capitals lookup 27 subtable" r.sc
Substitution2: "'aalt' Access All Alternates lookup 0 subtable" r.sc
Position2: "'cpsp' Capital Spacing lookup 0 subtable" dx=5 dy=0 dh=10 dv=0
EndChar
StartChar: T
Encoding: 84 84 238
Width: 549
GlyphClass: 2
Flags: MW
HStem: 0 21G<124 351 124 124> 527 171<62 198 39 618 425 572 425 425>
VStem: 39 579<527 698>
AnchorPoint: "Anchor-14" 287 349 basechar 0
AnchorPoint: "Anchor-13" 0 0 basechar 0
AnchorPoint: "Anchor-12" 336 698 basechar 0
AnchorPoint: "Anchor-11" 0 0 basechar 0
AnchorPoint: "Anchor-10" 237 0 basechar 0
LayerCount: 2
Back
Fore
SplineSet
618 698 m 1
 572 527 l 1
 425 527 l 1
 351 0 l 1
 124 0 l 1
 198 527 l 1
 39 527 l 1
 62 698 l 1
 618 698 l 1
EndSplineSet
Substitution2: "'c2sc' Capitals to Small Capitals lookup 27 subtable" t.sc
Substitution2: "'aalt' Access All Alternates lookup 0 subtable" t.sc
Position2: "'cpsp' Capital Spacing lookup 0 subtable" dx=5 dy=0 dh=10 dv=0
EndChar

StartChar: U
Encoding: 85 85 101
Width: 626
GlyphClass: 2
Flags: MW
HStem: -22 164<269 319 269 375> 678 20G<80 307 307 307 440 666 666 666>
VStem: 13.51 226.2
AnchorPoint: "Anchor-11" 0 0 basechar 0
AnchorPoint: "Anchor-10" 0 0 basechar 0
AnchorPoint: "Anchor-9" 373 698 basechar 0
AnchorPoint: "Anchor-8" 420 0 basechar 0
LayerCount: 2
Fore
SplineSet
603 239 m 2
 583 96 475 -22 275 -22 c 0
 74 -22 -5 85 17 240 c 2
 80 698 l 1
 307 698 l 1
 243 245 l 2
 233 174 244 142 294 142 c 0
 344 142 366 176 376 246 c 2
 440 698 l 1
 666 698 l 1
 603 239 l 2
EndSplineSet
Substitution2: "'c2sc' Capitals to Small Capitals lookup 23 subtable" u.sc
Substitution2: "'aalt' Access All Alternates lookup 0 subtable" u.sc
Position2: "'cpsp' Capital Spacing lookup 0 subtable" dx=5 dy=0 dh=10 dv=0
EndChar

StartChar: V
Encoding: 86 86 112
Width: 571
GlyphClass: 2
Flags: MW
HStem: 0 21G<108 404 108 108> 0 152<279 279 279 404> 678 20G<29 266 266 266 430 664 664 664>
VStem: 29 635<698 698>
LayerCount: 2
Fore
SplineSet
404 0 m 1xb0
 108 0 l 1
 29 698 l 1
 266 698 l 1
 279 152 l 1x70
 430 698 l 1
 664 698 l 1
 404 0 l 1xb0
EndSplineSet
Substitution2: "'c2sc' Capitals to Small Capitals lookup 23 subtable" v.sc
Substitution2: "'aalt' Access All Alternates lookup 0 subtable" v.sc
Position2: "'cpsp' Capital Spacing lookup 0 subtable" dx=5 dy=0 dh=10 dv=0
EndChar
StartChar: Y
Encoding: 89 89 293
Width: 622
GlyphClass: 2
Flags: MW
HStem: 0 21G<161 387 161 161> 678 20G<40 284 284 284 460 702 702 702>
VStem: 40 662<698 698>
AnchorPoint: "Anchor-14" 0 0 basechar 0
AnchorPoint: "Anchor-13" 0 0 basechar 0
AnchorPoint: "Anchor-12" 371 698 basechar 0
AnchorPoint: "Anchor-11" 0 0 basechar 0
AnchorPoint: "Anchor-10" 274 0 basechar 0
LayerCount: 2
Back
Fore
SplineSet
702 698 m 1
 423 255 l 1
 387 0 l 1
 161 0 l 1
 197 254 l 1
 40 698 l 1
 284 698 l 1
 335 426 l 1
 460 698 l 1
 702 698 l 1
EndSplineSet
Substitution2: "'c2sc' Capitals to Small Capitals lookup 27 subtable" y.sc
Substitution2: "'aalt' Access All Alternates lookup 0 subtable" y.sc
Position2: "'cpsp' Capital Spacing lookup 0 subtable" dx=5 dy=0 dh=10 dv=0
EndChar
StartChar: bracketleft
Encoding: 91 91 2148
Width: 312
Flags: MW
HStem: -129 156<173 259> 672 157<264 372 264 264>
VStem: -56 450
LayerCount: 2
Back
Fore
SplineSet
394 829 m 1
 372 672 l 1
 264 672 l 1
 173 27 l 1
 281 27 l 1
 259 -129 l 1
 -56 -129 l 1
 80 829 l 1
 394 829 l 1
EndSplineSet
Substitution2: "'case' Case-Sensitive Forms lookup 29 subtable" bracketleft.case
Substitution2: "'aalt' Access All Alternates lookup 0 subtable" bracketleft.case
EndChar

StartChar: backslash
Encoding: 92 92 981
Width: 507
Flags: MW
HStem: -120 946<219 310>
VStem: 112 307
LayerCount: 2
Fore
SplineSet
419 -75 m 1
 219 -120 l 1
 112 780 l 1
 310 826 l 1
 419 -75 l 1
EndSplineSet
EndChar

StartChar: bracketright
Encoding: 93 93 1008
Width: 312
Flags: MW
HStem: -129 158<-35 72 -35 256 -59 72> 673 156<77 163 55 391>
VStem: -59 450
LayerCount: 2
Fore
SplineSet
256 -129 m 1
 -59 -129 l 1
 -35 29 l 1
 72 29 l 1
 163 673 l 1
 55 673 l 1
 77 829 l 1
 391 829 l 1
 256 -129 l 1
EndSplineSet
Substitution2: "'case' Case-Sensitive Forms lookup 25 subtable" bracketright.case
Substitution2: "'aalt' Access All Alternates lookup 0 subtable" bracketright.case
EndChar

StartChar: asciicircum
Encoding: 94 94 1230
Width: 563
Flags: MW
HStem: 527 322<32 463 32 463 398 463 263 603 398 398>
VStem: 32 571<527 527>
LayerCount: 2
Fore
SplineSet
603 527 m 1
 398 527 l 1
 340 693 l 1
 244 527 l 1
 32 527 l 1
 263 849 l 1
 463 849 l 1
 603 527 l 1
EndSplineSet
EndChar

StartChar: underscore
Encoding: 95 95 997
Width: 507
Flags: MW
HStem: -198 166<-41 440 -64 463>
VStem: -64 527<-198 -32>
LayerCount: 2
Fore
SplineSet
-41 -32 m 1
 463 -32 l 1
 440 -198 l 1
 -64 -198 l 1
 -41 -32 l 1
EndSplineSet
EndChar
StartChar: grave
Encoding: 96 96 2524
Width: 371
Flags: MW
HStem: 689 20G<93 93> 696 20G<403 403>
VStem: 93 310<709 716>
LayerCount: 2
Back
Fore
SplineSet
194 868 m 1x60
 403 716 l 1x60
 332 607 l 1
 93 709 l 1xa0
 194 868 l 1x60
EndSplineSet
Substitution2: "'case' Case-Sensitive Forms lookup 29 subtable" grave.case
Substitution2: "'smcp' Lowercase to Small Capitals lookup 28 subtable" grave.sc
Substitution2: "'c2sc' Capitals to Small Capitals lookup 27 subtable" grave.sc
AlternateSubs2: "'aalt' Access All Alternates lookup 1 subtable" grave.sc grave.case
EndChar

StartChar: b
Encoding: 98 98 146
Width: 583
GlyphClass: 2
Flags: MW
HStem: -22 157<261.5 303.5 261.5 387> 537 20G<393 473> 747 20G<316 316>
VStem: 359 223<296.5 365.5>
LayerCount: 2
Fore
SplineSet
278 497 m 1
 310 533 371 557 415 557 c 0
 531 557 582 481 582 350 c 0
 582 193 529 -22 245 -22 c 0
 150 -22 65 -1 -4 32 c 1
 96 745 l 1
 316 767 l 1
 278 497 l 1
324 400 m 0
 304 400 280 388 258 352 c 1
 229 143 l 1
 237 140 253 135 270 135 c 0
 337 135 359 255 359 338 c 0
 359 393 342 400 324 400 c 0
EndSplineSet
Substitution2: "'smcp' Lowercase to Small Capitals lookup 24 subtable" b.sc
Substitution2: "'aalt' Access All Alternates lookup 0 subtable" b.sc
EndChar

StartChar: c
Encoding: 99 99 147
Width: 466
GlyphClass: 2
Flags: MW
HStem: -22 170<272 297.5> 392 165<287 342.5>
VStem: 2 227<187 252 187 289>
AnchorPoint: "Anchor-11" 232 0 basechar 0
AnchorPoint: "Anchor-10" 0 0 basechar 0
AnchorPoint: "Anchor-9" 322 536 basechar 0
AnchorPoint: "Anchor-8" 0 0 basechar 0
LayerCount: 2
Fore
SplineSet
328 557 m 0
 404 557 468 528 514 480 c 1
 411 357 l 1
 384 382 356 392 329 392 c 0
 245 392 229 288 229 216 c 0
 229 158 255 148 289 148 c 0
 319 148 342 159 378 182 c 1
 456 44 l 1
 401 5 339 -22 256 -22 c 0
 95 -22 2 75 2 220 c 0
 2 358 92 557 328 557 c 0
EndSplineSet
Substitution2: "'smcp' Lowercase to Small Capitals lookup 24 subtable" c.sc
Substitution2: "'aalt' Access All Alternates lookup 0 subtable" c.sc
EndChar

StartChar: d
Encoding: 100 100 153
Width: 588
GlyphClass: 2
Flags: MW
HStem: -22 21G<114 210.5> 0 136<252 522 252 328> 401 156<283 296.5 177 327.5> 747 20G<411 411>
VStem: 5 224<170.5 237.5 170.5 273.5>
LayerCount: 2
Fore
SplineSet
626 745 m 1
 522 0 l 1
 328 0 l 1x78
 329 65 l 1
 298 25 249 -22 172 -22 c 0
 56 -22 5 59 5 197 c 0
 5 350 75 557 279 557 c 0
 314 557 352 544 377 520 c 1
 411 767 l 1
 626 745 l 1
319 401 m 0
 247 401 229 274 229 201 c 0
 229 140 245 136 259 136 c 0
 284 136 314 179 333 210 c 1
 358 386 l 1
 346 398 336 401 319 401 c 0
EndSplineSet
Substitution2: "'smcp' Lowercase to Small Capitals lookup 24 subtable" d.sc
Substitution2: "'aalt' Access All Alternates lookup 0 subtable" d.sc
EndChar

StartChar: f
Encoding: 102 102 167
Width: 363
GlyphClass: 2
Flags: MW
HStem: -230 21G<-46 -46> 387 149<30 75 10 95 314 390> 610 157<360.5 387> 698 20G<525 525>
VStem: -97 622
LayerCount: 2
Fore
SplineSet
377 610 m 0xe8
 344 610 322 594 315 544 c 2
 314 536 l 1
 434 536 l 1
 390 387 l 1
 293 387 l 1
 251 87 l 2
 224 -110 93 -189 -46 -230 c 1
 -97 -73 l 1
 -18 -47 21 -7 32 74 c 2
 75 387 l 1
 10 387 l 1
 30 536 l 1
 95 536 l 1
 98 558 l 2
 114 674 200 767 355 767 c 0xe8
 430 767 492 742 525 718 c 1xd8
 452 591 l 1
 427 605 397 610 377 610 c 0xe8
EndSplineSet
Substitution2: "'smcp' Lowercase to Small Capitals lookup 24 subtable" f.sc
Substitution2: "'aalt' Access All Alternates lookup 0 subtable" f.sc
EndChar

StartChar: g
Encoding: 103 103 168
Width: 573
GlyphClass: 2
Flags: MW
HStem: -229 159<187.5 229.5 187.5 311> 0 21G<121 209.5> 407 150<285 330>
VStem: 3 221<194 254 194 282.5>
AnchorPoint: "Anchor-11" 0 0 basechar 0
AnchorPoint: "Anchor-10" 0 0 basechar 0
AnchorPoint: "Anchor-9" 334 536 basechar 0
AnchorPoint: "Anchor-8" 0 0 basechar 0
LayerCount: 2
Fore
SplineSet
334 557 m 0
 412 557 506 537 581 490 c 1
 523 68 l 1
 494 -135 416 -229 206 -229 c 0
 138 -229 54 -205 -10 -164 c 1
 59 -28 l 1
 125 -62 169 -70 206 -70 c 0
 253 -70 295 -56 306 23 c 1
 313 59 l 1
 281 25 238 0 181 0 c 0
 61 0 3 89 3 214 c 0
 3 351 85 557 334 557 c 0
325 407 m 0
 245 407 224 285 224 223 c 0
 224 165 246 160 261 160 c 0
 282 160 306 177 326 209 c 1
 356 404 l 1
 344 406 335 407 325 407 c 0
EndSplineSet
Substitution2: "'smcp' Lowercase to Small Capitals lookup 24 subtable" g.sc
Substitution2: "'aalt' Access All Alternates lookup 0 subtable" g.sc
EndChar
StartChar: h
Encoding: 104 104 468
Width: 554
GlyphClass: 2
Flags: MW
HStem: 0 21G<-9 208 -9 -9 276 493 276 276> 537 20G<404 476.5>
VStem: 323 228.48
AnchorPoint: "Anchor-14" 277 268 basechar 0
AnchorPoint: "Anchor-13" 0 0 basechar 0
AnchorPoint: "Anchor-12" 344 745 basechar 0
AnchorPoint: "Anchor-11" 0 0 basechar 0
AnchorPoint: "Anchor-10" 243 0 basechar 0
LayerCount: 2
Back
Fore
SplineSet
436 557 m 0
 517 557 563 500 549 398 c 2
 493 0 l 1
 276 0 l 1
 323 335 l 2
 328 370 323 377 315 377 c 0
 302 377 281 344 247 269 c 1
 208 0 l 1
 -9 0 l 1
 95 745 l 1
 314 768 l 1
 272 456 l 1
 304 516 372 557 436 557 c 0
EndSplineSet
Substitution2: "'smcp' Lowercase to Small Capitals lookup 28 subtable" h.sc
Substitution2: "'aalt' Access All Alternates lookup 0 subtable" h.sc
EndChar

StartChar: k
Encoding: 107 107 191
Width: 589
GlyphClass: 2
Flags: MW
HStem: 0 21G<-8 211 -8 -8 322 559 322 322> 537 20G<418.5 499.5> 747 20G<317 317>
VStem: -8 615<0 463.5> 388 219<382.5 390.5>
AnchorPoint: "Anchor-11" 267 0 basechar 0
AnchorPoint: "Anchor-10" 0 0 basechar 0
AnchorPoint: "Anchor-9" 0 0 basechar 0
AnchorPoint: "Anchor-8" 0 0 basechar 0
LayerCount: 2
Fore
SplineSet
278 488 m 1xf0
 335 540 388 557 449 557 c 0
 550 557 607 504 607 423 c 0
 607 342 566 283 480 239 c 1
 559 0 l 1
 322 0 l 1
 255 256 l 1
 364 296 388 341 388 380 c 0
 388 401 376 411 355 411 c 0xe8
 329 411 300 394 258 341 c 1
 211 0 l 1
 -8 0 l 1
 96 745 l 1
 317 767 l 1
 278 488 l 1xf0
EndSplineSet
Substitution2: "'smcp' Lowercase to Small Capitals lookup 24 subtable" k.sc
Substitution2: "'aalt' Access All Alternates lookup 0 subtable" k.sc
EndChar
StartChar: l
Encoding: 108 108 511
Width: 288
GlyphClass: 2
Flags: MW
HStem: 0 21G<280 280>
VStem: 4.95 304.05
AnchorPoint: "Anchor-14" 414 371 basechar 0
AnchorPoint: "Anchor-13" 328 745 basechar 0
AnchorPoint: "Anchor-12" 198 745 basechar 0
AnchorPoint: "Anchor-11" 0 0 basechar 0
AnchorPoint: "Anchor-10" 141 0 basechar 0
LayerCount: 2
Back
Fore
SplineSet
309 767 m 1
 228 186 l 2
 224 157 235 151 246 151 c 0
 249 151 256 153 262 154 c 1
 280 0 l 1
 249 -13 199 -22 154 -22 c 0
 46 -22 -9 43 8 160 c 2
 90 745 l 1
 309 767 l 1
EndSplineSet
Substitution2: "'smcp' Lowercase to Small Capitals lookup 28 subtable" l.sc
Substitution2: "'sups' Superscript lookup 15 subtable" uni02E1
AlternateSubs2: "'aalt' Access All Alternates lookup 1 subtable" uni02E1 l.sc
EndChar

StartChar: m
Encoding: 109 109 200
Width: 815
GlyphClass: 2
Flags: MW
HStem: 0 21G<-8 209 -8 -8 265 482 265 265 537 754 537 537> 377 159<66 312.5> 516 20G<66 256 256 256> 537 20G<388.5 449.5 662.5 733>
VStem: 591.39 220.11
LayerCount: 2
Fore
SplineSet
688 557 m 0x98
 778 557 823 500 809 397 c 2
 754 0 l 1
 537 0 l 1
 589 335 l 2
 595 369 589 377 580 377 c 0
 568 377 543 347 520 276 c 1
 482 0 l 1
 265 0 l 1
 317 335 l 2
 323 369 317 377 308 377 c 0xc8
 295 377 267 346 249 273 c 1
 209 0 l 1
 -8 0 l 1
 66 536 l 1
 256 536 l 1xa8
 258 462 l 1
 296 523 361 557 416 557 c 0
 483 557 524 526 536 470 c 1
 577 523 637 557 688 557 c 0x98
EndSplineSet
Substitution2: "'smcp' Lowercase to Small Capitals lookup 24 subtable" m.sc
Substitution2: "'aalt' Access All Alternates lookup 0 subtable" m.sc
EndChar

StartChar: n
Encoding: 110 110 201
Width: 555
GlyphClass: 2
Flags: MW
HStem: 0 21G<-8 209 -8 -8 277 494 277 277> 377 159<66 326.5> 516 20G<66 256 256 256> 537 20G<403 474.5>
VStem: 331.57 220.9
AnchorPoint: "Anchor-11" 241 0 basechar 0
AnchorPoint: "Anchor-10" 58 536 basechar 0
AnchorPoint: "Anchor-9" 320 536 basechar 0
AnchorPoint: "Anchor-8" 0 0 basechar 0
LayerCount: 2
Fore
SplineSet
431 557 m 0x98
 518 557 564 500 550 397 c 2
 494 0 l 1
 277 0 l 1
 329 335 l 2
 335 369 330 377 323 377 c 0xc8
 308 377 282 344 249 269 c 1
 209 0 l 1
 -8 0 l 1
 66 536 l 1
 256 536 l 1xa8
 259 451 l 1
 299 515 375 557 431 557 c 0x98
EndSplineSet
Substitution2: "'smcp' Lowercase to Small Capitals lookup 24 subtable" n.sc
Substitution2: "'aalt' Access All Alternates lookup 0 subtable" n.sc
EndChar

StartChar: q
Encoding: 113 113 222
Width: 571
GlyphClass: 2
Flags: MW
HStem: -229 21G<257 257> -22 21G<117.5 208> -22 158<117.5 267.5> 407 150<284 326.5>
VStem: 0 222<169.5 244.5 169.5 284.5>
LayerCount: 2
Fore
SplineSet
331 557 m 0xd8
 409 557 503 537 578 490 c 1
 481 -207 l 1
 257 -229 l 1
 300 29 l 1
 291 14 241 -22 175 -22 c 0
 60 -22 0 63 0 199 c 0
 0 370 88 557 331 557 c 0xd8
321 407 m 0
 247 407 222 289 222 200 c 0
 222 139 242 136 257 136 c 0
 278 136 300 150 320 187 c 1xb8
 352 404 l 1
 340 406 332 407 321 407 c 0
EndSplineSet
Substitution2: "'smcp' Lowercase to Small Capitals lookup 24 subtable" q.sc
Substitution2: "'aalt' Access All Alternates lookup 0 subtable" q.sc
EndChar

StartChar: s
Encoding: 115 115 227
Width: 486
GlyphClass: 2
Flags: MW
HStem: -22 151<179 219 179 322> 406 151<264.5 298.5>
VStem: -33 525<76 486> 28 215<381.5 394.5 381.5 420.5> 257 213<138 158.5>
AnchorPoint: "Anchor-11" 205 0 basechar 0
AnchorPoint: "Anchor-10" 0 0 basechar 0
AnchorPoint: "Anchor-9" 284 536 basechar 0
AnchorPoint: "Anchor-8" 0 0 basechar 0
LayerCount: 2
Fore
SplineSet
279 557 m 0xe0
 354 557 449 529 492 486 c 1
 400 369 l 1
 367 392 318 406 279 406 c 0
 250 406 243 400 243 389 c 0xd0
 243 374 251 373 341 342 c 0
 422 314 470 262 470 178 c 0
 470 98 431 -22 213 -22 c 0
 116 -22 18 17 -33 76 c 1
 72 186 l 1
 104 158 150 129 208 129 c 0
 230 129 257 125 257 150 c 0xc8
 257 167 243 172 158 201 c 0
 78 229 28 289 28 365 c 0xd0
 28 476 121 557 279 557 c 0xe0
EndSplineSet
Substitution2: "'smcp' Lowercase to Small Capitals lookup 24 subtable" s.sc
Substitution2: "'aalt' Access All Alternates lookup 0 subtable" s.sc
EndChar

StartChar: v
Encoding: 118 118 250
Width: 520
GlyphClass: 2
Flags: MW
HStem: 0 21G<97 358 97 97> 0 157<250 250 250 358 97 250> 516 20G<15 248 248 248 354 579 579 579>
VStem: 15 564<536 536>
LayerCount: 2
Fore
SplineSet
358 0 m 1xb0
 97 0 l 1
 15 536 l 1
 248 536 l 1
 250 157 l 1x70
 354 536 l 1
 579 536 l 1
 358 0 l 1xb0
EndSplineSet
Substitution2: "'smcp' Lowercase to Small Capitals lookup 24 subtable" v.sc
Substitution2: "'aalt' Access All Alternates lookup 0 subtable" v.sc
EndChar
StartChar: x
Encoding: 120 120 698
Width: 527
GlyphClass: 2
Flags: MW
HStem: 0 21G<-63 169 -63 -63 275 513 275 275> 516 20G<22 262 262 262 330 557 557 557>
VStem: -63 620<0 536>
AnchorPoint: "Anchor-14" 0 0 basechar 0
AnchorPoint: "Anchor-13" 0 0 basechar 0
AnchorPoint: "Anchor-12" 295 536 basechar 0
AnchorPoint: "Anchor-11" 0 0 basechar 0
AnchorPoint: "Anchor-10" 222 0 basechar 0
LayerCount: 2
Back
Fore
SplineSet
557 536 m 1
 398 284 l 1
 513 0 l 1
 275 0 l 1
 244 168 l 1
 169 0 l 1
 -63 0 l 1
 130 283 l 1
 22 536 l 1
 262 536 l 1
 278 387 l 1
 330 536 l 1
 557 536 l 1
EndSplineSet
Substitution2: "'smcp' Lowercase to Small Capitals lookup 28 subtable" x.sc
Substitution2: "'sups' Superscript lookup 15 subtable" uni02E3
AlternateSubs2: "'aalt' Access All Alternates lookup 1 subtable" uni02E3 x.sc
EndChar

StartChar: braceleft
Encoding: 123 123 1005
Width: 312
Flags: MW
HStem: -143 148<244 251> 695 148<341.5 367>
VStem: 15.57 207.43 39.62 205.49
LayerCount: 2
Fore
SplineSet
367 695 m 1xd0
 316 695 310 680 304 644 c 1
 286 509 l 2
 271 404 219 366 136 348 c 1xd0
 211 337 258 303 242 190 c 2
 223 55 l 2
 218 19 219 5 269 5 c 1
 251 -143 l 1xe0
 53 -143 3 -74 18 37 c 2
 36 174 l 2
 45 235 40 259 -11 259 c 1
 15 441 l 1
 64 441 78 466 86 527 c 2
 105 664 l 2
 121 777 168 843 388 843 c 1
 367 695 l 1xd0
EndSplineSet
Substitution2: "'case' Case-Sensitive Forms lookup 25 subtable" braceleft.case
Substitution2: "'aalt' Access All Alternates lookup 0 subtable" braceleft.case
EndChar
StartChar: bar
Encoding: 124 124 2376
Width: 337
GlyphClass: 2
Flags: MW
HStem: -108 921<142 218 14 347>
VStem: 14 333
LayerCount: 2
Back
Fore
SplineSet
347 813 m 1
 218 -108 l 1
 14 -108 l 1
 142 813 l 1
 347 813 l 1
EndSplineSet
EndChar
StartChar: braceright
Encoding: 125 125 2147
Width: 314
Flags: MW
HStem: -143 148<-31 -5.5 -31 58.5> 695 148<85 92>
VStem: 90.92 205.59 113 208.36
LayerCount: 2
Back
Fore
SplineSet
-51 -143 m 1xe0
 -31 5 l 1
 20 5 27 20 33 56 c 2
 51 191 l 2
 66 296 118 334 201 352 c 1xe0
 126 363 78 397 94 510 c 2
 113 645 l 2
 118 681 117 695 67 695 c 1
 85 843 l 1xd0
 283 843 334 774 319 663 c 2
 300 526 l 2
 291 465 297 441 347 441 c 1
 322 259 l 1
 272 259 258 234 250 173 c 2
 231 36 l 2
 215 -77 168 -143 -51 -143 c 1xe0
EndSplineSet
Substitution2: "'case' Case-Sensitive Forms lookup 29 subtable" braceright.case
Substitution2: "'aalt' Access All Alternates lookup 0 subtable" braceright.case
EndChar
StartChar: asciitilde
Encoding: 126 126 2247
Width: 526
GlyphClass: 2
Flags: MW
HStem: 214 162<342 386.5 342 387.5> 274 162<154.5 197>
VStem: -1 544<280 371>
LayerCount: 2
Back
Fore
SplineSet
342 214 m 0xa0
 240 214 223 274 171 274 c 0
 135 274 122 250 102 218 c 1
 -1 280 l 1
 48 362 109 436 200 436 c 0x60
 303 436 316 376 368 376 c 0
 405 376 418 401 439 433 c 1
 543 371 l 1
 494 289 433 214 342 214 c 0xa0
EndSplineSet
Substitution2: "'onum' Oldstyle Figures lookup 26 subtable" asciitilde.osf
Substitution2: "'tnum' Tabular Numbers lookup 25 subtable" asciitilde.tf
AlternateSubs2: "'aalt' Access All Alternates lookup 1 subtable" asciitilde.tf asciitilde.osf
EndChar
StartChar: exclamdown
Encoding: 161 161 2127
Width: 223
Flags: MW
HStem: -208 21G<-69 159 -69 -69> 302 221<112.5 154.5>
VStem: 23 220<224 455 392.5 434>
LayerCount: 2
Back
Fore
SplineSet
148 523 m 0
 202 523 243 484 243 426 c 0
 243 359 189 302 120 302 c 0
 63 302 23 342 23 402 c 0
 23 466 77 523 148 523 c 0
191 224 m 1
 159 -208 l 1
 -69 -208 l 1
 23 224 l 1
 191 224 l 1
EndSplineSet
Substitution2: "'case' Case-Sensitive Forms lookup 29 subtable" exclamdown.case
Substitution2: "'aalt' Access All Alternates lookup 0 subtable" exclamdown.case
EndChar
StartChar: cent
Encoding: 162 162 2204
Width: 468
GlyphClass: 2
Flags: MW
HStem: -19 21G<303 303> -8 21G<160 160> 679 20G<259 402 402 402>
VStem: 3 227<187 252 187 279.5> 3 512<164 480>
LayerCount: 2
Back
Fore
SplineSet
379 182 m 1x68
 457 44 l 1
 413 12 364 -11 303 -19 c 1xa8
 281 -167 l 1
 136 -167 l 1
 160 -8 l 1
 59 24 3 108 3 220 c 0
 3 339 69 502 237 546 c 1
 259 699 l 1
 402 699 l 1
 382 552 l 1
 435 542 480 517 515 480 c 1
 412 357 l 1
 385 382 357 392 330 392 c 0
 246 392 230 288 230 216 c 0
 230 158 257 148 291 148 c 0x70
 321 148 344 159 379 182 c 1x68
EndSplineSet
Substitution2: "'onum' Oldstyle Figures lookup 26 subtable" cent.osf
Substitution2: "'tnum' Tabular Numbers lookup 25 subtable" cent.tf
AlternateSubs2: "'aalt' Access All Alternates lookup 1 subtable" cent.tf cent.osf
EndChar
StartChar: sterling
Encoding: 163 163 2213
Width: 562
GlyphClass: 2
Flags: MW
HStem: 0 161.5 300 103<49 102 34 116 330 473> 540 160<378.5 411>
VStem: -23 619<0 584>
LayerCount: 2
Back
Fore
SplineSet
384 700 m 0
 488 700 555 660 596 584 c 1
 458 494 l 1
 442 533 424 540 398 540 c 0
 359 540 345 524 340 481 c 2
 330 403 l 1
 488 403 l 1
 473 300 l 1
 316 300 l 1
 312 276 l 2
 305 229 290 191 230 161 c 1
 518 162 l 1
 472 0 l 1
 -23 0 l 1
 -1 154 l 1
 84 174 91 214 96 261 c 2
 102 300 l 1
 34 300 l 1
 49 403 l 1
 116 403 l 1
 127 485 l 2
 145 616 228 700 384 700 c 0
EndSplineSet
Substitution2: "'onum' Oldstyle Figures lookup 26 subtable" sterling.osf
Substitution2: "'tnum' Tabular Numbers lookup 25 subtable" sterling.tf
AlternateSubs2: "'aalt' Access All Alternates lookup 1 subtable" sterling.tf sterling.osf
EndChar

StartChar: yen
Encoding: 165 165 1068
Width: 587
Flags: MW
HStem: 0 203<150 178 55 365 150 150> 100 103<55 164 40 178 393 504> 256 102<76 156 76 185 62 156 458 526>
VStem: 39 625<682 682>
LayerCount: 2
Fore
SplineSet
458 358 m 1xb0
 540 358 l 1
 526 256 l 1
 401 256 l 1
 393 203 l 1
 519 203 l 1xb0
 504 100 l 1
 379 100 l 1x70
 365 0 l 1
 150 0 l 1xb0
 164 100 l 1
 40 100 l 1x70
 55 203 l 1
 178 203 l 1
 185 256 l 1
 62 256 l 1
 76 358 l 1
 156 358 l 1
 39 682 l 1
 261 682 l 1
 314 414 l 1
 437 682 l 1
 664 682 l 1
 458 358 l 1xb0
EndSplineSet
Substitution2: "'onum' Oldstyle Figures lookup 22 subtable" yen.osf
Substitution2: "'tnum' Tabular Numbers lookup 21 subtable" yen.tf
AlternateSubs2: "'aalt' Access All Alternates lookup 1 subtable" yen.tf yen.osf
EndChar

StartChar: brokenbar
Encoding: 166 166 1219
Width: 337
Flags: MW
HStem: -108 921<142 218 14 347>
VStem: 14 333
LayerCount: 2
Fore
SplineSet
296 443 m 1
 90 443 l 1
 142 813 l 1
 347 813 l 1
 296 443 l 1
218 -108 m 1
 14 -108 l 1
 65 262 l 1
 271 262 l 1
 218 -108 l 1
EndSplineSet
EndChar
StartChar: dieresis
Encoding: 168 168 2522
Width: 513
Flags: MW
HStem: 628 201<180 214.5 429 463>
VStem: 94.51 453.62
LayerCount: 2
Back
Fore
SplineSet
209 829 m 0
 268 829 308 784 300 727 c 0
 292 672 245 628 184 628 c 0
 128 628 88 673 95 732 c 0
 103 785 151 829 209 829 c 0
458 829 m 0
 516 829 556 784 547 727 c 0
 539 672 493 628 433 628 c 0
 377 628 335 673 343 732 c 0
 350 785 400 829 458 829 c 0
EndSplineSet
Substitution2: "'case' Case-Sensitive Forms lookup 29 subtable" dieresis.case
Substitution2: "'smcp' Lowercase to Small Capitals lookup 28 subtable" dieresis.sc
Substitution2: "'c2sc' Capitals to Small Capitals lookup 27 subtable" dieresis.sc
AlternateSubs2: "'aalt' Access All Alternates lookup 1 subtable" dieresis.sc dieresis.case
EndChar
StartChar: copyright
Encoding: 169 169 2381
Width: 810
GlyphClass: 2
Flags: MW
HStem: 78 106<336.5 475 336.5 507> 227 112<406.5 435.5> 522 113<410.5 433 350.5 438.5> 554 20G<552 552> 678 106<336.5 475>
VStem: 43 122<360.5 499.5 360.5 529.5> 218 150<395.5 465.5 395.5 492> 646 121<360.5 499.5>
LayerCount: 2
Back
Fore
SplineSet
406 784 m 0x9f
 608 784 767 629 767 430 c 0
 767 232 608 78 406 78 c 0
 205 78 43 232 43 430 c 0
 43 629 205 784 406 784 c 0x9f
406 678 m 0
 267 678 165 569 165 430 c 0
 165 291 267 184 406 184 c 0
 544 184 646 291 646 430 c 0
 646 569 544 678 406 678 c 0
408 635 m 0xef
 458 635 515 612 552 574 c 1x9f
 492 500 l 1
 465 520 450 522 427 522 c 0
 394 522 368 500 368 431 c 0
 368 360 390 339 423 339 c 0
 452 339 476 347 501 367 c 1
 556 286 l 1
 516 248 462 227 409 227 c 0
 290 227 218 300 218 431 c 0
 218 553 293 635 408 635 c 0xef
EndSplineSet
EndChar

StartChar: ordfeminine
Encoding: 170 170 415
Width: 487
GlyphClass: 2
Flags: MW
HStem: 0 167<7 415 -14 437> 436 95<274 277> 566 132<235.5 355>
VStem: 43 194<400.5 420 400.5 420> 292 185<545.5 615>
LayerCount: 2
Fore
SplineSet
458 425 m 2
 455 408 452 391 475 384 c 1
 421 262 l 1
 366 265 329 280 301 316 c 1
 264 271 214 258 167 258 c 0
 89 258 43 314 43 380 c 0
 43 460 98 531 274 531 c 2
 290 531 l 1
 290 532 l 1
 291 537 292 543 292 548 c 0
 292 564 280 566 247 566 c 0
 224 566 181 558 137 545 c 1
 112 663 l 1
 169 685 242 698 289 698 c 0
 421 698 477 658 477 572 c 0
 477 562 476 544 474 530 c 2
 458 425 l 2
249 391 m 0
 258 391 267 395 272 395 c 1
 277 436 l 1
 254 436 237 435 237 405 c 0
 237 396 239 391 249 391 c 0
7 167 m 1
 437 167 l 1
 415 0 l 1
 -14 0 l 1
 7 167 l 1
EndSplineSet
EndChar
StartChar: guillemotleft
Encoding: 171 171 2177
Width: 666
Flags: MW
HStem: -13 21G<175 175 476 476> 557 20G<258 258 559 559>
VStem: 8 673<215 486>
LayerCount: 2
Back
Fore
SplineSet
559 577 m 1
 681 486 l 1
 533 282 l 1
 624 78 l 1
 476 -13 l 1
 309 215 l 1
 328 350 l 1
 559 577 l 1
258 577 m 1
 380 486 l 1
 232 282 l 1
 322 78 l 1
 175 -13 l 1
 8 215 l 1
 27 350 l 1
 258 577 l 1
EndSplineSet
Substitution2: "'case' Case-Sensitive Forms lookup 29 subtable" guillemotleft.case
Substitution2: "'aalt' Access All Alternates lookup 0 subtable" guillemotleft.case
EndChar
StartChar: logicalnot
Encoding: 172 172 2263
Width: 546
GlyphClass: 2
Flags: MW
HStem: 251 166<54 338 31 534>
VStem: 31 503<251 417>
LayerCount: 2
Back
Fore
SplineSet
534 417 m 1
 487 87 l 1
 314 87 l 1
 338 251 l 1
 31 251 l 1
 54 417 l 1
 534 417 l 1
EndSplineSet
Substitution2: "'onum' Oldstyle Figures lookup 26 subtable" logicalnot.osf
Substitution2: "'tnum' Tabular Numbers lookup 25 subtable" logicalnot.tf
AlternateSubs2: "'aalt' Access All Alternates lookup 1 subtable" logicalnot.tf logicalnot.osf
EndChar
StartChar: uni00AD
Encoding: 173 173 2169
Width: 398
Flags: MW
HStem: 230 166<21 390 44 367>
VStem: 21 369<230 396>
LayerCount: 2
Back
Fore
SplineSet
21 230 m 1
 44 396 l 1
 390 396 l 1
 367 230 l 1
 21 230 l 1
EndSplineSet
Substitution2: "'case' Case-Sensitive Forms lookup 29 subtable" uni00AD.case
Substitution2: "'aalt' Access All Alternates lookup 0 subtable" uni00AD.case
EndChar

StartChar: macron
Encoding: 175 175 1261
Width: 383
Flags: MW
HStem: 644 148<79 430 100 409>
VStem: 79 351<644 792>
LayerCount: 2
Fore
SplineSet
79 644 m 1
 100 792 l 1
 430 792 l 1
 409 644 l 1
 79 644 l 1
EndSplineSet
Substitution2: "'case' Case-Sensitive Forms lookup 25 subtable" macron.case
Substitution2: "'smcp' Lowercase to Small Capitals lookup 24 subtable" macron.sc
Substitution2: "'c2sc' Capitals to Small Capitals lookup 23 subtable" macron.sc
AlternateSubs2: "'aalt' Access All Alternates lookup 1 subtable" macron.sc macron.case
EndChar
StartChar: degree
Encoding: 176 176 2385
Width: 505
GlyphClass: 2
Flags: MW
HStem: 358 122<219.5 257.5 219.5 268.5> 601 118<239 276.5>
VStem: 59.17 378.44
LayerCount: 2
Back
Fore
SplineSet
224 358 m 0
 132 358 45 430 61 544 c 0
 75 653 182 719 272 719 c 0
 363 719 451 652 436 539 c 0
 420 429 313 358 224 358 c 0
238 480 m 0
 277 480 295 511 300 544 c 0
 304 572 295 601 258 601 c 0
 220 601 201 571 196 538 c 0
 192 510 201 480 238 480 c 0
EndSplineSet
Substitution2: "'onum' Oldstyle Figures lookup 26 subtable" degree.osf
Substitution2: "'tnum' Tabular Numbers lookup 25 subtable" degree.tf
AlternateSubs2: "'aalt' Access All Alternates lookup 1 subtable" degree.tf degree.osf
EndChar
StartChar: plusminus
Encoding: 177 177 2275
Width: 546
GlyphClass: 2
Flags: MW
HStem: 0 167<8 489 31 466> 370 167<70 201 47 224 397 527 70 373> 679 20G<245 419 419 419>
VStem: 8 542<0 537>
LayerCount: 2
Back
Fore
SplineSet
419 699 m 1
 397 537 l 1
 550 537 l 1
 527 370 l 1
 373 370 l 1
 350 207 l 1
 178 207 l 1
 201 370 l 1
 47 370 l 1
 70 537 l 1
 224 537 l 1
 245 699 l 1
 419 699 l 1
8 0 m 1
 31 167 l 1
 489 167 l 1
 466 0 l 1
 8 0 l 1
EndSplineSet
Substitution2: "'onum' Oldstyle Figures lookup 26 subtable" plusminus.osf
Substitution2: "'tnum' Tabular Numbers lookup 25 subtable" plusminus.tf
AlternateSubs2: "'aalt' Access All Alternates lookup 1 subtable" plusminus.tf plusminus.osf
EndChar
StartChar: uni00B2
Encoding: 178 178 2110
Width: 387
Flags: MW
HStem: 320 115.5 644 113<179.5 196.5>
VStem: 8 368.08
LayerCount: 2
Back
Fore
SplineSet
218 757 m 0
 339 757 385 685 375 619 c 0
 367 567 350 532 200 435 c 1
 357 436 l 1
 326 320 l 1
 8 320 l 1
 21 427 l 1
 174 545 211 575 215 610 c 0
 217 628 208 644 185 644 c 0
 159 644 140 632 115 604 c 1
 34 672 l 1
 76 720 141 757 218 757 c 0
EndSplineSet
EndChar

StartChar: threesuperior
Encoding: 179 179 973
Width: 387
Flags: MW
HStem: 305 114<142.5 167.5 142.5 218.5> 490 103<149 159 117 176> 524 20G 645 112<185.5 200>
VStem: -9 386.14 205 157
LayerCount: 2
Fore
SplineSet
221 757 m 0xd8
 332 757 385 708 377 643 c 1
 369 596 339 562 263 544 c 1xb4
 329 540 372 508 362 433 c 1
 352 370 283 305 154 305 c 0
 69 305 20 338 -9 380 c 1
 79 456 l 1
 103 428 129 419 156 419 c 0
 179 419 202 428 205 454 c 0
 208 476 196 490 159 490 c 2
 117 490 l 1
 149 593 l 1
 176 593 l 2
 210 593 219 601 223 618 c 1
 225 633 212 645 188 645 c 0xd4
 160 645 129 631 104 610 c 1
 39 693 l 1
 89 737 150 757 221 757 c 0xd8
EndSplineSet
EndChar

StartChar: acute
Encoding: 180 180 1252
Width: 365
Flags: MW
HStem: 607 261<132 342>
VStem: 90 311<709 718>
LayerCount: 2
Fore
SplineSet
401 709 m 1
 132 607 l 1
 90 718 l 1
 342 868 l 1
 401 709 l 1
EndSplineSet
Substitution2: "'case' Case-Sensitive Forms lookup 25 subtable" acute.case
Substitution2: "'smcp' Lowercase to Small Capitals lookup 24 subtable" acute.sc
Substitution2: "'c2sc' Capitals to Small Capitals lookup 23 subtable" acute.sc
Substitution2: "'locl' Localized Forms in Latin lookup 7 subtable" acute.loclPLK
AlternateSubs2: "'aalt' Access All Alternates lookup 1 subtable" acute.loclPLK acute.sc acute.case
EndChar

StartChar: paragraph
Encoding: 182 182 1222
Width: 826
Flags: MW
HStem: 551 147<517 586 517 517>
VStem: 66.9 727.1
LayerCount: 2
Fore
SplineSet
794 698 m 1
 666 -208 l 1
 477 -231 l 1
 586 551 l 1
 517 551 l 1
 410 -208 l 1
 221 -231 l 1
 287 245 l 1
 129 245 52 337 69 473 c 1
 90 609 199 706 386 697 c 1
 387 698 l 1
 794 698 l 1
EndSplineSet
EndChar

StartChar: periodcentered
Encoding: 183 183 982
Width: 239
Flags: MW
HStem: 194 222<104 141>
VStem: 12 220<285.5 325.5>
LayerCount: 2
Fore
SplineSet
137 416 m 0
 191 416 232 373 232 318 c 0
 232 253 173 194 109 194 c 0
 52 194 12 238 12 294 c 0
 12 357 71 416 137 416 c 0
EndSplineSet
EndChar
StartChar: cedilla
Encoding: 184 184 2520
Width: 361
Flags: MW
HStem: -283 112<65.5 90 65.5 158> -125 141<34 183>
VStem: 124 148
LayerCount: 2
Back
Fore
SplineSet
183 16 m 1
 173 -40 l 1
 237 -49 272 -83 272 -140 c 0
 272 -194 232 -283 84 -283 c 0
 29 -283 -14 -265 -42 -246 c 1
 16 -154 l 1
 36 -165 54 -171 77 -171 c 0
 103 -171 123 -166 124 -148 c 0
 125 -130 97 -125 34 -125 c 1
 70 16 l 1
 183 16 l 1
EndSplineSet
Substitution2: "'case' Case-Sensitive Forms lookup 29 subtable" cedilla.case
Substitution2: "'smcp' Lowercase to Small Capitals lookup 28 subtable" cedilla.sc
Substitution2: "'c2sc' Capitals to Small Capitals lookup 27 subtable" cedilla.sc
AlternateSubs2: "'aalt' Access All Alternates lookup 1 subtable" cedilla.sc cedilla.case
EndChar

StartChar: onesuperior
Encoding: 185 185 971
Width: 387
Flags: MW
HStem: 726 20G<204 344 344 344>
VStem: 28 316<650 746>
LayerCount: 2
Fore
SplineSet
285 320 m 1
 134 320 l 1
 174 604 l 1
 83 548 l 1
 28 650 l 1
 204 746 l 1
 344 746 l 1
 285 320 l 1
EndSplineSet
EndChar
StartChar: uni00B9
Encoding: 185 185 2109
Width: 387
Flags: MW
HStem: 726 20G<204 344 344 344>
VStem: 28 316<650 746>
LayerCount: 2
Back
Fore
SplineSet
344 746 m 1
 285 320 l 1
 134 320 l 1
 174 604 l 1
 83 548 l 1
 28 650 l 1
 204 746 l 1
 344 746 l 1
EndSplineSet
EndChar
StartChar: ordmasculine
Encoding: 186 186 1057
Width: 487
GlyphClass: 2
Flags: MW
HStem: 0 167<-24 457 -1 434> 258 134<250.5 285 250.5 349> 564 134<261 295>
VStem: 43 191<417.5 454.5 417.5 490.5> 313 191<501.5 539>
LayerCount: 2
Back
Fore
SplineSet
295 698 m 0
 418 698 504 637 504 517 c 0
 504 413 448 258 250 258 c 0
 128 258 43 318 43 436 c 0
 43 545 98 698 295 698 c 0
286 564 m 0
 236 564 234 476 234 433 c 0
 234 402 241 392 260 392 c 0
 310 392 313 479 313 524 c 0
 313 554 304 564 286 564 c 0
-24 0 m 1
 -1 167 l 1
 457 167 l 1
 434 0 l 1
 -24 0 l 1
EndSplineSet
EndChar
StartChar: guillemotright
Encoding: 187 187 2178
Width: 669
Flags: MW
HStem: -13 21G<112 112 417 417> 557 20G<195 195 499 499>
VStem: -12 678<78 350>
LayerCount: 2
Back
Fore
SplineSet
499 577 m 1
 666 350 l 1
 647 215 l 1
 417 -13 l 1
 292 78 l 1
 443 282 l 1
 350 486 l 1
 499 577 l 1
195 577 m 1
 362 350 l 1
 343 215 l 1
 112 -13 l 1
 -12 78 l 1
 139 282 l 1
 46 486 l 1
 195 577 l 1
EndSplineSet
Substitution2: "'case' Case-Sensitive Forms lookup 29 subtable" guillemotright.case
Substitution2: "'aalt' Access All Alternates lookup 0 subtable" guillemotright.case
EndChar

StartChar: onequarter
Encoding: 188 188 928
Width: 964
Flags: MW
HStem: 0 184<739 766 728 881 739 739> 73 111<728 749 906 931> 678 20G<197 337 337 337> 686 20G<808 808> 747 20G<695 695>
VStem: 21 926<184 602> 744 142
LayerCount: 2
Fore
SplineSet
808 706 m 1x9c
 290 -93 l 1
 176 -32 l 1
 695 767 l 1
 808 706 l 1x9c
127 272 m 1
 167 556 l 1
 76 500 l 1
 21 602 l 1
 197 698 l 1
 337 698 l 1x6c
 278 272 l 1
 127 272 l 1
931 73 m 1
 891 73 l 1x5a
 881 0 l 1
 739 0 l 1x9a
 749 73 l 1x5a
 556 73 l 1x5c
 570 175 l 1
 718 437 l 1
 840 390 l 1
 728 184 l 1
 766 184 l 1
 811 268 l 1
 918 268 l 1
 906 184 l 1
 947 184 l 1x9c
 931 73 l 1
EndSplineSet
EndChar

StartChar: onehalf
Encoding: 189 189 925
Width: 964
Flags: MW
HStem: 0 115.5 324 113<749.5 766.5> 678 20G<197 337 337 337> 686 20G<808 808> 747 20G<695 695>
VStem: 21 925.08
LayerCount: 2
Fore
SplineSet
808 706 m 1xdc
 290 -93 l 1
 176 -32 l 1
 695 767 l 1
 808 706 l 1xdc
278 272 m 1
 127 272 l 1
 167 556 l 1
 76 500 l 1
 21 602 l 1
 197 698 l 1
 337 698 l 1xec
 278 272 l 1
788 437 m 0
 909 437 955 365 945 299 c 0
 937 247 920 212 770 115 c 1
 927 116 l 1
 896 0 l 1
 578 0 l 1
 591 107 l 1
 744 225 781 255 785 290 c 0
 787 308 778 324 755 324 c 0
 729 324 710 312 685 284 c 1
 604 352 l 1
 646 400 711 437 788 437 c 0
EndSplineSet
EndChar

StartChar: threequarters
Encoding: 190 190 929
Width: 964
Flags: MW
HStem: 0 184<739 766 728 881 739 739> 73 111<728 749 906 931> 257 114<135.5 160.5 135.5 211.5> 442 54 442 103<142 152 110 169> 597 112<178.5 193> 686 20G<808 808> 747 20G<695 695>
VStem: -16 963<184 332> 744 142
LayerCount: 2
Fore
SplineSet
808 706 m 1xab80
 290 -93 l 1
 176 -32 l 1
 695 767 l 1
 808 706 l 1xab80
355 385 m 1
 345 322 276 257 147 257 c 0
 62 257 13 290 -16 332 c 1
 72 408 l 1
 96 380 122 371 149 371 c 0
 172 371 195 380 198 406 c 0
 201 428 189 442 152 442 c 2
 110 442 l 1
 142 545 l 1
 169 545 l 2xab80
 203 545 212 553 216 570 c 1
 218 585 205 597 181 597 c 0
 153 597 122 583 97 562 c 1
 32 645 l 1
 82 689 143 709 214 709 c 0
 325 709 378 660 370 595 c 1
 362 548 332 514 256 496 c 1xb580
 322 492 365 460 355 385 c 1
931 73 m 1x6b80
 891 73 l 1x6b40
 881 0 l 1
 739 0 l 1xab40
 749 73 l 1x6b40
 556 73 l 1x6b80
 570 175 l 1
 718 437 l 1
 840 390 l 1
 728 184 l 1
 766 184 l 1
 811 268 l 1
 918 268 l 1
 906 184 l 1
 947 184 l 1xab80
 931 73 l 1x6b80
EndSplineSet
EndChar
StartChar: questiondown
Encoding: 191 191 2131
Width: 488
Flags: MW
HStem: -229 171<205 229.5> 288 221<248.5 290.5>
VStem: -49 232<-43 -0.5 -43 24> 160 219<378 419> 164.5 195.5
LayerCount: 2
Back
Fore
SplineSet
255 288 m 0xd0
 201 288 160 327 160 386 c 0
 160 452 214 509 283 509 c 0
 340 509 379 469 379 410 c 0
 379 346 326 288 255 288 c 0xd0
170 -229 m 0xe0
 22 -229 -49 -161 -49 -75 c 0xe0
 -49 123 164 98 165 201 c 1
 164 216 l 1
 355 244 l 1
 358 228 360 213 360 196 c 0xc8
 360 32 183 35 183 -36 c 0
 183 -50 193 -58 217 -58 c 0
 248 -58 282 -39 319 -7 c 1
 437 -115 l 1
 373 -181 289 -229 170 -229 c 0xe0
EndSplineSet
Substitution2: "'case' Case-Sensitive Forms lookup 29 subtable" questiondown.case
Substitution2: "'aalt' Access All Alternates lookup 0 subtable" questiondown.case
EndChar

StartChar: Agrave
Encoding: 192 192 6
Width: 594
GlyphClass: 2
Flags: MW
HStem: 0 21G<-69 168 -69 -69 349 349 349 589> 126 160<252 340 252 345 205 340> 557 141<332 332> 678 20G<223 493 493 493>
VStem: -69 658<0 0>
AnchorPoint: "Anchor-11" 0 0 basechar 0
AnchorPoint: "Anchor-10" 48 536 basechar 0
AnchorPoint: "Anchor-9" 357 698 basechar 0
AnchorPoint: "Anchor-8" 488 0 basechar 0
LayerCount: 2
Fore
SplineSet
488 740 m 1xd8
 226 844 l 1
 306 1003 l 1
 546 851 l 1
 488 740 l 1xd8
345 126 m 1
 205 126 l 1
 168 0 l 1
 -69 0 l 1
 223 698 l 1
 493 698 l 1
 589 0 l 1
 349 0 l 1
 345 126 l 1
340 286 m 1
 332 557 l 1xe8
 252 286 l 1
 340 286 l 1
EndSplineSet
Substitution2: "'c2sc' Capitals to Small Capitals lookup 23 subtable" agrave.sc
Substitution2: "'aalt' Access All Alternates lookup 0 subtable" agrave.sc
Position2: "'cpsp' Capital Spacing lookup 0 subtable" dx=5 dy=0 dh=10 dv=0
EndChar
StartChar: Aacute
Encoding: 193 193 3
Width: 594
GlyphClass: 2
Flags: MW
HStem: 0 21G<-69 168 -69 -69 349 589 349 349> 126 160<252 340 252 345 205 340> 557 141<332 332> 678 20G<223 493 493 493>
VStem: -69 658<0 0>
AnchorPoint: "Anchor-14" 0 0 basechar 0
AnchorPoint: "Anchor-13" 0 0 basechar 0
AnchorPoint: "Anchor-12" 385 1002 basechar 0
AnchorPoint: "Anchor-11" 488 0 basechar 0
AnchorPoint: "Anchor-10" 258 0 basechar 0
LayerCount: 2
Back
Fore
SplineSet
542 843 m 1xd8
 285 739 l 1
 224 849 l 1
 458 1002 l 1
 542 843 l 1xd8
349 0 m 1
 345 126 l 1
 205 126 l 1
 168 0 l 1
 -69 0 l 1
 223 698 l 1
 493 698 l 1
 589 0 l 1
 349 0 l 1
252 286 m 1
 340 286 l 1
 332 557 l 1xe8
 252 286 l 1
EndSplineSet
Substitution2: "'c2sc' Capitals to Small Capitals lookup 27 subtable" aacute.sc
Substitution2: "'aalt' Access All Alternates lookup 0 subtable" aacute.sc
Position2: "'cpsp' Capital Spacing lookup 0 subtable" dx=5 dy=0 dh=10 dv=0
EndChar

StartChar: Acircumflex
Encoding: 194 194 4
Width: 594
GlyphClass: 2
Flags: MW
HStem: 0 21G<-69 168 -69 -69 349 589 349 349> 126 160<252 340 252 345 205 340> 557 141<332 332> 678 20G<223 493 493 493>
VStem: -69 658<0 0>
AnchorPoint: "Anchor-11" 0 0 basechar 0
AnchorPoint: "Anchor-10" 48 536 basechar 0
AnchorPoint: "Anchor-9" 357 698 basechar 0
AnchorPoint: "Anchor-8" 488 0 basechar 0
LayerCount: 2
Fore
SplineSet
236 750 m 1xd8
 172 835 l 1
 337 983 l 1
 466 983 l 1
 589 835 l 1
 509 750 l 1
 385 839 l 1
 236 750 l 1xd8
493 698 m 1
 589 0 l 1
 349 0 l 1
 345 126 l 1
 205 126 l 1
 168 0 l 1
 -69 0 l 1
 223 698 l 1
 493 698 l 1
340 286 m 1
 332 557 l 1xe8
 252 286 l 1
 340 286 l 1
EndSplineSet
Substitution2: "'c2sc' Capitals to Small Capitals lookup 23 subtable" acircumflex.sc
Substitution2: "'aalt' Access All Alternates lookup 0 subtable" acircumflex.sc
Position2: "'cpsp' Capital Spacing lookup 0 subtable" dx=5 dy=0 dh=10 dv=0
EndChar

StartChar: Atilde
Encoding: 195 195 10
Width: 594
GlyphClass: 2
Flags: MW
HStem: 0 21G<-69 168 -69 -69 349 349 349 589> 126 160<252 340 252 345 205 340> 557 141<332 332> 678 20G<223 493 493 493> 740 154<424 450 424 458> 782 154<305.5 332>
VStem: -69 658<0 0>
AnchorPoint: "Anchor-11" 0 0 basechar 0
AnchorPoint: "Anchor-10" 48 536 basechar 0
AnchorPoint: "Anchor-9" 357 698 basechar 0
AnchorPoint: "Anchor-8" 488 0 basechar 0
LayerCount: 2
Fore
SplineSet
318 782 m 0xd6
 293 782 279 767 259 739 c 1
 166 789 l 1
 202 868 262 936 330 936 c 0xd6
 387 936 410 894 438 894 c 0
 462 894 477 910 496 937 c 1
 588 887 l 1
 553 810 492 740 424 740 c 0xda
 380 740 346 782 318 782 c 0xd6
345 126 m 1
 205 126 l 1
 168 0 l 1
 -69 0 l 1
 223 698 l 1
 493 698 l 1
 589 0 l 1
 349 0 l 1
 345 126 l 1
340 286 m 1
 332 557 l 1xe6
 252 286 l 1
 340 286 l 1
EndSplineSet
Substitution2: "'c2sc' Capitals to Small Capitals lookup 23 subtable" atilde.sc
Substitution2: "'aalt' Access All Alternates lookup 0 subtable" atilde.sc
Position2: "'cpsp' Capital Spacing lookup 0 subtable" dx=5 dy=0 dh=10 dv=0
EndChar

StartChar: Adieresis
Encoding: 196 196 5
Width: 594
GlyphClass: 2
Flags: MW
HStem: 0 21G<-69 168 -69 -69 349 589 349 349> 126 160<252 340 252 345 205 340> 557 141<332 332> 678 20G<223 493 493 493> 754 201<240 270.5 488.5 519>
VStem: 153 204 400 205
AnchorPoint: "Anchor-11" 0 0 basechar 0
AnchorPoint: "Anchor-10" 48 536 basechar 0
AnchorPoint: "Anchor-9" 383 900 basechar 0
AnchorPoint: "Anchor-8" 488 0 basechar 0
LayerCount: 2
Fore
SplineSet
242 754 m 0xde
 186 754 146 799 153 858 c 1
 161 911 213 955 267 955 c 0
 326 955 366 910 357 853 c 1
 350 798 299 754 242 754 c 0xde
516 955 m 0
 574 955 613 910 605 853 c 0
 597 798 547 754 491 754 c 0
 435 754 393 799 400 858 c 1
 408 911 461 955 516 955 c 0
493 698 m 1
 589 0 l 1
 349 0 l 1
 345 126 l 1
 205 126 l 1
 168 0 l 1
 -69 0 l 1
 223 698 l 1
 493 698 l 1
340 286 m 1
 332 557 l 1xe4
 252 286 l 1
 340 286 l 1
EndSplineSet
Substitution2: "'c2sc' Capitals to Small Capitals lookup 23 subtable" adieresis.sc
Substitution2: "'aalt' Access All Alternates lookup 0 subtable" adieresis.sc
Position2: "'cpsp' Capital Spacing lookup 0 subtable" dx=5 dy=0 dh=10 dv=0
EndChar

StartChar: Aring
Encoding: 197 197 9
Width: 594
GlyphClass: 2
Flags: MW
HStem: 0 21G<-69 168 -69 -69 349 349 349 589> 126 160<252 340 252 345 205 340> 557 141<332 332> 678 20G<223 493 493 493> 712 111<363 383.5 363 410> 914 109<379 400>
VStem: 219.97 121.03
AnchorPoint: "Anchor-11" 0 0 basechar 0
AnchorPoint: "Anchor-10" 48 536 basechar 0
AnchorPoint: "Anchor-9" 357 698 basechar 0
AnchorPoint: "Anchor-8" 488 0 basechar 0
LayerCount: 2
Fore
SplineSet
360 712 m 0xde
 257 712 209 787 222 871 c 1
 232 951 301 1023 401 1023 c 0
 504 1023 552 950 540 866 c 1
 530 785 460 712 360 712 c 0xde
341 866 m 0
 336 836 353 823 373 823 c 0
 394 823 414 838 420 871 c 1
 424 901 410 914 390 914 c 0
 368 914 346 898 341 866 c 0
345 126 m 1
 205 126 l 1
 168 0 l 1
 -69 0 l 1
 223 698 l 1
 493 698 l 1xd6
 589 0 l 1
 349 0 l 1
 345 126 l 1
340 286 m 1
 332 557 l 1xe6
 252 286 l 1
 340 286 l 1
EndSplineSet
Substitution2: "'c2sc' Capitals to Small Capitals lookup 23 subtable" aring.sc
Substitution2: "'aalt' Access All Alternates lookup 0 subtable" aring.sc
Position2: "'cpsp' Capital Spacing lookup 0 subtable" dx=5 dy=0 dh=10 dv=0
EndChar

StartChar: AE
Encoding: 198 198 11
Width: 856
GlyphClass: 2
Flags: MW
HStem: 0 159<601 808> 126 160<299 398 232 400> 275 154<600 805 600 825> 539 159<599 828 599 599>
VStem: 397 203.5 402 197.5
AnchorPoint: "Anchor-11" 0 0 basechar 0
AnchorPoint: "Anchor-10" 0 0 basechar 0
AnchorPoint: "Anchor-9" 543 698 basechar 0
AnchorPoint: "Anchor-8" 0 0 basechar 0
LayerCount: 2
Fore
SplineSet
601 159 m 1xb4
 830 159 l 1
 808 0 l 1
 396 0 l 1xb8
 398 126 l 1
 232 126 l 1x58
 179 0 l 1
 -67 0 l 1
 281 698 l 1
 872 698 l 1
 828 539 l 1
 599 539 l 1
 600 429 l 1
 825 429 l 1
 805 275 l 1
 600 275 l 1
 601 159 l 1xb4
400 286 m 1x54
 404 535 l 1
 299 286 l 1
 400 286 l 1x54
EndSplineSet
Substitution2: "'c2sc' Capitals to Small Capitals lookup 23 subtable" ae.sc
Substitution2: "'aalt' Access All Alternates lookup 0 subtable" ae.sc
Position2: "'cpsp' Capital Spacing lookup 0 subtable" dx=5 dy=0 dh=10 dv=0
EndChar
StartChar: Ccedilla
Encoding: 199 199 45
Width: 575
GlyphClass: 2
Flags: MW
HStem: -283 112<239.5 264 239.5 332> -19 21G<351 351> -16 21G<236 236> 556 163<339.5 420>
VStem: 17 234<234.5 322.5 234.5 368.5> 298 148
AnchorPoint: "Anchor-14" 0 0 basechar 0
AnchorPoint: "Anchor-13" 0 0 basechar 0
AnchorPoint: "Anchor-12" 411 698 basechar 0
AnchorPoint: "Anchor-11" 0 0 basechar 0
AnchorPoint: "Anchor-10" 287 -283 basechar 0
LayerCount: 2
Back
Fore
SplineSet
553 79 m 1xbc
 502 33 430 -8 351 -19 c 1
 347 -40 l 1xdc
 411 -49 446 -83 446 -140 c 0
 446 -194 406 -283 258 -283 c 0
 203 -283 160 -265 132 -246 c 1
 190 -154 l 1
 210 -165 228 -171 251 -171 c 0
 277 -171 297 -166 298 -148 c 0
 299 -130 271 -125 208 -125 c 1
 236 -16 l 1
 97 9 17 107 17 270 c 0
 17 467 115 719 395 719 c 0
 495 719 571 686 621 625 c 1
 500 508 l 1
 473 537 443 556 397 556 c 0
 282 556 251 368 251 277 c 0
 251 192 282 150 343 150 c 0
 388 150 427 176 472 209 c 1
 553 79 l 1xbc
EndSplineSet
Substitution2: "'c2sc' Capitals to Small Capitals lookup 27 subtable" ccedilla.sc
Substitution2: "'aalt' Access All Alternates lookup 0 subtable" ccedilla.sc
Position2: "'cpsp' Capital Spacing lookup 0 subtable" dx=5 dy=0 dh=10 dv=0
EndChar
StartChar: Ecircumflex
Encoding: 202 202 70
Width: 507
GlyphClass: 2
Flags: MW
HStem: 0 159<243 454> 278 153<281 451 260 471> 539 159<296 513 296 296>
VStem: -5 564
AnchorPoint: "Anchor-14" 0 0 basechar 0
AnchorPoint: "Anchor-13" 441 872 basechar 0
AnchorPoint: "Anchor-12" 356 983 basechar 0
AnchorPoint: "Anchor-11" 424 0 basechar 0
AnchorPoint: "Anchor-10" 224 0 basechar 0
LayerCount: 2
Back
Fore
SplineSet
464 750 m 1
 340 839 l 1
 191 750 l 1
 127 835 l 1
 292 983 l 1
 421 983 l 1
 544 835 l 1
 464 750 l 1
559 698 m 1
 513 539 l 1
 296 539 l 1
 281 431 l 1
 471 431 l 1
 451 278 l 1
 260 278 l 1
 243 159 l 1
 476 159 l 1
 454 0 l 1
 -5 0 l 1
 92 698 l 1
 559 698 l 1
EndSplineSet
Substitution2: "'c2sc' Capitals to Small Capitals lookup 27 subtable" ecircumflex.sc
Substitution2: "'aalt' Access All Alternates lookup 0 subtable" ecircumflex.sc
Position2: "'cpsp' Capital Spacing lookup 0 subtable" dx=5 dy=0 dh=10 dv=0
EndChar
StartChar: Igrave
Encoding: 204 204 126
Width: 287
GlyphClass: 2
Flags: MW
HStem: 0 21G<-7 220 -7 -7> 678 20G<90 317 317 317>
VStem: -7 396
AnchorPoint: "Anchor-14" 0 0 basechar 0
AnchorPoint: "Anchor-13" 0 0 basechar 0
AnchorPoint: "Anchor-12" 231 1003 basechar 0
AnchorPoint: "Anchor-11" 180 0 basechar 0
AnchorPoint: "Anchor-10" 107 0 basechar 0
LayerCount: 2
Back
Fore
SplineSet
149 1003 m 1
 389 851 l 1
 331 740 l 1
 69 844 l 1
 149 1003 l 1
317 698 m 1
 220 0 l 1
 -7 0 l 1
 90 698 l 1
 317 698 l 1
EndSplineSet
Substitution2: "'c2sc' Capitals to Small Capitals lookup 27 subtable" igrave.sc
Substitution2: "'aalt' Access All Alternates lookup 0 subtable" igrave.sc
Position2: "'cpsp' Capital Spacing lookup 0 subtable" dx=5 dy=0 dh=10 dv=0
EndChar
StartChar: Iacute
Encoding: 205 205 117
Width: 287
GlyphClass: 2
Flags: MW
HStem: 0 21G<-7 220 -7 -7> 678 20G<90 317 317 317>
VStem: -7 395
AnchorPoint: "Anchor-14" 0 0 basechar 0
AnchorPoint: "Anchor-13" 0 0 basechar 0
AnchorPoint: "Anchor-12" 231 1002 basechar 0
AnchorPoint: "Anchor-11" 180 0 basechar 0
AnchorPoint: "Anchor-10" 107 0 basechar 0
LayerCount: 2
Back
Fore
SplineSet
304 1002 m 1
 388 843 l 1
 131 739 l 1
 70 849 l 1
 304 1002 l 1
317 698 m 1
 220 0 l 1
 -7 0 l 1
 90 698 l 1
 317 698 l 1
EndSplineSet
Substitution2: "'c2sc' Capitals to Small Capitals lookup 27 subtable" iacute.sc
Substitution2: "'aalt' Access All Alternates lookup 0 subtable" iacute.sc
Position2: "'cpsp' Capital Spacing lookup 0 subtable" dx=5 dy=0 dh=10 dv=0
EndChar
StartChar: Icircumflex
Encoding: 206 206 120
Width: 287
GlyphClass: 2
Flags: MW
HStem: 0 21G<-7 220 -7 -7> 678 20G<90 317 317 317>
VStem: -7 430
AnchorPoint: "Anchor-14" 0 0 basechar 0
AnchorPoint: "Anchor-13" 320 872 basechar 0
AnchorPoint: "Anchor-12" 235 983 basechar 0
AnchorPoint: "Anchor-11" 180 0 basechar 0
AnchorPoint: "Anchor-10" 107 0 basechar 0
LayerCount: 2
Back
Fore
SplineSet
343 750 m 1
 219 839 l 1
 70 750 l 1
 6 835 l 1
 171 983 l 1
 300 983 l 1
 423 835 l 1
 343 750 l 1
317 698 m 1
 220 0 l 1
 -7 0 l 1
 90 698 l 1
 317 698 l 1
EndSplineSet
Substitution2: "'c2sc' Capitals to Small Capitals lookup 27 subtable" icircumflex.sc
Substitution2: "'aalt' Access All Alternates lookup 0 subtable" icircumflex.sc
Position2: "'cpsp' Capital Spacing lookup 0 subtable" dx=5 dy=0 dh=10 dv=0
EndChar
StartChar: Idieresis
Encoding: 207 207 122
Width: 287
GlyphClass: 2
Flags: MW
HStem: 0 21G<-7 220 -7 -7> 678 20G<90 317 317 317> 754 201<78 112.5 327 361>
VStem: -7.49001 453.62
AnchorPoint: "Anchor-14" 0 0 basechar 0
AnchorPoint: "Anchor-13" 0 0 basechar 0
AnchorPoint: "Anchor-12" 233 955 basechar 0
AnchorPoint: "Anchor-11" 180 0 basechar 0
AnchorPoint: "Anchor-10" 107 0 basechar 0
LayerCount: 2
Back
Fore
SplineSet
107 955 m 0
 166 955 206 910 198 853 c 0
 190 798 143 754 82 754 c 0
 26 754 -14 799 -7 858 c 0
 1 911 49 955 107 955 c 0
356 955 m 0
 414 955 454 910 445 853 c 0
 437 798 391 754 331 754 c 0
 275 754 233 799 241 858 c 0
 248 911 298 955 356 955 c 0
317 698 m 1
 220 0 l 1
 -7 0 l 1
 90 698 l 1
 317 698 l 1
EndSplineSet
Substitution2: "'c2sc' Capitals to Small Capitals lookup 27 subtable" idieresis.sc
Substitution2: "'aalt' Access All Alternates lookup 0 subtable" idieresis.sc
Position2: "'cpsp' Capital Spacing lookup 0 subtable" dx=5 dy=0 dh=10 dv=0
EndChar

StartChar: Eth
Encoding: 208 208 21
Width: 655
GlyphClass: 2
Flags: MW
HStem: 0 161<2 281> 290 126<28 42 11 60 287 385> 537 161<304 333 333 339 304 304>
VStem: 427 233<377.5 469.5>
AnchorPoint: "Anchor-11" 0 0 basechar 0
AnchorPoint: "Anchor-10" 0 0 basechar 0
AnchorPoint: "Anchor-9" 352 698 basechar 0
AnchorPoint: "Anchor-8" 0 0 basechar 0
LayerCount: 2
Fore
SplineSet
333 698 m 2
 505 698 660 645 660 433 c 0
 660 202 568 0 248 0 c 2
 2 0 l 1
 42 290 l 1
 11 290 l 1
 28 416 l 1
 60 416 l 1
 99 698 l 1
 333 698 l 2
281 161 m 2
 409 161 427 325 427 430 c 0
 427 509 403 537 339 537 c 2
 304 537 l 1
 287 416 l 1
 403 416 l 1
 385 290 l 1
 269 290 l 1
 251 161 l 1
 281 161 l 2
EndSplineSet
Substitution2: "'c2sc' Capitals to Small Capitals lookup 23 subtable" eth.sc
Substitution2: "'aalt' Access All Alternates lookup 0 subtable" eth.sc
Position2: "'cpsp' Capital Spacing lookup 0 subtable" dx=5 dy=0 dh=10 dv=0
EndChar
StartChar: Ntilde
Encoding: 209 209 169
Width: 630
GlyphClass: 2
Flags: MW
HStem: 0 21G<-7 189 -7 -7 279 563 279 279> 678 20G<90 369 369 369 464 660 660 660> 740 154<440 466 440 474> 782 154<321.5 348>
VStem: -7 667
AnchorPoint: "Anchor-14" 0 0 basechar 0
AnchorPoint: "Anchor-13" 0 0 basechar 0
AnchorPoint: "Anchor-12" 396 937 basechar 0
AnchorPoint: "Anchor-11" 0 0 basechar 0
AnchorPoint: "Anchor-10" 278 0 basechar 0
LayerCount: 2
Back
Fore
SplineSet
440 740 m 0xe8
 396 740 362 782 334 782 c 0
 309 782 295 767 275 739 c 1
 182 789 l 1
 218 868 278 936 346 936 c 0xd8
 403 936 426 894 454 894 c 0
 478 894 493 910 512 937 c 1
 604 887 l 1
 569 810 508 740 440 740 c 0xe8
660 698 m 1xd8
 563 0 l 1
 279 0 l 1
 220 509 l 1
 226 421 234 322 215 181 c 2
 189 0 l 1
 -7 0 l 1
 90 698 l 1
 369 698 l 1
 433 189 l 1
 425 290 419 374 440 522 c 2
 464 698 l 1
 660 698 l 1xd8
EndSplineSet
Substitution2: "'c2sc' Capitals to Small Capitals lookup 27 subtable" ntilde.sc
Substitution2: "'aalt' Access All Alternates lookup 0 subtable" ntilde.sc
Position2: "'cpsp' Capital Spacing lookup 0 subtable" dx=5 dy=0 dh=10 dv=0
EndChar
StartChar: Oacute
Encoding: 211 211 172
Width: 676
GlyphClass: 2
Flags: MW
HStem: -22 162<293.5 376 293.5 448.5> 558 161<323 405>
VStem: 17 233<209.5 292.5 209.5 365.5> 449 233<405 490>
AnchorPoint: "Anchor-14" 0 0 basechar 0
AnchorPoint: "Anchor-13" 653 698 basechar 0
AnchorPoint: "Anchor-12" 424 1002 basechar 0
AnchorPoint: "Anchor-11" 0 0 basechar 0
AnchorPoint: "Anchor-10" 303 0 basechar 0
LayerCount: 2
Back
Fore
SplineSet
497 1002 m 1
 581 843 l 1
 324 739 l 1
 263 849 l 1
 497 1002 l 1
400 719 m 0
 586 719 682 610 682 431 c 0
 682 241 598 -22 299 -22 c 0
 113 -22 17 90 17 269 c 0
 17 462 104 719 400 719 c 0
381 558 m 0
 265 558 250 336 250 249 c 0
 250 170 269 140 318 140 c 0
 434 140 449 359 449 451 c 0
 449 529 429 558 381 558 c 0
EndSplineSet
Substitution2: "'c2sc' Capitals to Small Capitals lookup 27 subtable" oacute.sc
Substitution2: "'locl' Localized Forms in Latin lookup 7 subtable" Oacute.loclPLK
AlternateSubs2: "'aalt' Access All Alternates lookup 1 subtable" Oacute.loclPLK oacute.sc
Position2: "'cpsp' Capital Spacing lookup 0 subtable" dx=5 dy=0 dh=10 dv=0
EndChar

StartChar: Ocircumflex
Encoding: 212 212 74
Width: 676
GlyphClass: 2
Flags: MW
HStem: -22 162<293.5 376 293.5 448.5> 558 161<323 405>
VStem: 17 233<207 290 207 365.5> 449 233<407 492>
AnchorPoint: "Anchor-11" 0 0 basechar 0
AnchorPoint: "Anchor-10" -34 534 basechar 0
AnchorPoint: "Anchor-9" 397 698 basechar 0
AnchorPoint: "Anchor-8" 0 0 basechar 0
LayerCount: 2
Fore
SplineSet
425 839 m 1
 276 750 l 1
 212 835 l 1
 377 983 l 1
 506 983 l 1
 629 835 l 1
 549 750 l 1
 425 839 l 1
400 719 m 0
 586 719 682 610 682 431 c 0
 682 241 598 -22 299 -22 c 0
 113 -22 17 90 17 269 c 0
 17 462 104 719 400 719 c 0
381 558 m 0
 265 558 250 336 250 244 c 0
 250 170 269 140 318 140 c 0
 434 140 449 359 449 455 c 0
 449 529 429 558 381 558 c 0
EndSplineSet
Substitution2: "'c2sc' Capitals to Small Capitals lookup 23 subtable" ocircumflex.sc
Substitution2: "'aalt' Access All Alternates lookup 0 subtable" ocircumflex.sc
Position2: "'cpsp' Capital Spacing lookup 0 subtable" dx=5 dy=0 dh=10 dv=0
EndChar

StartChar: Otilde
Encoding: 213 213 81
Width: 676
GlyphClass: 2
Flags: MW
HStem: -22 162<293.5 376 293.5 448.5> 558 161<323 405> 740 154<464 490 464 498> 782 154<345.5 372>
VStem: 17 233<207 290 207 365.5> 449 233<407 492>
AnchorPoint: "Anchor-11" 0 0 basechar 0
AnchorPoint: "Anchor-10" -34 534 basechar 0
AnchorPoint: "Anchor-9" 397 698 basechar 0
AnchorPoint: "Anchor-8" 0 0 basechar 0
LayerCount: 2
Fore
SplineSet
464 740 m 0xec
 420 740 386 782 358 782 c 0
 333 782 319 767 299 739 c 1
 206 789 l 1
 242 868 302 936 370 936 c 0xdc
 427 936 450 894 478 894 c 0
 502 894 517 910 536 937 c 1
 628 887 l 1
 593 810 532 740 464 740 c 0xec
400 719 m 0xcc
 586 719 682 610 682 431 c 0
 682 241 598 -22 299 -22 c 0
 113 -22 17 90 17 269 c 0
 17 462 104 719 400 719 c 0xcc
381 558 m 0
 265 558 250 336 250 244 c 0
 250 170 269 140 318 140 c 0
 434 140 449 359 449 455 c 0
 449 529 429 558 381 558 c 0
EndSplineSet
Substitution2: "'c2sc' Capitals to Small Capitals lookup 23 subtable" otilde.sc
Substitution2: "'aalt' Access All Alternates lookup 0 subtable" otilde.sc
Position2: "'cpsp' Capital Spacing lookup 0 subtable" dx=5 dy=0 dh=10 dv=0
EndChar
StartChar: Odieresis
Encoding: 214 214 183
Width: 676
GlyphClass: 2
Flags: MW
HStem: -22 162<293.5 376 293.5 448.5> 558 161<323 405> 754 201<271 305.5 520 554>
VStem: 17 233<209.5 292.5 209.5 365.5> 449 233<405 490>
AnchorPoint: "Anchor-14" 0 0 basechar 0
AnchorPoint: "Anchor-13" 653 698 basechar 0
AnchorPoint: "Anchor-12" 426 955 basechar 0
AnchorPoint: "Anchor-11" 0 0 basechar 0
AnchorPoint: "Anchor-10" 303 0 basechar 0
LayerCount: 2
Back
Fore
SplineSet
300 955 m 0
 359 955 399 910 391 853 c 0
 383 798 336 754 275 754 c 0
 219 754 179 799 186 858 c 0
 194 911 242 955 300 955 c 0
549 955 m 0
 607 955 647 910 638 853 c 0
 630 798 584 754 524 754 c 0
 468 754 426 799 434 858 c 0
 441 911 491 955 549 955 c 0
400 719 m 0
 586 719 682 610 682 431 c 0
 682 241 598 -22 299 -22 c 0
 113 -22 17 90 17 269 c 0
 17 462 104 719 400 719 c 0
381 558 m 0
 265 558 250 336 250 249 c 0
 250 170 269 140 318 140 c 0
 434 140 449 359 449 451 c 0
 449 529 429 558 381 558 c 0
EndSplineSet
Substitution2: "'c2sc' Capitals to Small Capitals lookup 27 subtable" odieresis.sc
Substitution2: "'aalt' Access All Alternates lookup 0 subtable" odieresis.sc
Position2: "'cpsp' Capital Spacing lookup 0 subtable" dx=5 dy=0 dh=10 dv=0
EndChar

StartChar: multiply
Encoding: 215 215 1110
Width: 523
Flags: MW
HStem: 77 457<127 189 189 345>
VStem: 27 479<195 417>
LayerCount: 2
Fore
SplineSet
506 417 m 1
 378 306 l 1
 475 195 l 1
 345 77 l 1
 252 192 l 1
 127 77 l 1
 27 195 l 1
 155 306 l 1
 58 417 l 1
 189 534 l 1
 282 419 l 1
 407 534 l 1
 506 417 l 1
EndSplineSet
Substitution2: "'onum' Oldstyle Figures lookup 22 subtable" multiply.osf
Substitution2: "'tnum' Tabular Numbers lookup 21 subtable" multiply.tf
AlternateSubs2: "'aalt' Access All Alternates lookup 1 subtable" multiply.tf multiply.osf
EndChar

StartChar: Oslash
Encoding: 216 216 79
Width: 676
GlyphClass: 2
Flags: MW
HStem: -22 162<314 318 318 376 314 448.5> 558 161<323 381 381 388>
VStem: 17 227<225 244 225 365.5> 454 228<455 466 466 466>
AnchorPoint: "Anchor-11" 0 0 basechar 0
AnchorPoint: "Anchor-10" 160 698 basechar 0
AnchorPoint: "Anchor-9" 407 749 basechar 0
AnchorPoint: "Anchor-8" 0 0 basechar 0
LayerCount: 2
Fore
SplineSet
585 665 m 1
 649 616 682 536 682 431 c 0
 682 241 598 -22 299 -22 c 0
 288 -22 277 -22 266 -21 c 1
 213 -142 l 1
 55 -97 l 1
 114 33 l 1
 50 83 17 164 17 269 c 0
 17 462 104 719 400 719 c 0
 411 719 421 719 431 718 c 1
 486 836 l 1
 643 792 l 1
 585 665 l 1
381 558 m 2
 265 558 244 336 244 244 c 2
 244 225 l 1
 388 558 l 1
 381 558 l 2
318 140 m 2
 434 140 454 359 454 455 c 2
 454 466 l 1
 314 140 l 1
 318 140 l 2
EndSplineSet
Substitution2: "'c2sc' Capitals to Small Capitals lookup 23 subtable" oslash.sc
Substitution2: "'aalt' Access All Alternates lookup 0 subtable" oslash.sc
Position2: "'cpsp' Capital Spacing lookup 0 subtable" dx=5 dy=0 dh=10 dv=0
EndChar
StartChar: Ucircumflex
Encoding: 219 219 258
Width: 627
GlyphClass: 2
Flags: MW
HStem: -22 164<269 319 269 375> 678 20G<80 307 307 307 440 666 666 666>
VStem: 13.51 226.2
AnchorPoint: "Anchor-14" 0 0 basechar 0
AnchorPoint: "Anchor-13" 489 872 basechar 0
AnchorPoint: "Anchor-12" 404 983 basechar 0
AnchorPoint: "Anchor-11" 420 0 basechar 0
AnchorPoint: "Anchor-10" 276 0 basechar 0
LayerCount: 2
Back
Fore
SplineSet
512 750 m 1
 388 839 l 1
 239 750 l 1
 175 835 l 1
 340 983 l 1
 469 983 l 1
 592 835 l 1
 512 750 l 1
666 698 m 1
 603 239 l 2
 583 96 475 -22 275 -22 c 0
 74 -22 -5 85 17 240 c 2
 80 698 l 1
 307 698 l 1
 243 245 l 2
 233 174 244 142 294 142 c 0
 344 142 366 176 376 246 c 2
 440 698 l 1
 666 698 l 1
EndSplineSet
Substitution2: "'c2sc' Capitals to Small Capitals lookup 27 subtable" ucircumflex.sc
Substitution2: "'aalt' Access All Alternates lookup 0 subtable" ucircumflex.sc
Position2: "'cpsp' Capital Spacing lookup 0 subtable" dx=5 dy=0 dh=10 dv=0
EndChar

StartChar: Udieresis
Encoding: 220 220 105
Width: 626
GlyphClass: 2
Flags: MW
HStem: -22 164<269 319 269 375> 678 20G<80 307 307 307 440 666 666 666> 754 201<256 286.5 504.5 535>
VStem: 13.51 226.2 169 204 416 205
AnchorPoint: "Anchor-11" 0 0 basechar 0
AnchorPoint: "Anchor-10" 0 0 basechar 0
AnchorPoint: "Anchor-9" 399 900 basechar 0
AnchorPoint: "Anchor-8" 420 0 basechar 0
LayerCount: 2
Fore
SplineSet
283 955 m 0xec
 342 955 382 910 373 853 c 1
 366 798 315 754 258 754 c 0
 202 754 162 799 169 858 c 1
 177 911 229 955 283 955 c 0xec
532 955 m 0
 590 955 629 910 621 853 c 0
 613 798 563 754 507 754 c 0
 451 754 409 799 416 858 c 1
 424 911 477 955 532 955 c 0
603 239 m 2
 583 96 475 -22 275 -22 c 0
 74 -22 -5 85 17 240 c 2
 80 698 l 1
 307 698 l 1
 243 245 l 2
 233 174 244 142 294 142 c 0xf0
 344 142 366 176 376 246 c 2
 440 698 l 1
 666 698 l 1
 603 239 l 2
EndSplineSet
Substitution2: "'c2sc' Capitals to Small Capitals lookup 23 subtable" udieresis.sc
Substitution2: "'aalt' Access All Alternates lookup 0 subtable" udieresis.sc
Position2: "'cpsp' Capital Spacing lookup 0 subtable" dx=5 dy=0 dh=10 dv=0
EndChar

StartChar: Yacute
Encoding: 221 221 120
Width: 622
GlyphClass: 2
Flags: MW
HStem: 0 21G<161 387 161 161> 678 20G<40 284 284 284 460 702 702 702>
VStem: 40 662<698 698>
AnchorPoint: "Anchor-11" 0 0 basechar 0
AnchorPoint: "Anchor-10" -118 534 basechar 0
AnchorPoint: "Anchor-9" 371 698 basechar 0
AnchorPoint: "Anchor-8" 0 0 basechar 0
LayerCount: 2
Fore
SplineSet
552 843 m 1
 295 739 l 1
 234 849 l 1
 468 1002 l 1
 552 843 l 1
423 255 m 1
 387 0 l 1
 161 0 l 1
 197 254 l 1
 40 698 l 1
 284 698 l 1
 335 426 l 1
 460 698 l 1
 702 698 l 1
 423 255 l 1
EndSplineSet
Substitution2: "'c2sc' Capitals to Small Capitals lookup 23 subtable" yacute.sc
Substitution2: "'aalt' Access All Alternates lookup 0 subtable" yacute.sc
Position2: "'cpsp' Capital Spacing lookup 0 subtable" dx=5 dy=0 dh=10 dv=0
EndChar
StartChar: Thorn
Encoding: 222 222 215
Width: 606
GlyphClass: 2
Flags: MW
HStem: 0 21G<-7 220 -7 -7> 101 161<256 293 293 296 234 293> 439 159<303 313 281 337> 678 20G<90 317 317 317>
VStem: 379 233<360.5 395.5>
LayerCount: 2
Back
Fore
SplineSet
337 598 m 2
 508 598 612 530 612 386 c 0
 612 272 544 101 296 101 c 2
 234 101 l 1
 220 0 l 1
 -7 0 l 1
 90 698 l 1
 317 698 l 1
 303 598 l 1
 337 598 l 2
293 262 m 2
 365 262 379 342 379 379 c 0
 379 412 363 439 313 439 c 2
 281 439 l 1
 256 262 l 1
 293 262 l 2
EndSplineSet
Substitution2: "'c2sc' Capitals to Small Capitals lookup 27 subtable" thorn.sc
Substitution2: "'aalt' Access All Alternates lookup 0 subtable" thorn.sc
Position2: "'cpsp' Capital Spacing lookup 0 subtable" dx=5 dy=0 dh=10 dv=0
EndChar

StartChar: germandbls
Encoding: 223 223 233
Width: 603
GlyphClass: 2
Flags: MW
HStem: -230 21G<-74 -74> -22 167<329 349.5 329 440> 618 149<321.5 346.5>
VStem: 265 191<394 431.5> 361 208<557.5 597.5> 369 226<178.5 218>
LayerCount: 2
Fore
SplineSet
456 424 m 0xf0
 456 364 595 347 595 197 c 0
 595 99 530 -22 350 -22 c 0
 304 -22 257 -9 224 8 c 1
 306 152 l 1
 317 146 326 145 332 145 c 0
 367 145 369 174 369 183 c 0xe4
 369 253 265 261 265 367 c 0xf0
 265 496 361 505 361 590 c 0
 361 605 355 618 338 618 c 0
 305 618 291 588 284 536 c 2
 222 87 l 2
 195 -110 65 -189 -74 -230 c 1
 -126 -73 l 1
 -55 -50 -10 -17 -2 47 c 1
 66 529 l 2
 86 675 188 767 361 767 c 0
 501 767 569 699 569 609 c 0xe8
 569 506 456 490 456 424 c 0xf0
EndSplineSet
Substitution2: "'smcp' Lowercase to Small Capitals lookup 24 subtable" germandbls.sc
Substitution2: "'aalt' Access All Alternates lookup 0 subtable" germandbls.sc
EndChar
StartChar: aacute
Encoding: 225 225 336
Width: 575
GlyphClass: 2
Flags: MW
HStem: -22 158<121 265.5> -17 21G<490 490> 407 150<283 325.5>
VStem: 2 222<169.5 244.5 169.5 279>
AnchorPoint: "Anchor-14" 0 0 basechar 0
AnchorPoint: "Anchor-13" 0 0 basechar 0
AnchorPoint: "Anchor-12" 379 868 basechar 0
AnchorPoint: "Anchor-11" 498 -17 basechar 0
AnchorPoint: "Anchor-10" 277 0 basechar 0
LayerCount: 2
Back
Fore
SplineSet
473 868 m 1x70
 532 709 l 1
 263 607 l 1
 221 718 l 1
 473 868 l 1x70
330 557 m 0
 407 557 502 537 577 490 c 1
 533 184 l 2
 532 175 531 166 531 159 c 0
 531 140 537 130 553 123 c 1
 490 -17 l 1x70
 426 -14 362 14 338 71 c 1
 306 18 258 -22 181 -22 c 0xb0
 61 -22 2 63 2 199 c 0
 2 359 87 557 330 557 c 0
320 407 m 0
 246 407 224 289 224 200 c 0
 224 139 242 136 256 136 c 0
 275 136 299 150 319 187 c 1xb0
 351 404 l 1
 339 406 331 407 320 407 c 0
EndSplineSet
Substitution2: "'smcp' Lowercase to Small Capitals lookup 28 subtable" aacute.sc
Substitution2: "'aalt' Access All Alternates lookup 0 subtable" aacute.sc
EndChar

StartChar: acircumflex
Encoding: 226 226 137
Width: 574
GlyphClass: 2
Flags: MW
HStem: -22 21G<120 218.5> -22 158<120 264.5> -17 21G<489 489> 407 150<281 324>
VStem: 1 222<169.5 244.5 169.5 279>
AnchorPoint: "Anchor-11" 0 0 basechar 0
AnchorPoint: "Anchor-10" 0 0 basechar 0
AnchorPoint: "Anchor-9" 349 536 basechar 0
AnchorPoint: "Anchor-8" 497 -17 basechar 0
LayerCount: 2
Fore
SplineSet
163 691 m 1x38
 329 851 l 1
 458 851 l 1
 579 691 l 1
 497 607 l 1
 376 706 l 1
 226 607 l 1
 163 691 l 1x38
329 557 m 0
 406 557 501 537 575 490 c 1
 532 184 l 2
 531 175 530 166 530 159 c 0
 530 140 536 130 552 123 c 1
 489 -17 l 1x38
 425 -14 361 14 337 71 c 1
 305 18 257 -22 180 -22 c 0x98
 60 -22 1 63 1 199 c 0
 1 359 86 557 329 557 c 0
318 407 m 0
 244 407 223 289 223 200 c 0
 223 139 241 136 255 136 c 0
 274 136 298 150 318 187 c 1x58
 350 404 l 1
 338 406 330 407 318 407 c 0
EndSplineSet
Substitution2: "'smcp' Lowercase to Small Capitals lookup 24 subtable" acircumflex.sc
Substitution2: "'aalt' Access All Alternates lookup 0 subtable" acircumflex.sc
EndChar
StartChar: atilde
Encoding: 227 227 366
Width: 575
GlyphClass: 2
Flags: MW
HStem: -22 158<121 265.5> -17 21G<490 490> 407 150<283 325.5> 614 154<421 447 421 455> 656 154<302.5 329> 741 20G<585 585>
VStem: 2 222<169.5 244.5 169.5 279>
AnchorPoint: "Anchor-14" 0 0 basechar 0
AnchorPoint: "Anchor-13" 0 0 basechar 0
AnchorPoint: "Anchor-12" 377 811 basechar 0
AnchorPoint: "Anchor-11" 498 -17 basechar 0
AnchorPoint: "Anchor-10" 277 0 basechar 0
LayerCount: 2
Back
Fore
SplineSet
421 614 m 0x72
 377 614 343 656 315 656 c 0
 290 656 276 641 256 613 c 1
 163 663 l 1
 199 742 259 810 327 810 c 0x6a
 384 810 407 768 435 768 c 0
 459 768 474 784 493 811 c 1x72
 585 761 l 1x66
 550 684 489 614 421 614 c 0x72
330 557 m 0xa6
 407 557 502 537 577 490 c 1
 533 184 l 2
 532 175 531 166 531 159 c 0
 531 140 537 130 553 123 c 1
 490 -17 l 1x66
 426 -14 362 14 338 71 c 1
 306 18 258 -22 181 -22 c 0
 61 -22 2 63 2 199 c 0
 2 359 87 557 330 557 c 0xa6
320 407 m 0
 246 407 224 289 224 200 c 0
 224 139 242 136 256 136 c 0
 275 136 299 150 319 187 c 1
 351 404 l 1
 339 406 331 407 320 407 c 0
EndSplineSet
Substitution2: "'smcp' Lowercase to Small Capitals lookup 28 subtable" atilde.sc
Substitution2: "'aalt' Access All Alternates lookup 0 subtable" atilde.sc
EndChar

StartChar: aring
Encoding: 229 229 142
Width: 574
GlyphClass: 2
Flags: MW
HStem: -22 21G<120 218.5> -22 158<120 264.5> -17 21G<489 489> 407 150<281 324> 586 111<361 381.5 361 408> 788 109<377 398>
VStem: 1 222<169.5 244.5 169.5 279> 217.97 121.03
AnchorPoint: "Anchor-11" 0 0 basechar 0
AnchorPoint: "Anchor-10" 0 0 basechar 0
AnchorPoint: "Anchor-9" 349 536 basechar 0
AnchorPoint: "Anchor-8" 497 -17 basechar 0
LayerCount: 2
Fore
SplineSet
399 897 m 0x36
 502 897 550 824 538 740 c 1
 528 659 458 586 358 586 c 0x3d
 255 586 207 661 220 745 c 1
 230 825 299 897 399 897 c 0x36
388 788 m 0x3d
 366 788 344 772 339 740 c 0
 334 710 351 697 371 697 c 0
 392 697 412 712 418 745 c 1
 422 775 408 788 388 788 c 0x3d
329 557 m 0x96
 406 557 501 537 575 490 c 1
 532 184 l 2
 531 175 530 166 530 159 c 0
 530 140 536 130 552 123 c 1
 489 -17 l 1x36
 425 -14 361 14 337 71 c 1
 305 18 257 -22 180 -22 c 0
 60 -22 1 63 1 199 c 0
 1 359 86 557 329 557 c 0x96
318 407 m 0
 244 407 223 289 223 200 c 0
 223 139 241 136 255 136 c 0
 274 136 298 150 318 187 c 1x56
 350 404 l 1
 338 406 330 407 318 407 c 0
EndSplineSet
Substitution2: "'smcp' Lowercase to Small Capitals lookup 24 subtable" aring.sc
Substitution2: "'aalt' Access All Alternates lookup 0 subtable" aring.sc
EndChar
StartChar: ae
Encoding: 230 230 368
Width: 851
GlyphClass: 2
Flags: MW
HStem: -22 154<576.5 612.5> 217 118<266 324 286 307> 400 157<269 274.5> 421 136<601 621>
VStem: -9 869<82.5 445.5> 644 216<386 398>
AnchorPoint: "Anchor-14" 0 0 basechar 0
AnchorPoint: "Anchor-13" 0 0 basechar 0
AnchorPoint: "Anchor-12" 461 536 basechar 0
AnchorPoint: "Anchor-11" 0 0 basechar 0
AnchorPoint: "Anchor-10" 356 0 basechar 0
LayerCount: 2
Back
Fore
SplineSet
298 557 m 0xd8
 375 557 419 534 455 496 c 1
 496 534 567 557 635 557 c 0
 780 557 860 491 860 400 c 0xd4
 860 251 671 202 523 189 c 1
 528 138 558 132 595 132 c 0
 638 132 674 150 725 181 c 1
 798 57 l 1
 739 13 660 -22 565 -22 c 0
 464 -22 395 9 356 61 c 1
 295 -1 231 -22 161 -22 c 0
 60 -22 -9 38 -9 127 c 0
 -9 225 45 335 286 335 c 2
 324 335 l 1
 328 346 334 356 339 367 c 1
 333 393 299 400 250 400 c 0
 227 400 171 394 116 375 c 1xe8
 86 514 l 1
 159 543 240 557 298 557 c 0xd8
607 421 m 0xd4
 566 421 542 368 531 309 c 1
 645 314 644 386 644 386 c 1
 644 410 635 421 607 421 c 0xd4
307 217 m 1
 286 217 l 2
 246 217 219 197 219 166 c 0
 219 150 226 133 251 133 c 0
 272 133 289 150 311 164 c 1
 308 180 307 186 307 217 c 1
EndSplineSet
Substitution2: "'smcp' Lowercase to Small Capitals lookup 28 subtable" ae.sc
Substitution2: "'aalt' Access All Alternates lookup 0 subtable" ae.sc
EndChar

StartChar: ccedilla
Encoding: 231 231 150
Width: 466
GlyphClass: 2
Flags: MW
HStem: -283 112<179.5 204.5 179.5 270.5> -20 21G<289 289> -13 21G<176 176> 392 165<287 342.5>
VStem: 2 227<187 252 187 289> 237 149
AnchorPoint: "Anchor-11" 232 0 basechar 0
AnchorPoint: "Anchor-10" 0 0 basechar 0
AnchorPoint: "Anchor-9" 322 536 basechar 0
AnchorPoint: "Anchor-8" 0 0 basechar 0
LayerCount: 2
Fore
SplineSet
456 44 m 1xd8
 409 10 356 -14 289 -20 c 1
 286 -40 l 1
 350 -49 386 -83 386 -141 c 0
 386 -195 344 -283 197 -283 c 0
 142 -283 99 -265 72 -246 c 1
 130 -154 l 1
 150 -165 168 -171 191 -171 c 0
 218 -171 236 -166 237 -148 c 0
 238 -130 210 -125 148 -125 c 1xdc
 176 -13 l 1xb8
 65 14 2 101 2 220 c 0
 2 358 92 557 328 557 c 0
 404 557 468 528 514 480 c 1
 411 357 l 1
 384 382 356 392 329 392 c 0
 245 392 229 288 229 216 c 0
 229 158 255 148 289 148 c 0
 319 148 342 159 378 182 c 1
 456 44 l 1xd8
EndSplineSet
Substitution2: "'smcp' Lowercase to Small Capitals lookup 24 subtable" ccedilla.sc
Substitution2: "'aalt' Access All Alternates lookup 0 subtable" ccedilla.sc
EndChar

StartChar: ecircumflex
Encoding: 234 234 161
Width: 546
GlyphClass: 2
Flags: MW
HStem: -22 154<274 310> 190 120 421 136<283.5 318.5>
VStem: 3 216 341 216<385.5 398>
AnchorPoint: "Anchor-11" 250 0 basechar 0
AnchorPoint: "Anchor-10" 0 0 basechar 0
AnchorPoint: "Anchor-9" 316 536 basechar 0
AnchorPoint: "Anchor-8" 424 12 basechar 0
LayerCount: 2
Fore
SplineSet
194 607 m 1
 131 691 l 1
 297 851 l 1
 426 851 l 1
 547 691 l 1
 465 607 l 1
 344 706 l 1
 194 607 l 1
557 400 m 0
 557 252 369 203 219 190 c 1
 225 145 255 132 293 132 c 0
 336 132 372 150 423 181 c 1
 496 57 l 1
 437 13 357 -22 263 -22 c 0
 82 -22 3 76 3 213 c 0
 3 358 87 557 333 557 c 0
 478 557 557 491 557 400 c 0
228 310 m 1
 342 314 341 385 341 386 c 0
 341 410 332 421 305 421 c 0
 262 421 239 368 228 310 c 1
EndSplineSet
Substitution2: "'smcp' Lowercase to Small Capitals lookup 24 subtable" ecircumflex.sc
Substitution2: "'aalt' Access All Alternates lookup 0 subtable" ecircumflex.sc
EndChar

StartChar: edieresis
Encoding: 235 235 162
Width: 546
GlyphClass: 2
Flags: MW
HStem: -22 154<274 310> 190 120 421 136<283.5 318.5> 628 201<199 229.5 447.5 478>
VStem: 3 216 112 204 341 216<385.5 398> 359 205
AnchorPoint: "Anchor-11" 250 0 basechar 0
AnchorPoint: "Anchor-10" 0 0 basechar 0
AnchorPoint: "Anchor-9" 342 774 basechar 0
AnchorPoint: "Anchor-8" 424 12 basechar 0
LayerCount: 2
Fore
SplineSet
201 628 m 0xf5
 145 628 105 673 112 732 c 1
 120 785 172 829 226 829 c 0
 285 829 325 784 316 727 c 1
 309 672 258 628 201 628 c 0xf5
475 829 m 0
 533 829 572 784 564 727 c 0
 556 672 506 628 450 628 c 0
 394 628 352 673 359 732 c 1
 367 785 420 829 475 829 c 0
333 557 m 0xfa
 478 557 557 491 557 400 c 0
 557 252 369 203 219 190 c 1
 225 145 255 132 293 132 c 0
 336 132 372 150 423 181 c 1
 496 57 l 1
 437 13 357 -22 263 -22 c 0
 82 -22 3 76 3 213 c 0
 3 358 87 557 333 557 c 0xfa
228 310 m 1
 342 314 341 385 341 386 c 0
 341 410 332 421 305 421 c 0
 262 421 239 368 228 310 c 1
EndSplineSet
Substitution2: "'smcp' Lowercase to Small Capitals lookup 24 subtable" edieresis.sc
Substitution2: "'aalt' Access All Alternates lookup 0 subtable" edieresis.sc
EndChar
StartChar: igrave
Encoding: 236 236 488
Width: 275
GlyphClass: 2
Flags: MW
HStem: 0 21G<-8 209 -8 -8> 516 20G<66 283 283 283> 689 20G<57 57>
VStem: -8 377
AnchorPoint: "Anchor-14" 0 0 basechar 0
AnchorPoint: "Anchor-13" 0 0 basechar 0
AnchorPoint: "Anchor-12" 215 868 basechar 0
AnchorPoint: "Anchor-11" 179 0 basechar 0
AnchorPoint: "Anchor-10" 101 0 basechar 0
LayerCount: 2
Back
Fore
SplineSet
150 876 m 1
 369 721 l 1
 305 611 l 1
 57 709 l 1
 150 876 l 1
283 536 m 1
 209 0 l 1
 -8 0 l 1
 66 536 l 1
 283 536 l 1
EndSplineSet
Substitution2: "'smcp' Lowercase to Small Capitals lookup 28 subtable" igrave.sc
Substitution2: "'aalt' Access All Alternates lookup 0 subtable" igrave.sc
EndChar
StartChar: iacute
Encoding: 237 237 479
Width: 275
GlyphClass: 2
Flags: MW
HStem: 0 21G<-8 209 -8 -8> 516 20G<66 283 283 283>
VStem: -8 366
AnchorPoint: "Anchor-14" 0 0 basechar 0
AnchorPoint: "Anchor-13" 0 0 basechar 0
AnchorPoint: "Anchor-12" 205 868 basechar 0
AnchorPoint: "Anchor-11" 179 0 basechar 0
AnchorPoint: "Anchor-10" 101 0 basechar 0
LayerCount: 2
Back
Fore
SplineSet
299 868 m 1
 358 709 l 1
 89 607 l 1
 47 718 l 1
 299 868 l 1
283 536 m 1
 209 0 l 1
 -8 0 l 1
 66 536 l 1
 283 536 l 1
EndSplineSet
Substitution2: "'smcp' Lowercase to Small Capitals lookup 28 subtable" iacute.sc
Substitution2: "'aalt' Access All Alternates lookup 0 subtable" iacute.sc
EndChar

StartChar: icircumflex
Encoding: 238 238 180
Width: 275
GlyphClass: 2
Flags: MW
HStem: 0 21G<-8 209 -8 -8> 516 20G<66 283 283 283>
VStem: -11 416<691 691>
AnchorPoint: "Anchor-11" 0 0 basechar 0
AnchorPoint: "Anchor-10" 0 0 basechar 0
AnchorPoint: "Anchor-9" 175 536 basechar 0
AnchorPoint: "Anchor-8" 171 0 basechar 0
LayerCount: 2
Fore
SplineSet
-11 691 m 1
 155 851 l 1
 284 851 l 1
 405 691 l 1
 323 607 l 1
 202 706 l 1
 52 607 l 1
 -11 691 l 1
209 0 m 1
 -8 0 l 1
 66 536 l 1
 283 536 l 1
 209 0 l 1
EndSplineSet
Substitution2: "'smcp' Lowercase to Small Capitals lookup 24 subtable" icircumflex.sc
Substitution2: "'aalt' Access All Alternates lookup 0 subtable" icircumflex.sc
EndChar

StartChar: idieresis
Encoding: 239 239 181
Width: 275
GlyphClass: 2
Flags: MW
HStem: 0 21G<-8 209 -8 -8> 516 20G<66 283 283 283> 628 201<57 87.5 305.5 336>
VStem: -30 204 217 205
AnchorPoint: "Anchor-11" 0 0 basechar 0
AnchorPoint: "Anchor-10" 0 0 basechar 0
AnchorPoint: "Anchor-9" 200 774 basechar 0
AnchorPoint: "Anchor-8" 171 0 basechar 0
LayerCount: 2
Fore
SplineSet
84 829 m 0
 143 829 183 784 174 727 c 1
 167 672 116 628 59 628 c 0
 3 628 -37 673 -30 732 c 1
 -22 785 30 829 84 829 c 0
333 829 m 0
 391 829 430 784 422 727 c 0
 414 672 364 628 308 628 c 0
 252 628 210 673 217 732 c 1
 225 785 278 829 333 829 c 0
209 0 m 1
 -8 0 l 1
 66 536 l 1
 283 536 l 1
 209 0 l 1
EndSplineSet
Substitution2: "'smcp' Lowercase to Small Capitals lookup 24 subtable" idieresis.sc
Substitution2: "'aalt' Access All Alternates lookup 0 subtable" idieresis.sc
EndChar

StartChar: eth
Encoding: 240 240 154
Width: 573
GlyphClass: 2
Flags: MW
HStem: -22 157<252.5 291 252.5 340.5> 336 148<266.5 271.5 165 306.5> 557 20G<122 122> 746 20G<160 160>
VStem: -1 221<169.5 217 169.5 265.5> 349 222
LayerCount: 2
Fore
SplineSet
420 675 m 1
 528 592 571 492 571 372 c 0
 571 343 569 315 564 286 c 1
 543 127 434 -22 247 -22 c 0
 104 -22 -1 57 -1 199 c 0
 -1 332 83 484 247 484 c 0
 296 484 328 471 361 451 c 1
 347 493 330 524 291 558 c 1
 246 517 l 1
 122 577 l 1
 166 619 l 1
 140 624 116 628 101 630 c 1
 160 766 l 1
 200 761 237 755 294 737 c 1
 381 819 l 1
 475 725 l 1
 420 675 l 1
267 135 m 0
 315 135 327 179 338 249 c 1
 343 274 346 300 349 326 c 1
 334 332 316 336 297 336 c 0
 236 336 220 242 220 192 c 0
 220 147 238 135 267 135 c 0
EndSplineSet
Substitution2: "'smcp' Lowercase to Small Capitals lookup 24 subtable" eth.sc
Substitution2: "'aalt' Access All Alternates lookup 0 subtable" eth.sc
EndChar

StartChar: ntilde
Encoding: 241 241 207
Width: 555
GlyphClass: 2
Flags: MW
HStem: 0 21G<-8 209 -8 -8 277 494 277 277> 377 159<66 326.5> 516 20G<66 256 256 256> 537 20G<403 474.5> 614 154<392 418 392 426> 656 154<273.5 300> 741 20G<556 556>
VStem: 331.57 220.9
AnchorPoint: "Anchor-11" 241 0 basechar 0
AnchorPoint: "Anchor-10" 58 536 basechar 0
AnchorPoint: "Anchor-9" 320 536 basechar 0
AnchorPoint: "Anchor-8" 0 0 basechar 0
LayerCount: 2
Fore
SplineSet
392 614 m 0x99
 348 614 314 656 286 656 c 0
 261 656 247 641 227 613 c 1
 134 663 l 1
 170 742 230 810 298 810 c 0x95
 355 810 378 768 406 768 c 0
 430 768 445 784 464 811 c 1x99
 556 761 l 1x93
 521 684 460 614 392 614 c 0x99
431 557 m 0x93
 518 557 564 500 550 397 c 2
 494 0 l 1
 277 0 l 1
 329 335 l 2
 335 369 330 377 323 377 c 0xc3
 308 377 282 344 249 269 c 1
 209 0 l 1
 -8 0 l 1
 66 536 l 1
 256 536 l 1xa3
 259 451 l 1
 299 515 375 557 431 557 c 0x93
EndSplineSet
Substitution2: "'smcp' Lowercase to Small Capitals lookup 24 subtable" ntilde.sc
Substitution2: "'aalt' Access All Alternates lookup 0 subtable" ntilde.sc
EndChar
StartChar: oacute
Encoding: 243 243 552
Width: 571
GlyphClass: 2
Flags: MW
HStem: -22 158<250 301 250 365.5> 400 157<267 318.5>
VStem: 4 221<177.5 233 177.5 295> 344 221
AnchorPoint: "Anchor-14" 0 0 basechar 0
AnchorPoint: "Anchor-13" 550 536 basechar 0
AnchorPoint: "Anchor-12" 342 868 basechar 0
AnchorPoint: "Anchor-11" 0 0 basechar 0
AnchorPoint: "Anchor-10" 252 0 basechar 0
LayerCount: 2
Back
Fore
SplineSet
436 868 m 1
 495 709 l 1
 226 607 l 1
 184 718 l 1
 436 868 l 1
323 557 m 0
 474 557 566 467 565 323 c 0
 564 158 486 -22 245 -22 c 0
 95 -22 4 65 4 212 c 0
 4 378 82 557 323 557 c 0
304 400 m 0
 230 400 225 264 225 202 c 0
 225 153 236 136 264 136 c 0
 338 136 343 272 344 333 c 0
 345 383 333 400 304 400 c 0
EndSplineSet
Substitution2: "'smcp' Lowercase to Small Capitals lookup 28 subtable" oacute.sc
Substitution2: "'locl' Localized Forms in Latin lookup 7 subtable" oacute.loclPLK
AlternateSubs2: "'aalt' Access All Alternates lookup 1 subtable" oacute.loclPLK oacute.sc
EndChar

StartChar: otilde
Encoding: 245 245 218
Width: 571
GlyphClass: 2
Flags: MW
HStem: -22 158<250 301 250 365.5> 400 157<267 318.5> 614 154<383 409 383 417> 656 154<264.5 291> 741 20G<547 547>
VStem: 4 221<177.5 233 177.5 295> 344 221
AnchorPoint: "Anchor-11" 0 0 basechar 0
AnchorPoint: "Anchor-10" 0 0 basechar 0
AnchorPoint: "Anchor-9" 311 536 basechar 0
AnchorPoint: "Anchor-8" 0 0 basechar 0
LayerCount: 2
Fore
SplineSet
383 614 m 0xe6
 339 614 305 656 277 656 c 0
 252 656 238 641 218 613 c 1
 125 663 l 1
 161 742 221 810 289 810 c 0xd6
 346 810 369 768 397 768 c 0
 421 768 436 784 455 811 c 1xe6
 547 761 l 1xce
 512 684 451 614 383 614 c 0xe6
323 557 m 0xce
 474 557 566 467 565 323 c 0
 564 158 486 -22 245 -22 c 0
 95 -22 4 65 4 212 c 0
 4 378 82 557 323 557 c 0xce
304 400 m 0
 230 400 225 264 225 202 c 0
 225 153 236 136 264 136 c 0
 338 136 343 272 344 333 c 0
 345 383 333 400 304 400 c 0
EndSplineSet
Substitution2: "'smcp' Lowercase to Small Capitals lookup 24 subtable" otilde.sc
Substitution2: "'aalt' Access All Alternates lookup 0 subtable" otilde.sc
EndChar
StartChar: odieresis
Encoding: 246 246 563
Width: 571
GlyphClass: 2
Flags: MW
HStem: -22 158<250 301 250 365.5> 400 157<267 318.5> 628 201<197 231.5 446 480>
VStem: 4 221<177.5 233 177.5 295> 344 221
AnchorPoint: "Anchor-14" 0 0 basechar 0
AnchorPoint: "Anchor-13" 550 536 basechar 0
AnchorPoint: "Anchor-12" 340 829 basechar 0
AnchorPoint: "Anchor-11" 0 0 basechar 0
AnchorPoint: "Anchor-10" 252 0 basechar 0
LayerCount: 2
Back
Fore
SplineSet
226 829 m 0
 285 829 325 784 316 727 c 0
 309 672 262 628 201 628 c 0
 145 628 105 673 112 732 c 0
 120 785 168 829 226 829 c 0
475 829 m 0
 533 829 572 784 564 727 c 0
 556 672 510 628 450 628 c 0
 394 628 352 673 359 732 c 0
 367 785 417 829 475 829 c 0
323 557 m 0
 474 557 566 467 565 323 c 0
 564 158 486 -22 245 -22 c 0
 95 -22 4 65 4 212 c 0
 4 378 82 557 323 557 c 0
304 400 m 0
 230 400 225 264 225 202 c 0
 225 153 236 136 264 136 c 0
 338 136 343 272 344 333 c 0
 345 383 333 400 304 400 c 0
EndSplineSet
Substitution2: "'smcp' Lowercase to Small Capitals lookup 28 subtable" odieresis.sc
Substitution2: "'aalt' Access All Alternates lookup 0 subtable" odieresis.sc
EndChar

StartChar: divide
Encoding: 247 247 1091
Width: 523
Flags: MW
HStem: 249 166<54 489 31 512> 475 221<276.5 313>
VStem: 115 219<58.5 98.5> 185 219<566 606>
LayerCount: 2
Fore
SplineSet
309 696 m 0xd0
 363 696 404 653 404 599 c 0
 404 533 345 475 281 475 c 0
 224 475 185 519 185 575 c 0
 185 637 244 696 309 696 c 0xd0
54 415 m 1
 512 415 l 1
 489 249 l 1
 31 249 l 1
 54 415 l 1
239 189 m 0xa0
 293 189 334 146 334 91 c 0
 334 26 275 -32 211 -32 c 0
 154 -32 115 11 115 67 c 0
 115 130 173 189 239 189 c 0xa0
EndSplineSet
Substitution2: "'onum' Oldstyle Figures lookup 22 subtable" divide.osf
Substitution2: "'tnum' Tabular Numbers lookup 21 subtable" divide.tf
AlternateSubs2: "'aalt' Access All Alternates lookup 1 subtable" divide.tf divide.osf
EndChar
StartChar: oslash
Encoding: 248 248 586
Width: 571
GlyphClass: 2
Flags: MW
HStem: -22 158<228 272 228 272> 400 157<300 341>
VStem: 4 194<179 179 179 208 179 295> 370 195<322 322>
AnchorPoint: "Anchor-14" 0 0 basechar 0
AnchorPoint: "Anchor-13" 0 0 basechar 0
AnchorPoint: "Anchor-12" 324 536 basechar 0
AnchorPoint: "Anchor-11" 0 0 basechar 0
AnchorPoint: "Anchor-10" 249 0 basechar 0
LayerCount: 2
Back
Fore
SplineSet
482 506 m 1
 536 464 566 398 565 323 c 0
 564 158 486 -22 245 -22 c 2
 228 -22 l 1
 178 -140 l 1
 33 -95 l 1
 88 28 l 1
 35 70 4 136 4 212 c 0
 4 378 82 557 323 557 c 0
 328 557 335 558 341 557 c 1
 395 677 l 1
 542 632 l 1
 482 506 l 1
198 179 m 1
 300 400 l 1
 218 396 198 262 198 208 c 2
 198 179 l 1
370 322 m 2
 370 349 l 1
 272 136 l 1
 349 140 370 274 370 322 c 2
EndSplineSet
Substitution2: "'smcp' Lowercase to Small Capitals lookup 28 subtable" oslash.sc
Substitution2: "'aalt' Access All Alternates lookup 0 subtable" oslash.sc
EndChar

StartChar: ugrave
Encoding: 249 249 244
Width: 549
GlyphClass: 2
Flags: MW
HStem: -22 21G<78.5 162.5> 0 21G<293 483 293 293> 0 156<242 483 242 293> 516 20G<61 278 278 278 340 557 557 557> 689 20G<188 188> 696 20G<499 499>
VStem: 3.99001 228 3.99001 553.01
AnchorPoint: "Anchor-11" 0 0 basechar 0
AnchorPoint: "Anchor-10" 0 0 basechar 0
AnchorPoint: "Anchor-9" 309 536 basechar 0
AnchorPoint: "Anchor-8" 491 0 basechar 0
LayerCount: 2
Fore
SplineSet
499 716 m 1x55
 428 607 l 1
 188 709 l 1x59
 290 868 l 1
 499 716 l 1x55
483 0 m 1
 293 0 l 1x55
 294 61 l 1
 251 11 194 -22 131 -22 c 0x96
 26 -22 -7 49 7 151 c 2
 61 536 l 1
 278 536 l 1
 232 196 l 2
 227 161 237 156 247 156 c 0
 257 156 275 172 293 205 c 1x36
 340 536 l 1
 557 536 l 1
 483 0 l 1
EndSplineSet
Substitution2: "'smcp' Lowercase to Small Capitals lookup 24 subtable" ugrave.sc
Substitution2: "'aalt' Access All Alternates lookup 0 subtable" ugrave.sc
EndChar

StartChar: uacute
Encoding: 250 250 240
Width: 549
GlyphClass: 2
Flags: MW
HStem: -22 21G<78.5 162.5> 0 21G<293 483 293 293> 0 156<242 483 242 293> 516 20G<61 278 278 278 340 557 557 557>
VStem: 3.99001 228 3.99001 553.01
AnchorPoint: "Anchor-11" 0 0 basechar 0
AnchorPoint: "Anchor-10" 0 0 basechar 0
AnchorPoint: "Anchor-9" 309 536 basechar 0
AnchorPoint: "Anchor-8" 491 0 basechar 0
LayerCount: 2
Fore
SplineSet
480 709 m 1x54
 211 607 l 1
 169 718 l 1
 421 868 l 1
 480 709 l 1x54
483 0 m 1
 293 0 l 1x54
 294 61 l 1
 251 11 194 -22 131 -22 c 0x98
 26 -22 -7 49 7 151 c 2
 61 536 l 1
 278 536 l 1
 232 196 l 2
 227 161 237 156 247 156 c 0
 257 156 275 172 293 205 c 1x38
 340 536 l 1
 557 536 l 1
 483 0 l 1
EndSplineSet
Substitution2: "'smcp' Lowercase to Small Capitals lookup 24 subtable" uacute.sc
Substitution2: "'aalt' Access All Alternates lookup 0 subtable" uacute.sc
EndChar
StartChar: ucircumflex
Encoding: 251 251 662
Width: 549
GlyphClass: 2
Flags: MW
HStem: 0 21G<293 483 293 293> 0 156<242 483 242 293> 516 20G<61 278 278 278 340 557 557 557>
VStem: 3.99001 553.01
AnchorPoint: "Anchor-14" 0 0 basechar 0
AnchorPoint: "Anchor-13" 567 536 basechar 0
AnchorPoint: "Anchor-12" 350 851 basechar 0
AnchorPoint: "Anchor-11" 491 0 basechar 0
AnchorPoint: "Anchor-10" 251 0 basechar 0
LayerCount: 2
Back
Fore
SplineSet
183 607 m 1xb0
 120 691 l 1
 286 851 l 1
 415 851 l 1
 536 691 l 1
 454 607 l 1
 333 706 l 1
 183 607 l 1xb0
557 536 m 1
 483 0 l 1
 293 0 l 1
 294 61 l 1
 251 11 194 -22 131 -22 c 0
 26 -22 -7 49 7 151 c 2
 61 536 l 1
 278 536 l 1
 232 196 l 2
 227 161 237 156 247 156 c 0
 257 156 275 172 293 205 c 1x70
 340 536 l 1
 557 536 l 1
EndSplineSet
Substitution2: "'smcp' Lowercase to Small Capitals lookup 28 subtable" ucircumflex.sc
Substitution2: "'aalt' Access All Alternates lookup 0 subtable" ucircumflex.sc
EndChar
StartChar: udieresis
Encoding: 252 252 664
Width: 549
GlyphClass: 2
Flags: MW
HStem: 0 21G<293 483 293 293> 0 156<242 483 242 293> 516 20G<61 278 278 278 340 557 557 557> 628 201<195 229.5 444 478>
VStem: 3.99001 558.85
AnchorPoint: "Anchor-14" 0 0 basechar 0
AnchorPoint: "Anchor-13" 567 536 basechar 0
AnchorPoint: "Anchor-12" 338 829 basechar 0
AnchorPoint: "Anchor-11" 491 0 basechar 0
AnchorPoint: "Anchor-10" 251 0 basechar 0
LayerCount: 2
Back
Fore
SplineSet
224 829 m 0xb8
 283 829 323 784 314 727 c 0
 307 672 260 628 199 628 c 0
 143 628 103 673 110 732 c 0
 118 785 166 829 224 829 c 0xb8
473 829 m 0
 531 829 570 784 562 727 c 0
 554 672 508 628 448 628 c 0
 392 628 350 673 357 732 c 0
 365 785 415 829 473 829 c 0
557 536 m 1
 483 0 l 1
 293 0 l 1
 294 61 l 1
 251 11 194 -22 131 -22 c 0
 26 -22 -7 49 7 151 c 2
 61 536 l 1
 278 536 l 1
 232 196 l 2
 227 161 237 156 247 156 c 0
 257 156 275 172 293 205 c 1x78
 340 536 l 1
 557 536 l 1
EndSplineSet
Substitution2: "'smcp' Lowercase to Small Capitals lookup 28 subtable" udieresis.sc
Substitution2: "'aalt' Access All Alternates lookup 0 subtable" udieresis.sc
EndChar

StartChar: yacute
Encoding: 253 253 258
Width: 528
GlyphClass: 2
Flags: MW
HStem: -231 149<-25 -21> 1 21G<157 157 361 361> 516 20G<15 241 241 241 359 586 586 586>
VStem: -25 611 -23 262.5
AnchorPoint: "Anchor-11" 0 0 basechar 0
AnchorPoint: "Anchor-10" 0 0 basechar 0
AnchorPoint: "Anchor-9" 301 536 basechar 0
AnchorPoint: "Anchor-8" 0 0 basechar 0
LayerCount: 2
Fore
SplineSet
472 709 m 1xf0
 203 607 l 1
 161 718 l 1
 413 868 l 1
 472 709 l 1xf0
361 1 m 1
 294 -155 162 -229 -21 -231 c 1
 -25 -82 l 1
 75 -74 124 -54 157 1 c 1
 84 0 l 1
 15 536 l 1
 241 536 l 1
 238 134 l 1xe8
 359 536 l 1
 586 536 l 1
 361 1 l 1
EndSplineSet
Substitution2: "'smcp' Lowercase to Small Capitals lookup 24 subtable" yacute.sc
Substitution2: "'aalt' Access All Alternates lookup 0 subtable" yacute.sc
EndChar

StartChar: thorn
Encoding: 254 254 221
Width: 586
GlyphClass: 2
Flags: MW
HStem: -229 21G -22 157<276 303.5 261.5 409.5> -12 21G<208 208> 537 20G<394 473> 747 20G<316 316>
VStem: 359 223<296.5 365.5>
LayerCount: 2
Fore
SplineSet
415 557 m 0xbc
 531 557 582 481 582 350 c 0
 582 193 524 -22 295 -22 c 0xdc
 257 -22 221 -15 208 -12 c 1
 179 -208 l 1
 -40 -229 l 1
 96 745 l 1
 316 767 l 1
 278 500 l 1
 311 534 373 557 415 557 c 0xbc
270 135 m 0xdc
 337 135 359 255 359 338 c 0
 359 393 342 400 324 400 c 0
 304 400 280 388 258 352 c 1
 229 143 l 1
 237 140 253 135 270 135 c 0xdc
EndSplineSet
Substitution2: "'smcp' Lowercase to Small Capitals lookup 24 subtable" thorn.sc
Substitution2: "'aalt' Access All Alternates lookup 0 subtable" thorn.sc
EndChar
StartChar: Amacron
Encoding: 256 256 27
Width: 594
GlyphClass: 2
Flags: MW
HStem: 0 21G<-69 168 -69 -69 349 589 349 349> 126 160<252 340 252 345 205 340> 557 141<332 332> 678 20G<223 493 493 493> 770 148<223 532 202 553>
VStem: -69 658<0 0>
AnchorPoint: "Anchor-14" 0 0 basechar 0
AnchorPoint: "Anchor-13" 0 0 basechar 0
AnchorPoint: "Anchor-12" 380 918 basechar 0
AnchorPoint: "Anchor-11" 488 0 basechar 0
AnchorPoint: "Anchor-10" 258 0 basechar 0
LayerCount: 2
Back
Fore
SplineSet
553 918 m 1xdc
 532 770 l 1
 202 770 l 1
 223 918 l 1
 553 918 l 1xdc
349 0 m 1
 345 126 l 1
 205 126 l 1
 168 0 l 1
 -69 0 l 1
 223 698 l 1
 493 698 l 1
 589 0 l 1
 349 0 l 1
252 286 m 1
 340 286 l 1
 332 557 l 1xec
 252 286 l 1
EndSplineSet
Substitution2: "'c2sc' Capitals to Small Capitals lookup 27 subtable" amacron.sc
Substitution2: "'aalt' Access All Alternates lookup 0 subtable" amacron.sc
Position2: "'cpsp' Capital Spacing lookup 0 subtable" dx=5 dy=0 dh=10 dv=0
EndChar

StartChar: amacron
Encoding: 257 257 140
Width: 574
GlyphClass: 2
Flags: MW
HStem: -22 21G<120 218.5> -22 158<120 264.5> -17 21G<489 489> 407 150<281 324> 644 148<199 550 220 529>
VStem: 1 222<169.5 244.5 169.5 279>
AnchorPoint: "Anchor-11" 0 0 basechar 0
AnchorPoint: "Anchor-10" 0 0 basechar 0
AnchorPoint: "Anchor-9" 349 536 basechar 0
AnchorPoint: "Anchor-8" 497 -17 basechar 0
LayerCount: 2
Fore
SplineSet
199 644 m 1x3c
 220 792 l 1
 550 792 l 1
 529 644 l 1
 199 644 l 1x3c
329 557 m 0
 406 557 501 537 575 490 c 1
 532 184 l 2
 531 175 530 166 530 159 c 0
 530 140 536 130 552 123 c 1
 489 -17 l 1x3c
 425 -14 361 14 337 71 c 1
 305 18 257 -22 180 -22 c 0x9c
 60 -22 1 63 1 199 c 0
 1 359 86 557 329 557 c 0
318 407 m 0
 244 407 223 289 223 200 c 0
 223 139 241 136 255 136 c 0
 274 136 298 150 318 187 c 1x5c
 350 404 l 1
 338 406 330 407 318 407 c 0
EndSplineSet
Substitution2: "'smcp' Lowercase to Small Capitals lookup 24 subtable" amacron.sc
Substitution2: "'aalt' Access All Alternates lookup 0 subtable" amacron.sc
EndChar

StartChar: Abreve
Encoding: 258 258 3
Width: 594
GlyphClass: 2
Flags: MW
HStem: 0 21G<-69 168 -69 -69 349 349 349 589> 126 160<252 340 252 345 205 340> 557 141<332 332> 678 20G<223 493 493 493> 743 149<347.5 391 347.5 417>
VStem: -69 658<0 0> 192 109<944 961>
AnchorPoint: "Anchor-11" 0 0 basechar 0
AnchorPoint: "Anchor-10" 48 536 basechar 0
AnchorPoint: "Anchor-9" 357 698 basechar 0
AnchorPoint: "Anchor-8" 488 0 basechar 0
LayerCount: 2
Fore
SplineSet
354 743 m 0xda
 227 743 185 848 192 944 c 1
 301 961 l 1
 304 924 326 892 369 892 c 0
 413 892 442 926 456 962 c 1
 568 943 l 1
 548 847 480 743 354 743 c 0xda
345 126 m 1
 205 126 l 1
 168 0 l 1
 -69 0 l 1
 223 698 l 1
 493 698 l 1
 589 0 l 1
 349 0 l 1
 345 126 l 1
340 286 m 1
 332 557 l 1xec
 252 286 l 1
 340 286 l 1
EndSplineSet
Substitution2: "'c2sc' Capitals to Small Capitals lookup 23 subtable" abreve.sc
Substitution2: "'aalt' Access All Alternates lookup 0 subtable" abreve.sc
Position2: "'cpsp' Capital Spacing lookup 0 subtable" dx=5 dy=0 dh=10 dv=0
EndChar

StartChar: abreve
Encoding: 259 259 136
Width: 574
GlyphClass: 2
Flags: MW
HStem: -22 21G<120 218.5> -22 158<120 264.5> -17 21G<489 489> 407 150<281 324> 622 149<360 403 360 427>
VStem: 1 222<169.5 244.5 169.5 279> 202 111<833 850>
AnchorPoint: "Anchor-11" 0 0 basechar 0
AnchorPoint: "Anchor-10" 0 0 basechar 0
AnchorPoint: "Anchor-9" 349 536 basechar 0
AnchorPoint: "Anchor-8" 497 -17 basechar 0
LayerCount: 2
Fore
SplineSet
364 622 m 0x3a
 237 622 195 727 202 833 c 1
 313 850 l 1
 315 803 339 771 381 771 c 0
 425 771 455 805 471 851 c 1
 578 832 l 1
 558 726 490 622 364 622 c 0x3a
329 557 m 0
 406 557 501 537 575 490 c 1
 532 184 l 2
 531 175 530 166 530 159 c 0
 530 140 536 130 552 123 c 1
 489 -17 l 1x3c
 425 -14 361 14 337 71 c 1
 305 18 257 -22 180 -22 c 0
 60 -22 1 63 1 199 c 0x9c
 1 359 86 557 329 557 c 0
318 407 m 0x5c
 244 407 223 289 223 200 c 0
 223 139 241 136 255 136 c 0
 274 136 298 150 318 187 c 1
 350 404 l 1
 338 406 330 407 318 407 c 0x5c
EndSplineSet
Substitution2: "'smcp' Lowercase to Small Capitals lookup 24 subtable" abreve.sc
Substitution2: "'aalt' Access All Alternates lookup 0 subtable" abreve.sc
EndChar

StartChar: Aogonek
Encoding: 260 260 8
Width: 594
GlyphClass: 2
Flags: MW
HStem: -259 125<311 405> 0 21G<-69 168 -69 -69 480 589 480 480> 126 160<252 340 252 345 205 340> 557 141<332 332> 678 20G<223 493 493 493>
VStem: 204 150<-113 -107>
AnchorPoint: "Anchor-11" 0 0 basechar 0
AnchorPoint: "Anchor-10" 48 536 basechar 0
AnchorPoint: "Anchor-9" 357 698 basechar 0
AnchorPoint: "Anchor-8" 488 0 basechar 0
LayerCount: 2
Fore
SplineSet
480 0 m 1xec
 372 -32 354 -79 354 -101 c 0
 354 -125 368 -134 396 -134 c 0
 414 -134 436 -131 458 -126 c 1
 429 -251 l 1
 407 -256 380 -259 353 -259 c 0
 269 -259 204 -219 204 -144 c 0
 204 -70 252 -12 348 31 c 1
 345 126 l 1
 205 126 l 1
 168 0 l 1
 -69 0 l 1
 223 698 l 1
 493 698 l 1
 589 0 l 1
 480 0 l 1xec
340 286 m 1
 332 557 l 1x74
 252 286 l 1
 340 286 l 1
EndSplineSet
Substitution2: "'c2sc' Capitals to Small Capitals lookup 23 subtable" aogonek.sc
Substitution2: "'aalt' Access All Alternates lookup 0 subtable" aogonek.sc
Position2: "'cpsp' Capital Spacing lookup 0 subtable" dx=5 dy=0 dh=10 dv=0
EndChar
StartChar: aogonek
Encoding: 261 261 362
Width: 575
GlyphClass: 2
Flags: MW
HStem: -276 125<321 415> -22 158<121 265.5> 407 150<283 325.5>
VStem: 2 222<169.5 244.5 169.5 279> 214 150<-130 -121.5>
AnchorPoint: "Anchor-14" 0 0 basechar 0
AnchorPoint: "Anchor-13" 0 0 basechar 0
AnchorPoint: "Anchor-12" 349 536 basechar 0
AnchorPoint: "Anchor-11" 498 -17 basechar 0
AnchorPoint: "Anchor-10" 277 0 basechar 0
LayerCount: 2
Back
Fore
SplineSet
531 159 m 0xf0
 531 140 537 130 553 123 c 1
 490 -17 l 1
 382 -49 364 -96 364 -118 c 0
 364 -142 378 -151 406 -151 c 0
 424 -151 446 -148 468 -143 c 1
 439 -268 l 1
 417 -273 390 -276 363 -276 c 0
 279 -276 214 -236 214 -161 c 0xe8
 214 -82 268 -22 376 22 c 1
 360 35 347 51 338 71 c 1
 306 18 258 -22 181 -22 c 0
 61 -22 2 63 2 199 c 0
 2 359 87 557 330 557 c 0
 407 557 502 537 577 490 c 1
 533 184 l 2
 532 175 531 166 531 159 c 0xf0
319 187 m 1
 351 404 l 1
 339 406 331 407 320 407 c 0
 246 407 224 289 224 200 c 0
 224 139 242 136 256 136 c 0
 275 136 299 150 319 187 c 1
EndSplineSet
Substitution2: "'smcp' Lowercase to Small Capitals lookup 28 subtable" aogonek.sc
Substitution2: "'aalt' Access All Alternates lookup 0 subtable" aogonek.sc
EndChar

StartChar: cacute
Encoding: 263 263 148
Width: 466
GlyphClass: 2
Flags: MW
HStem: -22 170<272 297.5> 392 165<287 342.5>
VStem: 2 227<187 252 187 289>
AnchorPoint: "Anchor-11" 232 0 basechar 0
AnchorPoint: "Anchor-10" 0 0 basechar 0
AnchorPoint: "Anchor-9" 322 536 basechar 0
AnchorPoint: "Anchor-8" 0 0 basechar 0
LayerCount: 2
Fore
SplineSet
493 709 m 1
 224 607 l 1
 182 718 l 1
 434 868 l 1
 493 709 l 1
328 557 m 0
 404 557 468 528 514 480 c 1
 411 357 l 1
 384 382 356 392 329 392 c 0
 245 392 229 288 229 216 c 0
 229 158 255 148 289 148 c 0
 319 148 342 159 378 182 c 1
 456 44 l 1
 401 5 339 -22 256 -22 c 0
 95 -22 2 75 2 220 c 0
 2 358 92 557 328 557 c 0
EndSplineSet
Substitution2: "'smcp' Lowercase to Small Capitals lookup 24 subtable" cacute.sc
Substitution2: "'locl' Localized Forms in Latin lookup 7 subtable" cacute.loclPLK
AlternateSubs2: "'aalt' Access All Alternates lookup 1 subtable" cacute.loclPLK cacute.sc
EndChar
StartChar: Ccircumflex
Encoding: 264 264 46
Width: 575
GlyphClass: 2
Flags: MW
HStem: -22 172<312.5 356.5> 556 163<339.5 420>
VStem: 17 234<234.5 322.5 234.5 368.5>
AnchorPoint: "Anchor-14" 0 0 basechar 0
AnchorPoint: "Anchor-13" 527 872 basechar 0
AnchorPoint: "Anchor-12" 442 983 basechar 0
AnchorPoint: "Anchor-11" 0 0 basechar 0
AnchorPoint: "Anchor-10" 291 0 basechar 0
LayerCount: 2
Back
Fore
SplineSet
550 750 m 1
 426 839 l 1
 277 750 l 1
 213 835 l 1
 378 983 l 1
 507 983 l 1
 630 835 l 1
 550 750 l 1
395 719 m 0
 495 719 571 686 621 625 c 1
 500 508 l 1
 473 537 443 556 397 556 c 0
 282 556 251 368 251 277 c 0
 251 192 282 150 343 150 c 0
 388 150 427 176 472 209 c 1
 553 79 l 1
 493 25 405 -22 308 -22 c 0
 126 -22 17 80 17 270 c 0
 17 467 115 719 395 719 c 0
EndSplineSet
Substitution2: "'c2sc' Capitals to Small Capitals lookup 27 subtable" ccircumflex.sc
Substitution2: "'aalt' Access All Alternates lookup 0 subtable" ccircumflex.sc
Position2: "'cpsp' Capital Spacing lookup 0 subtable" dx=5 dy=0 dh=10 dv=0
EndChar

StartChar: ccircumflex
Encoding: 265 265 151
Width: 466
GlyphClass: 2
Flags: MW
HStem: -22 170<272 297.5> 392 165<287 342.5>
VStem: 2 227<187 252 187 289>
AnchorPoint: "Anchor-11" 232 0 basechar 0
AnchorPoint: "Anchor-10" 0 0 basechar 0
AnchorPoint: "Anchor-9" 322 536 basechar 0
AnchorPoint: "Anchor-8" 0 0 basechar 0
LayerCount: 2
Fore
SplineSet
136 691 m 1
 302 851 l 1
 431 851 l 1
 552 691 l 1
 470 607 l 1
 349 706 l 1
 199 607 l 1
 136 691 l 1
328 557 m 0
 404 557 468 528 514 480 c 1
 411 357 l 1
 384 382 356 392 329 392 c 0
 245 392 229 288 229 216 c 0
 229 158 255 148 289 148 c 0
 319 148 342 159 378 182 c 1
 456 44 l 1
 401 5 339 -22 256 -22 c 0
 95 -22 2 75 2 220 c 0
 2 358 92 557 328 557 c 0
EndSplineSet
Substitution2: "'smcp' Lowercase to Small Capitals lookup 24 subtable" ccircumflex.sc
Substitution2: "'aalt' Access All Alternates lookup 0 subtable" ccircumflex.sc
EndChar

StartChar: Cdotaccent
Encoding: 266 266 19
Width: 574
GlyphClass: 2
Flags: MW
HStem: -22 172<312.5 356.5> 556 163<339 419.5> 734 232<413.5 452.5>
VStem: 17 234<234.5 322.5 234.5 368.5> 314 238
AnchorPoint: "Anchor-11" 291 0 basechar 0
AnchorPoint: "Anchor-10" 0 0 basechar 0
AnchorPoint: "Anchor-9" 411 698 basechar 0
AnchorPoint: "Anchor-8" 0 0 basechar 0
LayerCount: 2
Fore
SplineSet
448 966 m 0
 518 966 561 915 552 848 c 0
 544 784 487 734 418 734 c 0
 347 734 305 785 314 853 c 0
 322 916 379 966 448 966 c 0
395 719 m 0xd0
 495 719 571 686 621 625 c 1
 500 508 l 1
 473 537 443 556 396 556 c 0
 282 556 251 368 251 277 c 0
 251 192 282 150 343 150 c 0
 388 150 427 176 472 209 c 1
 553 79 l 1
 493 25 405 -22 308 -22 c 0
 126 -22 17 80 17 270 c 0
 17 467 115 719 395 719 c 0xd0
EndSplineSet
Substitution2: "'c2sc' Capitals to Small Capitals lookup 23 subtable" cdotaccent.sc
Substitution2: "'aalt' Access All Alternates lookup 0 subtable" cdotaccent.sc
Position2: "'cpsp' Capital Spacing lookup 0 subtable" dx=5 dy=0 dh=10 dv=0
EndChar

StartChar: cdotaccent
Encoding: 267 267 152
Width: 466
GlyphClass: 2
Flags: MW
HStem: -22 170<272 297.5> 392 165<287 342.5> 608 232<329.5 368.5>
VStem: 2 227<187 252 187 289> 230 238
AnchorPoint: "Anchor-11" 232 0 basechar 0
AnchorPoint: "Anchor-10" 0 0 basechar 0
AnchorPoint: "Anchor-9" 322 536 basechar 0
AnchorPoint: "Anchor-8" 0 0 basechar 0
LayerCount: 2
Fore
SplineSet
364 840 m 0
 434 840 477 789 468 722 c 0
 460 658 403 608 334 608 c 0
 263 608 221 659 230 727 c 0
 238 790 295 840 364 840 c 0
328 557 m 0
 404 557 468 528 514 480 c 1
 411 357 l 1
 384 382 356 392 329 392 c 0
 245 392 229 288 229 216 c 0
 229 158 255 148 289 148 c 0
 319 148 342 159 378 182 c 1
 456 44 l 1
 401 5 339 -22 256 -22 c 0
 95 -22 2 75 2 220 c 0xf0
 2 358 92 557 328 557 c 0
EndSplineSet
Substitution2: "'smcp' Lowercase to Small Capitals lookup 24 subtable" cdotaccent.sc
Substitution2: "'aalt' Access All Alternates lookup 0 subtable" cdotaccent.sc
EndChar
StartChar: Ccaron
Encoding: 268 268 44
Width: 575
GlyphClass: 2
Flags: MW
HStem: -22 172<312.5 356.5> 556 163<339.5 420>
VStem: 17 234<234.5 322.5 234.5 368.5>
AnchorPoint: "Anchor-14" 0 0 basechar 0
AnchorPoint: "Anchor-13" 0 0 basechar 0
AnchorPoint: "Anchor-12" 436 976 basechar 0
AnchorPoint: "Anchor-11" 0 0 basechar 0
AnchorPoint: "Anchor-10" 291 0 basechar 0
LayerCount: 2
Back
Fore
SplineSet
579 976 m 1
 642 893 l 1
 478 745 l 1
 349 745 l 1
 225 893 l 1
 306 976 l 1
 431 889 l 1
 579 976 l 1
395 719 m 0
 495 719 571 686 621 625 c 1
 500 508 l 1
 473 537 443 556 397 556 c 0
 282 556 251 368 251 277 c 0
 251 192 282 150 343 150 c 0
 388 150 427 176 472 209 c 1
 553 79 l 1
 493 25 405 -22 308 -22 c 0
 126 -22 17 80 17 270 c 0
 17 467 115 719 395 719 c 0
EndSplineSet
Substitution2: "'c2sc' Capitals to Small Capitals lookup 27 subtable" ccaron.sc
Substitution2: "'aalt' Access All Alternates lookup 0 subtable" ccaron.sc
Position2: "'cpsp' Capital Spacing lookup 0 subtable" dx=5 dy=0 dh=10 dv=0
EndChar

StartChar: ccaron
Encoding: 269 269 149
Width: 466
GlyphClass: 2
Flags: MW
HStem: -22 170<272 297.5> 392 165<287 342.5> 736 20G<145 145 561 561>
VStem: 2 227<187 252 187 289>
AnchorPoint: "Anchor-11" 232 0 basechar 0
AnchorPoint: "Anchor-10" 0 0 basechar 0
AnchorPoint: "Anchor-9" 322 536 basechar 0
AnchorPoint: "Anchor-8" 0 0 basechar 0
LayerCount: 2
Fore
SplineSet
561 756 m 1
 396 596 l 1
 268 596 l 1
 145 756 l 1
 224 840 l 1
 346 741 l 1
 495 840 l 1
 561 756 l 1
328 557 m 0
 404 557 468 528 514 480 c 1
 411 357 l 1
 384 382 356 392 329 392 c 0
 245 392 229 288 229 216 c 0
 229 158 255 148 289 148 c 0
 319 148 342 159 378 182 c 1
 456 44 l 1
 401 5 339 -22 256 -22 c 0
 95 -22 2 75 2 220 c 0
 2 358 92 557 328 557 c 0
EndSplineSet
Substitution2: "'smcp' Lowercase to Small Capitals lookup 24 subtable" ccaron.sc
Substitution2: "'aalt' Access All Alternates lookup 0 subtable" ccaron.sc
EndChar
StartChar: Dcaron
Encoding: 270 270 55
Width: 645
GlyphClass: 2
Flags: MW
HStem: 0 161<-7 273> 537 161<295 325 325 330 295 295>
VStem: 418 233<377.5 469.5>
AnchorPoint: "Anchor-14" 335 349 basechar 0
AnchorPoint: "Anchor-13" 0 0 basechar 0
AnchorPoint: "Anchor-12" 368 976 basechar 0
AnchorPoint: "Anchor-11" 0 0 basechar 0
AnchorPoint: "Anchor-10" 252 0 basechar 0
LayerCount: 2
Back
Fore
SplineSet
511 976 m 1
 574 893 l 1
 410 745 l 1
 281 745 l 1
 157 893 l 1
 238 976 l 1
 363 889 l 1
 511 976 l 1
325 698 m 2
 496 698 651 645 651 433 c 0
 651 202 559 0 239 0 c 2
 -7 0 l 1
 90 698 l 1
 325 698 l 2
330 537 m 2
 295 537 l 1
 242 161 l 1
 273 161 l 2
 400 161 418 325 418 430 c 0
 418 509 394 537 330 537 c 2
EndSplineSet
Substitution2: "'c2sc' Capitals to Small Capitals lookup 27 subtable" dcaron.sc
Substitution2: "'aalt' Access All Alternates lookup 0 subtable" dcaron.sc
Position2: "'cpsp' Capital Spacing lookup 0 subtable" dx=5 dy=0 dh=10 dv=0
EndChar

StartChar: dcaron
Encoding: 271 271 155
Width: 770
GlyphClass: 2
Flags: MW
HStem: -22 21G<115.5 212> 0 136<253 523 253 329> 401 156<284.5 297.5 178.5 328.5> 743 20G<703 703> 747 20G<412 412>
VStem: 7 223<170.5 237.5 170.5 273.5>
LayerCount: 2
Fore
SplineSet
627 745 m 1xac
 523 0 l 1
 329 0 l 1x74
 330 65 l 1
 299 25 250 -22 174 -22 c 0
 57 -22 7 59 7 197 c 0
 7 350 77 557 280 557 c 0
 315 557 353 544 378 520 c 1
 412 767 l 1
 627 745 l 1xac
852 744 m 1
 771 499 l 1
 664 507 l 1
 703 763 l 1
 852 744 l 1
320 401 m 0
 249 401 230 274 230 201 c 0
 230 140 246 136 260 136 c 0
 285 136 316 179 335 210 c 1
 359 386 l 1
 347 398 337 401 320 401 c 0
EndSplineSet
Substitution2: "'smcp' Lowercase to Small Capitals lookup 24 subtable" dcaron.sc
Substitution2: "'aalt' Access All Alternates lookup 0 subtable" dcaron.sc
EndChar
StartChar: Dcroat
Encoding: 272 272 57
Width: 654
GlyphClass: 2
Flags: MW
HStem: 0 161<2 281> 290 126<21 42 3 60 287 378> 537 161<304 333 333 339 304 304>
VStem: 427 233<377.5 469.5>
AnchorPoint: "Anchor-14" 343 349 basechar 0
AnchorPoint: "Anchor-13" 0 0 basechar 0
AnchorPoint: "Anchor-12" 352 698 basechar 0
AnchorPoint: "Anchor-11" 0 0 basechar 0
AnchorPoint: "Anchor-10" 261 0 basechar 0
LayerCount: 2
Back
Fore
SplineSet
333 698 m 2
 505 698 660 645 660 433 c 0
 660 202 568 0 248 0 c 2
 2 0 l 1
 42 290 l 1
 3 290 l 1
 21 416 l 1
 60 416 l 1
 99 698 l 1
 333 698 l 2
281 161 m 2
 409 161 427 325 427 430 c 0
 427 509 403 537 339 537 c 2
 304 537 l 1
 287 416 l 1
 395 416 l 1
 378 290 l 1
 269 290 l 1
 251 161 l 1
 281 161 l 2
EndSplineSet
Substitution2: "'c2sc' Capitals to Small Capitals lookup 27 subtable" dcroat.sc
Substitution2: "'aalt' Access All Alternates lookup 0 subtable" dcroat.sc
Position2: "'cpsp' Capital Spacing lookup 0 subtable" dx=5 dy=0 dh=10 dv=0
EndChar
StartChar: dcroat
Encoding: 273 273 395
Width: 598
GlyphClass: 2
Flags: MW
HStem: -22 158<116 273> 0 136<253.5 524 253.5 329> 401 156<284.5 297.5 178.5 329> 586 115<280 388 279 403 621 647> 725 20G<628 628>
VStem: 7 223<170.5 237.5 170.5 273.5>
AnchorPoint: "Anchor-14" 295 268 basechar 0
AnchorPoint: "Anchor-13" 642 745 basechar 0
AnchorPoint: "Anchor-12" 341 745 basechar 0
AnchorPoint: "Anchor-11" 0 0 basechar 0
AnchorPoint: "Anchor-10" 258 0 basechar 0
LayerCount: 2
Back
Fore
SplineSet
663 701 m 1x5c
 647 586 l 1
 605 586 l 1
 524 0 l 1
 329 0 l 1x5c
 330 65 l 1
 300 25 251 -22 174 -22 c 0
 58 -22 7 59 7 197 c 0
 7 350 77 557 280 557 c 0
 315 557 353 544 378 520 c 1xbc
 388 586 l 1
 279 586 l 1
 280 701 l 1
 403 701 l 1
 412 768 l 1
 628 745 l 1
 621 701 l 1
 663 701 l 1x5c
335 210 m 1
 360 386 l 1
 347 398 338 401 320 401 c 0x7c
 249 401 230 274 230 201 c 0
 230 140 246 136 261 136 c 0
 285 136 316 179 335 210 c 1
EndSplineSet
Substitution2: "'smcp' Lowercase to Small Capitals lookup 28 subtable" dcroat.sc
Substitution2: "'aalt' Access All Alternates lookup 0 subtable" dcroat.sc
EndChar

StartChar: Emacron
Encoding: 274 274 32
Width: 506
GlyphClass: 2
Flags: MW
HStem: 0 159<242 452> 278 153<280 450 259 469> 539 159<295 512 295 295> 770 148<168 519 189 498>
VStem: -7 564
AnchorPoint: "Anchor-11" 223 0 basechar 0
AnchorPoint: "Anchor-10" -70 534 basechar 0
AnchorPoint: "Anchor-9" 324 698 basechar 0
AnchorPoint: "Anchor-8" 422 0 basechar 0
LayerCount: 2
Fore
SplineSet
168 770 m 1
 189 918 l 1
 519 918 l 1
 498 770 l 1
 168 770 l 1
512 539 m 1
 295 539 l 1
 280 431 l 1
 469 431 l 1
 450 278 l 1
 259 278 l 1
 242 159 l 1
 475 159 l 1
 452 0 l 1
 -7 0 l 1
 90 698 l 1
 557 698 l 1
 512 539 l 1
EndSplineSet
Substitution2: "'c2sc' Capitals to Small Capitals lookup 23 subtable" emacron.sc
Substitution2: "'aalt' Access All Alternates lookup 0 subtable" emacron.sc
Position2: "'cpsp' Capital Spacing lookup 0 subtable" dx=5 dy=0 dh=10 dv=0
EndChar
StartChar: Ebreve
Encoding: 276 276 67
Width: 507
GlyphClass: 2
Flags: MW
HStem: 0 159<243 454> 278 153<281 451 260 471> 539 159<296 513 296 296> 743 149<328 371.5 328 398>
VStem: 173 109<944 961>
AnchorPoint: "Anchor-14" 0 0 basechar 0
AnchorPoint: "Anchor-13" 0 0 basechar 0
AnchorPoint: "Anchor-12" 363 962 basechar 0
AnchorPoint: "Anchor-11" 424 0 basechar 0
AnchorPoint: "Anchor-10" 224 0 basechar 0
LayerCount: 2
Back
Fore
SplineSet
335 743 m 0
 207 743 166 848 173 944 c 1
 282 961 l 1
 285 924 307 892 349 892 c 0
 394 892 422 926 436 962 c 1
 549 943 l 1
 529 847 461 743 335 743 c 0
559 698 m 1
 513 539 l 1
 296 539 l 1
 281 431 l 1
 471 431 l 1
 451 278 l 1
 260 278 l 1
 243 159 l 1
 476 159 l 1
 454 0 l 1
 -5 0 l 1
 92 698 l 1
 559 698 l 1
EndSplineSet
Substitution2: "'c2sc' Capitals to Small Capitals lookup 27 subtable" ebreve.sc
Substitution2: "'aalt' Access All Alternates lookup 0 subtable" ebreve.sc
Position2: "'cpsp' Capital Spacing lookup 0 subtable" dx=5 dy=0 dh=10 dv=0
EndChar

StartChar: ebreve
Encoding: 277 277 159
Width: 546
GlyphClass: 2
Flags: MW
HStem: -22 154<274 310> 190 120 421 136<283.5 318.5> 622 149<328 371 328 395>
VStem: 3 216 170 111<833 850> 341 216<385.5 398>
AnchorPoint: "Anchor-11" 250 0 basechar 0
AnchorPoint: "Anchor-10" 0 0 basechar 0
AnchorPoint: "Anchor-9" 316 536 basechar 0
AnchorPoint: "Anchor-8" 424 12 basechar 0
LayerCount: 2
Fore
SplineSet
332 622 m 0xf6
 205 622 163 727 170 833 c 1
 281 850 l 1
 283 803 307 771 349 771 c 0
 393 771 423 805 439 851 c 1
 546 832 l 1
 526 726 458 622 332 622 c 0xf6
557 400 m 0
 557 252 369 203 219 190 c 1
 225 145 255 132 293 132 c 0
 336 132 372 150 423 181 c 1
 496 57 l 1
 437 13 357 -22 263 -22 c 0
 82 -22 3 76 3 213 c 0xfa
 3 358 87 557 333 557 c 0
 478 557 557 491 557 400 c 0
228 310 m 1
 342 314 341 385 341 386 c 0
 341 410 332 421 305 421 c 0
 262 421 239 368 228 310 c 1
EndSplineSet
Substitution2: "'smcp' Lowercase to Small Capitals lookup 24 subtable" ebreve.sc
Substitution2: "'aalt' Access All Alternates lookup 0 subtable" ebreve.sc
EndChar

StartChar: Edotaccent
Encoding: 278 278 30
Width: 506
GlyphClass: 2
Flags: MW
HStem: 0 159<242 452> 278 153<280 450 259 469> 539 159<295 512 295 295> 734 232<326.5 365.5>
VStem: 227 238
AnchorPoint: "Anchor-11" 223 0 basechar 0
AnchorPoint: "Anchor-10" -70 534 basechar 0
AnchorPoint: "Anchor-9" 324 698 basechar 0
AnchorPoint: "Anchor-8" 422 0 basechar 0
LayerCount: 2
Fore
SplineSet
361 966 m 0
 431 966 474 915 465 848 c 0
 457 784 400 734 331 734 c 0
 260 734 218 785 227 853 c 0
 235 916 292 966 361 966 c 0
512 539 m 1
 295 539 l 1
 280 431 l 1
 469 431 l 1
 450 278 l 1
 259 278 l 1
 242 159 l 1
 475 159 l 1
 452 0 l 1
 -7 0 l 1
 90 698 l 1
 557 698 l 1
 512 539 l 1
EndSplineSet
Substitution2: "'c2sc' Capitals to Small Capitals lookup 23 subtable" edotaccent.sc
Substitution2: "'aalt' Access All Alternates lookup 0 subtable" edotaccent.sc
Position2: "'cpsp' Capital Spacing lookup 0 subtable" dx=5 dy=0 dh=10 dv=0
EndChar

StartChar: edotaccent
Encoding: 279 279 163
Width: 546
GlyphClass: 2
Flags: MW
HStem: -22 154<274 310> 190 120 421 136<283.5 318.5> 608 232<324.5 363.5>
VStem: 3 216 225 238 341 216<385.5 398>
AnchorPoint: "Anchor-11" 250 0 basechar 0
AnchorPoint: "Anchor-10" 0 0 basechar 0
AnchorPoint: "Anchor-9" 316 536 basechar 0
AnchorPoint: "Anchor-8" 424 12 basechar 0
LayerCount: 2
Fore
SplineSet
329 608 m 0xf4
 258 608 216 659 225 727 c 0
 233 790 290 840 359 840 c 0
 429 840 472 789 463 722 c 0
 455 658 398 608 329 608 c 0xf4
557 400 m 0xfa
 557 252 369 203 219 190 c 1
 225 145 255 132 293 132 c 0
 336 132 372 150 423 181 c 1
 496 57 l 1
 437 13 357 -22 263 -22 c 0
 82 -22 3 76 3 213 c 0
 3 358 87 557 333 557 c 0
 478 557 557 491 557 400 c 0xfa
228 310 m 1
 342 314 341 385 341 386 c 0
 341 410 332 421 305 421 c 0
 262 421 239 368 228 310 c 1
EndSplineSet
Substitution2: "'smcp' Lowercase to Small Capitals lookup 24 subtable" edotaccent.sc
Substitution2: "'aalt' Access All Alternates lookup 0 subtable" edotaccent.sc
EndChar
StartChar: Eogonek
Encoding: 280 280 84
Width: 507
GlyphClass: 2
Flags: MW
HStem: -259 125<247 341> 0 159<-5 476 416 454 416 416> 278 153<281 451 260 471> 539 159<296 513 296 296>
VStem: -5 564 140 150<-181.5 -90>
AnchorPoint: "Anchor-14" 0 0 basechar 0
AnchorPoint: "Anchor-13" 0 0 basechar 0
AnchorPoint: "Anchor-12" 325 698 basechar 0
AnchorPoint: "Anchor-11" 424 0 basechar 0
AnchorPoint: "Anchor-10" 224 0 basechar 0
LayerCount: 2
Back
Fore
SplineSet
513 539 m 1x78
 296 539 l 1
 281 431 l 1
 471 431 l 1
 451 278 l 1
 260 278 l 1
 243 159 l 1
 476 159 l 1
 454 0 l 1
 416 0 l 1
 308 -32 290 -79 290 -101 c 0
 290 -125 304 -134 332 -134 c 0
 350 -134 372 -131 394 -126 c 1
 365 -251 l 1
 343 -256 316 -259 289 -259 c 0
 205 -259 140 -219 140 -144 c 0
 140 -87 169 -39 226 0 c 1xf4
 -5 0 l 1
 92 698 l 1
 559 698 l 1
 513 539 l 1x78
EndSplineSet
Substitution2: "'c2sc' Capitals to Small Capitals lookup 27 subtable" eogonek.sc
Substitution2: "'aalt' Access All Alternates lookup 0 subtable" eogonek.sc
Position2: "'cpsp' Capital Spacing lookup 0 subtable" dx=5 dy=0 dh=10 dv=0
EndChar

StartChar: eogonek
Encoding: 281 281 166
Width: 546
GlyphClass: 2
Flags: MW
HStem: -247 125<234 334> -17 21G 190 120 421 136<283.5 318.5>
VStem: 3 216 341 216<385.5 398>
AnchorPoint: "Anchor-11" 250 0 basechar 0
AnchorPoint: "Anchor-10" 0 0 basechar 0
AnchorPoint: "Anchor-9" 316 536 basechar 0
AnchorPoint: "Anchor-8" 424 12 basechar 0
LayerCount: 2
Fore
SplineSet
557 400 m 0
 557 252 369 203 219 190 c 1
 225 145 255 132 293 132 c 0
 336 132 372 150 423 181 c 1
 496 57 l 1
 458 28 411 4 356 -10 c 1
 305 -36 288 -64 284 -82 c 0
 279 -110 295 -122 324 -122 c 0
 344 -122 366 -119 387 -114 c 1
 358 -239 l 1
 335 -244 307 -247 281 -247 c 0
 187 -247 118 -199 132 -112 c 0
 139 -71 164 -40 199 -17 c 1
 63 4 3 93 3 213 c 0
 3 358 87 557 333 557 c 0
 478 557 557 491 557 400 c 0
228 310 m 1
 342 314 341 385 341 386 c 0
 341 410 332 421 305 421 c 0
 262 421 239 368 228 310 c 1
EndSplineSet
Substitution2: "'smcp' Lowercase to Small Capitals lookup 24 subtable" eogonek.sc
Substitution2: "'aalt' Access All Alternates lookup 0 subtable" eogonek.sc
EndChar
StartChar: Ecaron
Encoding: 282 282 68
Width: 507
GlyphClass: 2
Flags: MW
HStem: 0 159<243 454> 278 153<281 451 260 471> 539 159<296 513 296 296>
VStem: -5 564
AnchorPoint: "Anchor-14" 0 0 basechar 0
AnchorPoint: "Anchor-13" 0 0 basechar 0
AnchorPoint: "Anchor-12" 350 976 basechar 0
AnchorPoint: "Anchor-11" 424 0 basechar 0
AnchorPoint: "Anchor-10" 224 0 basechar 0
LayerCount: 2
Back
Fore
SplineSet
493 976 m 1
 556 893 l 1
 392 745 l 1
 263 745 l 1
 139 893 l 1
 220 976 l 1
 345 889 l 1
 493 976 l 1
559 698 m 1
 513 539 l 1
 296 539 l 1
 281 431 l 1
 471 431 l 1
 451 278 l 1
 260 278 l 1
 243 159 l 1
 476 159 l 1
 454 0 l 1
 -5 0 l 1
 92 698 l 1
 559 698 l 1
EndSplineSet
Substitution2: "'c2sc' Capitals to Small Capitals lookup 27 subtable" ecaron.sc
Substitution2: "'aalt' Access All Alternates lookup 0 subtable" ecaron.sc
Position2: "'cpsp' Capital Spacing lookup 0 subtable" dx=5 dy=0 dh=10 dv=0
EndChar
StartChar: ecaron
Encoding: 283 283 412
Width: 548
GlyphClass: 2
Flags: MW
HStem: -22 154<274 310> 190 121 421 136<283.5 318.5> 736 20G<139 139 555 555>
VStem: 3 554<144.5 445.5> 341 216<385.5 398>
AnchorPoint: "Anchor-14" 0 0 basechar 0
AnchorPoint: "Anchor-13" 0 0 basechar 0
AnchorPoint: "Anchor-12" 349 840 basechar 0
AnchorPoint: "Anchor-11" 424 12 basechar 0
AnchorPoint: "Anchor-10" 250 0 basechar 0
LayerCount: 2
Back
Fore
SplineSet
390 596 m 1xb8
 262 596 l 1
 139 756 l 1
 218 840 l 1
 340 741 l 1
 489 840 l 1
 555 756 l 1
 390 596 l 1xb8
557 400 m 0xf4
 557 252 369 203 219 190 c 1
 225 145 255 132 293 132 c 0
 336 132 372 150 423 181 c 1
 496 57 l 1
 437 13 357 -22 263 -22 c 0
 82 -22 3 76 3 213 c 0
 3 358 87 557 333 557 c 0
 478 557 557 491 557 400 c 0xf4
228 311 m 1
 342 315 341 385 341 386 c 0
 341 410 332 421 305 421 c 0
 262 421 239 368 228 311 c 1
EndSplineSet
Substitution2: "'smcp' Lowercase to Small Capitals lookup 28 subtable" ecaron.sc
Substitution2: "'aalt' Access All Alternates lookup 0 subtable" ecaron.sc
EndChar

StartChar: Gcircumflex
Encoding: 284 284 37
Width: 644
GlyphClass: 2
Flags: MW
HStem: -22 162<296 332 296 353.5> 262 153<343 398 340 636> 560 159<349.5 449>
VStem: 16 231<202 308.5 202 367>
AnchorPoint: "Anchor-11" 307 0 basechar 0
AnchorPoint: "Anchor-10" 0 0 basechar 0
AnchorPoint: "Anchor-9" 401 698 basechar 0
AnchorPoint: "Anchor-8" 0 0 basechar 0
LayerCount: 2
Fore
SplineSet
429 839 m 1
 280 750 l 1
 216 835 l 1
 381 983 l 1
 510 983 l 1
 633 835 l 1
 553 750 l 1
 429 839 l 1
430 719 m 0
 537 719 619 676 665 622 c 1
 539 508 l 1
 504 543 474 560 424 560 c 0
 275 560 247 375 247 242 c 0
 247 162 272 140 320 140 c 0
 344 140 362 145 382 151 c 1
 398 262 l 1
 340 262 l 1
 343 415 l 1
 636 415 l 1
 588 59 l 1
 505 7 395 -22 312 -22 c 0
 104 -22 16 79 16 259 c 0
 16 475 124 719 430 719 c 0
EndSplineSet
Substitution2: "'c2sc' Capitals to Small Capitals lookup 23 subtable" gcircumflex.sc
Substitution2: "'aalt' Access All Alternates lookup 0 subtable" gcircumflex.sc
Position2: "'cpsp' Capital Spacing lookup 0 subtable" dx=5 dy=0 dh=10 dv=0
EndChar

StartChar: Gbreve
Encoding: 286 286 36
Width: 644
GlyphClass: 2
Flags: MW
HStem: -22 162<296 332 296 353.5> 262 153<343 398 340 636> 560 159<349.5 449> 743 149<390.5 434 390.5 460>
VStem: 16 231<202 308.5 202 367> 235 109<944 961>
AnchorPoint: "Anchor-11" 307 0 basechar 0
AnchorPoint: "Anchor-10" 0 0 basechar 0
AnchorPoint: "Anchor-9" 401 698 basechar 0
AnchorPoint: "Anchor-8" 0 0 basechar 0
LayerCount: 2
Fore
SplineSet
397 743 m 0xf4
 270 743 228 848 235 944 c 1
 344 961 l 1
 347 924 369 892 412 892 c 0
 456 892 485 926 499 962 c 1
 611 943 l 1
 591 847 523 743 397 743 c 0xf4
430 719 m 0xe8
 537 719 619 676 665 622 c 1
 539 508 l 1
 504 543 474 560 424 560 c 0
 275 560 247 375 247 242 c 0
 247 162 272 140 320 140 c 0
 344 140 362 145 382 151 c 1
 398 262 l 1
 340 262 l 1
 343 415 l 1
 636 415 l 1
 588 59 l 1
 505 7 395 -22 312 -22 c 0
 104 -22 16 79 16 259 c 0
 16 475 124 719 430 719 c 0xe8
EndSplineSet
Substitution2: "'c2sc' Capitals to Small Capitals lookup 23 subtable" gbreve.sc
Substitution2: "'aalt' Access All Alternates lookup 0 subtable" gbreve.sc
Position2: "'cpsp' Capital Spacing lookup 0 subtable" dx=5 dy=0 dh=10 dv=0
EndChar
StartChar: gbreve
Encoding: 287 287 453
Width: 574
GlyphClass: 2
Flags: MW
HStem: -229 159<188 229.5 188 311.5> 0 21G<122 210.5> 407 150<286 331> 622 149<339 382 339 406>
VStem: 3 222<194 254 194 282.5> 181 111<833 850>
AnchorPoint: "Anchor-14" 0 0 basechar 0
AnchorPoint: "Anchor-13" 0 0 basechar 0
AnchorPoint: "Anchor-12" 371 851 basechar 0
AnchorPoint: "Anchor-11" 0 0 basechar 0
AnchorPoint: "Anchor-10" 207 -218 basechar 0
LayerCount: 2
Back
Fore
SplineSet
343 622 m 0xf4
 216 622 174 727 181 833 c 1
 292 850 l 1
 294 803 318 771 360 771 c 0
 404 771 434 805 450 851 c 1
 557 832 l 1
 537 726 469 622 343 622 c 0xf4
335 557 m 0
 413 557 507 537 582 490 c 1
 524 68 l 2
 495 -135 416 -229 207 -229 c 0
 139 -229 55 -205 -10 -164 c 1
 60 -28 l 1
 126 -62 170 -70 206 -70 c 0
 253 -70 295 -56 307 23 c 2
 314 59 l 1
 282 24 239 0 182 0 c 0
 62 0 3 89 3 214 c 0xf8
 3 351 86 557 335 557 c 0
326 407 m 0xf8
 246 407 225 285 225 223 c 0
 225 165 246 160 261 160 c 0
 282 160 306 177 327 209 c 1
 356 404 l 1
 344 406 336 407 326 407 c 0xf8
EndSplineSet
Substitution2: "'smcp' Lowercase to Small Capitals lookup 28 subtable" gbreve.sc
Substitution2: "'aalt' Access All Alternates lookup 0 subtable" gbreve.sc
EndChar
StartChar: Gdotaccent
Encoding: 288 288 103
Width: 643
GlyphClass: 2
Flags: MW
HStem: -22 162<296 332 296 353.5> 262 153<343 398 340 636> 560 159<349.5 449> 734 232<407.5 446.5>
VStem: 16 231<202 308.5 202 367>
AnchorPoint: "Anchor-14" 0 0 basechar 0
AnchorPoint: "Anchor-13" 0 0 basechar 0
AnchorPoint: "Anchor-12" 441 966 basechar 0
AnchorPoint: "Anchor-11" 0 0 basechar 0
AnchorPoint: "Anchor-10" 307 0 basechar 0
LayerCount: 2
Back
Fore
SplineSet
442 966 m 0
 512 966 555 915 547 848 c 0
 538 784 481 734 412 734 c 0
 342 734 299 785 308 853 c 0
 316 916 373 966 442 966 c 0
430 719 m 0xe8
 537 719 619 676 665 622 c 1
 539 508 l 1
 504 543 474 560 424 560 c 0
 275 560 247 375 247 242 c 0
 247 162 272 140 320 140 c 0
 344 140 362 145 382 151 c 1
 398 262 l 1
 340 262 l 1
 343 415 l 1
 636 415 l 1
 588 59 l 1
 505 7 395 -22 312 -22 c 0
 104 -22 16 79 16 259 c 0
 16 475 124 719 430 719 c 0xe8
EndSplineSet
Substitution2: "'c2sc' Capitals to Small Capitals lookup 27 subtable" gdotaccent.sc
Substitution2: "'aalt' Access All Alternates lookup 0 subtable" gdotaccent.sc
Position2: "'cpsp' Capital Spacing lookup 0 subtable" dx=5 dy=0 dh=10 dv=0
EndChar

StartChar: gdotaccent
Encoding: 289 289 172
Width: 573
GlyphClass: 2
Flags: MW
HStem: -229 159<187.5 229.5 187.5 311> 0 21G<121 209.5> 407 150<285 330> 608 232<342.5 381.5>
VStem: 3 221<194 254 194 282.5> 243 238
AnchorPoint: "Anchor-11" 0 0 basechar 0
AnchorPoint: "Anchor-10" 0 0 basechar 0
AnchorPoint: "Anchor-9" 334 536 basechar 0
AnchorPoint: "Anchor-8" 0 0 basechar 0
LayerCount: 2
Fore
SplineSet
377 840 m 0
 447 840 490 789 481 722 c 0
 473 658 416 608 347 608 c 0
 276 608 234 659 243 727 c 0
 251 790 308 840 377 840 c 0
334 557 m 0
 412 557 506 537 581 490 c 1
 523 68 l 1
 494 -135 416 -229 206 -229 c 0
 138 -229 54 -205 -10 -164 c 1
 59 -28 l 1
 125 -62 169 -70 206 -70 c 0
 253 -70 295 -56 306 23 c 1
 313 59 l 1
 281 25 238 0 181 0 c 0
 61 0 3 89 3 214 c 0xf8
 3 351 85 557 334 557 c 0
325 407 m 0xf8
 245 407 224 285 224 223 c 0
 224 165 246 160 261 160 c 0
 282 160 306 177 326 209 c 1
 356 404 l 1
 344 406 335 407 325 407 c 0xf8
EndSplineSet
Substitution2: "'smcp' Lowercase to Small Capitals lookup 24 subtable" gdotaccent.sc
Substitution2: "'aalt' Access All Alternates lookup 0 subtable" gdotaccent.sc
EndChar

StartChar: Gcommaaccent
Encoding: 290 290 38
Width: 644
GlyphClass: 2
Flags: MW
HStem: -22 162<296 332 296 353.5> 262 153<343 398 340 636> 560 159<349.5 449>
VStem: 16 231<202 308.5 202 367> 190 197<-164.5 -137>
AnchorPoint: "Anchor-11" 307 0 basechar 0
AnchorPoint: "Anchor-10" 0 0 basechar 0
AnchorPoint: "Anchor-9" 401 698 basechar 0
AnchorPoint: "Anchor-8" 0 0 basechar 0
LayerCount: 2
Fore
SplineSet
430 719 m 0xf0
 537 719 619 676 665 622 c 1
 539 508 l 1
 504 543 474 560 424 560 c 0
 275 560 247 375 247 242 c 0
 247 162 272 140 320 140 c 0
 344 140 362 145 382 151 c 1
 398 262 l 1
 340 262 l 1
 343 415 l 1
 636 415 l 1
 588 59 l 1
 505 7 395 -22 312 -22 c 0
 104 -22 16 79 16 259 c 0
 16 475 124 719 430 719 c 0xf0
301 -59 m 0xe8
 352 -59 387 -93 387 -145 c 0
 387 -184 373 -211 347 -251 c 2
 282 -352 l 1
 181 -352 l 1
 224 -237 l 1
 202 -222 190 -202 190 -172 c 0
 190 -102 241 -59 301 -59 c 0xe8
EndSplineSet
Substitution2: "'c2sc' Capitals to Small Capitals lookup 23 subtable" gcommaaccent.sc
Substitution2: "'aalt' Access All Alternates lookup 0 subtable" gcommaaccent.sc
Position2: "'cpsp' Capital Spacing lookup 0 subtable" dx=5 dy=0 dh=10 dv=0
EndChar
StartChar: gcommaaccent
Encoding: 291 291 456
Width: 574
GlyphClass: 2
Flags: MW
HStem: -229 159<188 229.5 188 311.5> 0 21G<122 210.5> 407 150<286 331>
VStem: 3 222<194 254 194 282.5> 262 197<668.5 695.5>
AnchorPoint: "Anchor-14" 0 0 basechar 0
AnchorPoint: "Anchor-13" 0 0 basechar 0
AnchorPoint: "Anchor-12" 337 536 basechar 0
AnchorPoint: "Anchor-11" 0 0 basechar 0
AnchorPoint: "Anchor-10" 207 -218 basechar 0
LayerCount: 2
Back
Fore
SplineSet
354 590 m 0
 302 590 262 623 262 676 c 0
 262 715 276 742 302 782 c 2
 367 883 l 1
 468 883 l 1
 425 768 l 1
 447 753 459 733 459 703 c 0
 459 634 412 590 354 590 c 0
335 557 m 0
 413 557 507 537 582 490 c 1
 524 68 l 2
 495 -135 416 -229 207 -229 c 0
 139 -229 55 -205 -10 -164 c 1
 60 -28 l 1
 126 -62 170 -70 206 -70 c 0
 253 -70 295 -56 307 23 c 2
 314 59 l 1
 282 24 239 0 182 0 c 0
 62 0 3 89 3 214 c 0
 3 351 86 557 335 557 c 0
326 407 m 0
 246 407 225 285 225 223 c 0
 225 165 246 160 261 160 c 0
 282 160 306 177 327 209 c 1
 356 404 l 1
 344 406 336 407 326 407 c 0
EndSplineSet
Substitution2: "'smcp' Lowercase to Small Capitals lookup 28 subtable" gcommaaccent.sc
Substitution2: "'aalt' Access All Alternates lookup 0 subtable" gcommaaccent.sc
EndChar
StartChar: Hcircumflex
Encoding: 292 292 110
Width: 638
GlyphClass: 2
Flags: MW
HStem: 0 21G<-7 220 -7 -7 345 571 345 345> 271 177<282 381 257 407> 678 20G<92 317 317 317 442 668 668 668>
VStem: -7 675
AnchorPoint: "Anchor-14" 332 349 basechar 0
AnchorPoint: "Anchor-13" 496 872 basechar 0
AnchorPoint: "Anchor-12" 411 983 basechar 0
AnchorPoint: "Anchor-11" 0 0 basechar 0
AnchorPoint: "Anchor-10" 280 0 basechar 0
LayerCount: 2
Back
Fore
SplineSet
519 750 m 1
 395 839 l 1
 246 750 l 1
 182 835 l 1
 347 983 l 1
 476 983 l 1
 599 835 l 1
 519 750 l 1
345 0 m 1
 381 271 l 1
 257 271 l 1
 220 0 l 1
 -7 0 l 1
 92 698 l 1
 317 698 l 1
 282 448 l 1
 407 448 l 1
 442 698 l 1
 668 698 l 1
 571 0 l 1
 345 0 l 1
EndSplineSet
Substitution2: "'c2sc' Capitals to Small Capitals lookup 27 subtable" hcircumflex.sc
Substitution2: "'aalt' Access All Alternates lookup 0 subtable" hcircumflex.sc
Position2: "'cpsp' Capital Spacing lookup 0 subtable" dx=5 dy=0 dh=10 dv=0
EndChar
StartChar: hcircumflex
Encoding: 293 293 471
Width: 554
GlyphClass: 2
Flags: MW
HStem: 0 21G<-9 208 -9 -9 276 493 276 276> 537 20G<404 476.5>
VStem: -9 572 323 228.48
AnchorPoint: "Anchor-14" 277 268 basechar 0
AnchorPoint: "Anchor-13" 460 920 basechar 0
AnchorPoint: "Anchor-12" 375 1031 basechar 0
AnchorPoint: "Anchor-11" 0 0 basechar 0
AnchorPoint: "Anchor-10" 243 0 basechar 0
LayerCount: 2
Back
Fore
SplineSet
483 798 m 1xe0
 359 887 l 1
 210 798 l 1
 146 883 l 1
 311 1031 l 1
 440 1031 l 1
 563 883 l 1
 483 798 l 1xe0
436 557 m 0xd0
 517 557 563 500 549 398 c 2
 493 0 l 1
 276 0 l 1
 323 335 l 2
 328 370 323 377 315 377 c 0
 302 377 281 344 247 269 c 1
 208 0 l 1
 -9 0 l 1
 95 745 l 1
 314 768 l 1
 272 456 l 1
 304 516 372 557 436 557 c 0xd0
EndSplineSet
Substitution2: "'smcp' Lowercase to Small Capitals lookup 28 subtable" hcircumflex.sc
Substitution2: "'aalt' Access All Alternates lookup 0 subtable" hcircumflex.sc
EndChar

StartChar: Hbar
Encoding: 294 294 41
Width: 666
GlyphClass: 2
Flags: MW
HStem: 0 21G<5 231 5 5 356 583 356 356> 271 177<293 393 269 418> 492 114<45 73 29 89 315 424 667 696> 492 206<29 328 29 328 299 299 299 328 102 424 651 680 651 651>
VStem: 5 707<0 606>
AnchorPoint: "Anchor-11" 0 0 basechar 0
AnchorPoint: "Anchor-10" -61 534 basechar 0
AnchorPoint: "Anchor-9" 391 698 basechar 0
AnchorPoint: "Anchor-8" 0 0 basechar 0
LayerCount: 2
Fore
SplineSet
696 492 m 1xd8
 651 492 l 1
 583 0 l 1
 356 0 l 1
 393 271 l 1
 269 271 l 1
 231 0 l 1
 5 0 l 1
 73 492 l 1
 29 492 l 1xd8
 45 606 l 1
 89 606 l 1xe8
 102 698 l 1
 328 698 l 1xd8
 315 606 l 1
 440 606 l 1xe8
 453 698 l 1
 680 698 l 1xd8
 667 606 l 1
 712 606 l 1xe8
 696 492 l 1xd8
424 492 m 1
 299 492 l 1
 293 448 l 1
 418 448 l 1
 424 492 l 1
EndSplineSet
Substitution2: "'c2sc' Capitals to Small Capitals lookup 23 subtable" hbar.sc
Substitution2: "'aalt' Access All Alternates lookup 0 subtable" hbar.sc
Position2: "'cpsp' Capital Spacing lookup 0 subtable" dx=5 dy=0 dh=10 dv=0
EndChar
StartChar: hbar
Encoding: 295 295 469
Width: 564
GlyphClass: 2
Flags: MW
HStem: 0 21G<1 219 1 1 286 504 286 286> 537 20G<414.5 487.5> 586 115<56 83 40 99 316 409> 725 20G<105 105>
VStem: 335.42 226.1
AnchorPoint: "Anchor-14" 287 268 basechar 0
AnchorPoint: "Anchor-13" 0 0 basechar 0
AnchorPoint: "Anchor-12" 354 745 basechar 0
AnchorPoint: "Anchor-11" 0 0 basechar 0
AnchorPoint: "Anchor-10" 253 0 basechar 0
LayerCount: 2
Back
Fore
SplineSet
447 557 m 0
 528 557 573 500 559 398 c 2
 504 0 l 1
 286 0 l 1
 333 335 l 2
 339 370 333 377 326 377 c 0
 312 377 291 344 258 269 c 1
 219 0 l 1
 1 0 l 1
 83 586 l 1
 40 586 l 1
 56 701 l 1
 99 701 l 1
 105 745 l 1
 325 768 l 1
 316 701 l 1
 441 701 l 1
 409 586 l 1
 300 586 l 1xb8
 282 456 l 1
 314 516 382 557 447 557 c 0
EndSplineSet
Substitution2: "'smcp' Lowercase to Small Capitals lookup 28 subtable" hbar.sc
Substitution2: "'aalt' Access All Alternates lookup 0 subtable" hbar.sc
EndChar
StartChar: Itilde
Encoding: 296 296 133
Width: 287
GlyphClass: 2
Flags: MW
HStem: 0 21G<-7 220 -7 -7> 678 20G<90 317 317 317> 740 154<270 296 270 304> 782 154<151.5 178>
VStem: -7 441
AnchorPoint: "Anchor-14" 0 0 basechar 0
AnchorPoint: "Anchor-13" 0 0 basechar 0
AnchorPoint: "Anchor-12" 226 937 basechar 0
AnchorPoint: "Anchor-11" 180 0 basechar 0
AnchorPoint: "Anchor-10" 107 0 basechar 0
LayerCount: 2
Back
Fore
SplineSet
270 740 m 0xe8
 226 740 192 782 164 782 c 0
 139 782 125 767 105 739 c 1
 12 789 l 1
 48 868 108 936 176 936 c 0xd8
 233 936 256 894 284 894 c 0
 308 894 323 910 342 937 c 1
 434 887 l 1
 399 810 338 740 270 740 c 0xe8
317 698 m 1xd8
 220 0 l 1
 -7 0 l 1
 90 698 l 1
 317 698 l 1xd8
EndSplineSet
Substitution2: "'c2sc' Capitals to Small Capitals lookup 27 subtable" itilde.sc
Substitution2: "'aalt' Access All Alternates lookup 0 subtable" itilde.sc
Position2: "'cpsp' Capital Spacing lookup 0 subtable" dx=5 dy=0 dh=10 dv=0
EndChar

StartChar: itilde
Encoding: 297 297 187
Width: 275
GlyphClass: 2
Flags: MW
HStem: 0 21G<-8 209 -8 -8> 516 20G<66 283 283 283> 614 154<247 273 247 281> 656 154<128.5 155> 741 20G<411 411>
VStem: -11 422<663 761>
AnchorPoint: "Anchor-11" 0 0 basechar 0
AnchorPoint: "Anchor-10" 0 0 basechar 0
AnchorPoint: "Anchor-9" 175 536 basechar 0
AnchorPoint: "Anchor-8" 171 0 basechar 0
LayerCount: 2
Fore
SplineSet
247 614 m 0xe4
 203 614 169 656 141 656 c 0
 116 656 102 641 82 613 c 1
 -11 663 l 1
 25 742 85 810 153 810 c 0xd4
 210 810 233 768 261 768 c 0
 285 768 300 784 319 811 c 1xe4
 411 761 l 1xcc
 376 684 315 614 247 614 c 0xe4
209 0 m 1xcc
 -8 0 l 1
 66 536 l 1
 283 536 l 1
 209 0 l 1xcc
EndSplineSet
Substitution2: "'smcp' Lowercase to Small Capitals lookup 24 subtable" itilde.sc
Substitution2: "'aalt' Access All Alternates lookup 0 subtable" itilde.sc
EndChar

StartChar: Imacron
Encoding: 298 298 51
Width: 287
GlyphClass: 2
Flags: MW
HStem: 0 21G<-7 219 -7 -7> 678 20G<90 316 316 316> 770 148<48 399 69 378>
VStem: -7 406
AnchorPoint: "Anchor-11" 0 0 basechar 0
AnchorPoint: "Anchor-10" -71 534 basechar 0
AnchorPoint: "Anchor-9" 203 698 basechar 0
AnchorPoint: "Anchor-8" 174 0 basechar 0
LayerCount: 2
Fore
SplineSet
48 770 m 1
 69 918 l 1
 399 918 l 1
 378 770 l 1
 48 770 l 1
219 0 m 1
 -7 0 l 1
 90 698 l 1
 316 698 l 1
 219 0 l 1
EndSplineSet
Substitution2: "'c2sc' Capitals to Small Capitals lookup 23 subtable" imacron.sc
Substitution2: "'aalt' Access All Alternates lookup 0 subtable" imacron.sc
Position2: "'cpsp' Capital Spacing lookup 0 subtable" dx=5 dy=0 dh=10 dv=0
EndChar
StartChar: imacron
Encoding: 299 299 492
Width: 275
GlyphClass: 2
Flags: MW
HStem: 0 21G<-8 209 -8 -8> 516 20G<66 283 283 283> 644 148<45 354 24 375>
VStem: -8 383
AnchorPoint: "Anchor-14" 0 0 basechar 0
AnchorPoint: "Anchor-13" 0 0 basechar 0
AnchorPoint: "Anchor-12" 201 792 basechar 0
AnchorPoint: "Anchor-11" 179 0 basechar 0
AnchorPoint: "Anchor-10" 101 0 basechar 0
LayerCount: 2
Back
Fore
SplineSet
354 644 m 1
 24 644 l 1
 45 792 l 1
 375 792 l 1
 354 644 l 1
283 536 m 1
 209 0 l 1
 -8 0 l 1
 66 536 l 1
 283 536 l 1
EndSplineSet
Substitution2: "'smcp' Lowercase to Small Capitals lookup 28 subtable" imacron.sc
Substitution2: "'aalt' Access All Alternates lookup 0 subtable" imacron.sc
EndChar
StartChar: ibreve
Encoding: 301 301 480
Width: 275
GlyphClass: 2
Flags: MW
HStem: 0 21G<-8 209 -8 -8> 516 20G<66 283 283 283> 622 149<176 219 176 243>
VStem: 18 111<833 850>
AnchorPoint: "Anchor-14" 0 0 basechar 0
AnchorPoint: "Anchor-13" 0 0 basechar 0
AnchorPoint: "Anchor-12" 208 851 basechar 0
AnchorPoint: "Anchor-11" 179 0 basechar 0
AnchorPoint: "Anchor-10" 101 0 basechar 0
LayerCount: 2
Back
Fore
SplineSet
180 622 m 0
 53 622 11 727 18 833 c 1
 129 850 l 1
 131 803 155 771 197 771 c 0
 241 771 271 805 287 851 c 1
 394 832 l 1
 374 726 306 622 180 622 c 0
283 536 m 1
 209 0 l 1
 -8 0 l 1
 66 536 l 1
 283 536 l 1
EndSplineSet
Substitution2: "'smcp' Lowercase to Small Capitals lookup 28 subtable" ibreve.sc
Substitution2: "'aalt' Access All Alternates lookup 0 subtable" ibreve.sc
EndChar
StartChar: Iogonek
Encoding: 302 302 130
Width: 287
GlyphClass: 2
Flags: MW
HStem: -259 125<3 97> 0 21G<172 220 172 172> 678 20G<90 317 317 317>
VStem: -104 150<-181.5 -90> -104 421
AnchorPoint: "Anchor-14" 0 0 basechar 0
AnchorPoint: "Anchor-13" 0 0 basechar 0
AnchorPoint: "Anchor-12" 204 698 basechar 0
AnchorPoint: "Anchor-11" 180 0 basechar 0
AnchorPoint: "Anchor-10" 107 0 basechar 0
LayerCount: 2
Back
Fore
SplineSet
90 698 m 1xe8
 317 698 l 1
 220 0 l 1
 172 0 l 1
 64 -32 46 -79 46 -101 c 0
 46 -125 60 -134 88 -134 c 0
 106 -134 128 -131 150 -126 c 1
 121 -251 l 1
 99 -256 72 -259 45 -259 c 0
 -39 -259 -104 -219 -104 -144 c 0
 -104 -83 -71 -32 -6 8 c 1xf0
 90 698 l 1xe8
EndSplineSet
Substitution2: "'c2sc' Capitals to Small Capitals lookup 27 subtable" iogonek.sc
Substitution2: "'aalt' Access All Alternates lookup 0 subtable" iogonek.sc
Position2: "'cpsp' Capital Spacing lookup 0 subtable" dx=5 dy=0 dh=10 dv=0
EndChar

StartChar: iogonek
Encoding: 303 303 186
Width: 275
GlyphClass: 2
Flags: MW
HStem: -259 125<-5 89> 0 21G<164 209 164 164> 516 20G<66 283 283 283> 608 232<182.5 221.5>
VStem: -112 150<-113 -112.5> 83 238
AnchorPoint: "Anchor-11" 0 0 basechar 0
AnchorPoint: "Anchor-10" 0 0 basechar 0
AnchorPoint: "Anchor-9" 175 536 basechar 0
AnchorPoint: "Anchor-8" 171 0 basechar 0
LayerCount: 2
Fore
SplineSet
217 840 m 0
 287 840 330 789 321 722 c 0
 313 658 256 608 187 608 c 0
 116 608 74 659 83 727 c 0
 91 790 148 840 217 840 c 0
66 536 m 1
 283 536 l 1
 209 0 l 1
 164 0 l 1
 56 -32 38 -79 38 -101 c 0
 38 -125 52 -134 80 -134 c 0
 98 -134 120 -131 142 -126 c 1
 113 -251 l 1
 91 -256 64 -259 37 -259 c 0
 -47 -259 -112 -219 -112 -144 c 0
 -112 -81 -77 -29 -6 12 c 1
 66 536 l 1
EndSplineSet
Substitution2: "'smcp' Lowercase to Small Capitals lookup 24 subtable" iogonek.sc
Substitution2: "'aalt' Access All Alternates lookup 0 subtable" iogonek.sc
EndChar

StartChar: Idotaccent
Encoding: 304 304 49
Width: 287
GlyphClass: 2
Flags: MW
HStem: 0 21G<-7 219 -7 -7> 678 20G<90 316 316 316> 734 232<205.5 244.5>
VStem: 106 238
AnchorPoint: "Anchor-11" 0 0 basechar 0
AnchorPoint: "Anchor-10" -71 534 basechar 0
AnchorPoint: "Anchor-9" 203 698 basechar 0
AnchorPoint: "Anchor-8" 174 0 basechar 0
LayerCount: 2
Fore
SplineSet
240 966 m 0
 310 966 353 915 344 848 c 0
 336 784 279 734 210 734 c 0
 139 734 97 785 106 853 c 0
 114 916 171 966 240 966 c 0
219 0 m 1
 -7 0 l 1
 90 698 l 1
 316 698 l 1
 219 0 l 1
EndSplineSet
Substitution2: "'c2sc' Capitals to Small Capitals lookup 23 subtable" i.sc.loclTRK
Substitution2: "'aalt' Access All Alternates lookup 0 subtable" i.sc.loclTRK
Position2: "'cpsp' Capital Spacing lookup 0 subtable" dx=5 dy=0 dh=10 dv=0
EndChar
StartChar: dotlessi
Encoding: 305 305 478
Width: 275
GlyphClass: 2
Flags: MW
HStem: 0 21G<-8 209 -8 -8> 516 20G<66 283 283 283>
VStem: -8 291
AnchorPoint: "Anchor-14" 0 0 basechar 0
AnchorPoint: "Anchor-13" 0 0 basechar 0
AnchorPoint: "Anchor-12" 175 536 basechar 0
AnchorPoint: "Anchor-11" 179 0 basechar 0
AnchorPoint: "Anchor-10" 101 0 basechar 0
LayerCount: 2
Back
Fore
SplineSet
283 536 m 1
 209 0 l 1
 -8 0 l 1
 66 536 l 1
 283 536 l 1
EndSplineSet
Substitution2: "'smcp' Lowercase to Small Capitals lookup 28 subtable" dotlessi.sc
Substitution2: "'aalt' Access All Alternates lookup 0 subtable" dotlessi.sc
EndChar

StartChar: IJ
Encoding: 306 306 44
Width: 607
GlyphClass: 2
Flags: MW
HStem: 0 21G<-7 219 -7 -7> 678 20G<90 316 316 316 411 638 638 638>
VStem: -7 645
AnchorPoint: "Anchor-11" 0 0 basechar 0
AnchorPoint: "Anchor-10" -71 534 basechar 0
AnchorPoint: "Anchor-9" 524 698 basechar 0
AnchorPoint: "Anchor-8" 174 0 basechar 0
LayerCount: 2
Fore
SplineSet
219 0 m 1
 -7 0 l 1
 90 698 l 1
 316 698 l 1
 219 0 l 1
557 114 m 1
 527 -91 380 -159 254 -201 c 1
 214 -39 l 1
 305 -5 320 49 331 123 c 2
 411 698 l 1
 638 698 l 1
 557 114 l 1
EndSplineSet
Substitution2: "'c2sc' Capitals to Small Capitals lookup 23 subtable" ij.sc
Substitution2: "'aalt' Access All Alternates lookup 0 subtable" ij.sc
Position2: "'cpsp' Capital Spacing lookup 0 subtable" dx=5 dy=0 dh=10 dv=0
EndChar

StartChar: ij
Encoding: 307 307 184
Width: 545
GlyphClass: 2
Flags: MW
HStem: -230 21G<195 195> 0 21G<-8 209 -8 -8> 516 20G<66 283 283 283 337 554 554 554> 608 232<182.5 221.5 453.5 492.5>
VStem: 83 238 354 238
AnchorPoint: "Anchor-11" 0 0 basechar 0
AnchorPoint: "Anchor-10" 0 0 basechar 0
AnchorPoint: "Anchor-9" 446 536 basechar 0
AnchorPoint: "Anchor-8" 171 0 basechar 0
LayerCount: 2
Fore
SplineSet
217 840 m 0
 287 840 330 789 321 722 c 0
 313 658 256 608 187 608 c 0
 116 608 74 659 83 727 c 0
 91 790 148 840 217 840 c 0
488 840 m 0
 558 840 601 789 592 722 c 0
 584 658 527 608 458 608 c 0
 387 608 345 659 354 727 c 0
 362 790 419 840 488 840 c 0
209 0 m 1
 -8 0 l 1
 66 536 l 1
 283 536 l 1
 209 0 l 1
492 87 m 2
 465 -110 334 -189 195 -230 c 1
 144 -73 l 1
 223 -47 262 -7 273 74 c 2
 337 536 l 1
 554 536 l 1
 492 87 l 2
EndSplineSet
Substitution2: "'smcp' Lowercase to Small Capitals lookup 24 subtable" ij.sc
Substitution2: "'aalt' Access All Alternates lookup 0 subtable" ij.sc
EndChar
StartChar: Jcircumflex
Encoding: 308 308 135
Width: 320
GlyphClass: 2
Flags: MW
HStem: 678 20G<124 351 351 351>
VStem: -73 530
AnchorPoint: "Anchor-14" 0 0 basechar 0
AnchorPoint: "Anchor-13" 354 872 basechar 0
AnchorPoint: "Anchor-12" 269 983 basechar 0
AnchorPoint: "Anchor-11" 0 0 basechar 0
AnchorPoint: "Anchor-10" 0 0 basechar 0
LayerCount: 2
Back
Fore
SplineSet
377 750 m 1
 253 839 l 1
 104 750 l 1
 40 835 l 1
 205 983 l 1
 334 983 l 1
 457 835 l 1
 377 750 l 1
351 698 m 1
 270 114 l 2
 240 -91 93 -159 -33 -201 c 1
 -73 -39 l 1
 18 -5 33 49 44 123 c 2
 124 698 l 1
 351 698 l 1
EndSplineSet
Substitution2: "'c2sc' Capitals to Small Capitals lookup 27 subtable" jcircumflex.sc
Substitution2: "'aalt' Access All Alternates lookup 0 subtable" jcircumflex.sc
Position2: "'cpsp' Capital Spacing lookup 0 subtable" dx=5 dy=0 dh=10 dv=0
EndChar
StartChar: jcircumflex
Encoding: 309 309 500
Width: 271
GlyphClass: 2
Flags: MW
HStem: 516 20G<62 279 279 279>
VStem: -131 528
AnchorPoint: "Anchor-14" 0 0 basechar 0
AnchorPoint: "Anchor-13" 0 0 basechar 0
AnchorPoint: "Anchor-12" 211 851 basechar 0
AnchorPoint: "Anchor-11" 0 0 basechar 0
AnchorPoint: "Anchor-10" 63 -218 basechar 0
LayerCount: 2
Back
Fore
SplineSet
44 607 m 1
 -19 691 l 1
 147 851 l 1
 276 851 l 1
 397 691 l 1
 315 607 l 1
 194 706 l 1
 44 607 l 1
279 536 m 1
 217 87 l 2
 190 -110 59 -189 -80 -230 c 1
 -131 -73 l 1
 -52 -47 -13 -7 -2 74 c 2
 62 536 l 1
 279 536 l 1
EndSplineSet
Substitution2: "'smcp' Lowercase to Small Capitals lookup 28 subtable" jcircumflex.sc
Substitution2: "'aalt' Access All Alternates lookup 0 subtable" jcircumflex.sc
EndChar
StartChar: Kcommaaccent
Encoding: 310 310 139
Width: 661
GlyphClass: 2
Flags: MW
HStem: 0 21G<-7 220 -7 -7 395 395 395 649> 678 20G<90 317 317 317 495 728 728 728>
VStem: -7 735<0 698> 174 197<-164.5 -137.5>
AnchorPoint: "Anchor-14" 0 0 basechar 0
AnchorPoint: "Anchor-13" 0 0 basechar 0
AnchorPoint: "Anchor-12" 385 698 basechar 0
AnchorPoint: "Anchor-11" 0 0 basechar 0
AnchorPoint: "Anchor-10" 291 0 basechar 0
LayerCount: 2
Back
Fore
SplineSet
317 698 m 1xe0
 220 0 l 1
 -7 0 l 1
 90 698 l 1
 317 698 l 1xe0
728 698 m 1
 505 380 l 1
 649 0 l 1
 395 0 l 1
 278 372 l 1
 495 698 l 1
 728 698 l 1
279 -59 m 0xd0
 331 -59 371 -92 371 -145 c 0
 371 -184 357 -211 331 -251 c 2
 266 -352 l 1
 165 -352 l 1
 208 -237 l 1
 186 -222 174 -202 174 -172 c 0
 174 -103 221 -59 279 -59 c 0xd0
EndSplineSet
Substitution2: "'c2sc' Capitals to Small Capitals lookup 27 subtable" kcommaaccent.sc
Substitution2: "'aalt' Access All Alternates lookup 0 subtable" kcommaaccent.sc
Position2: "'cpsp' Capital Spacing lookup 0 subtable" dx=5 dy=0 dh=10 dv=0
EndChar

StartChar: kcommaaccent
Encoding: 311 311 192
Width: 589
GlyphClass: 2
Flags: MW
HStem: 0 21G<-8 211 -8 -8 322 559 322 322> 537 20G<418.5 499.5> 747 20G<317 317>
VStem: -8 615<0 463.5> 145 197<-164.5 -137> 388 219<382.5 390.5>
AnchorPoint: "Anchor-11" 267 0 basechar 0
AnchorPoint: "Anchor-10" 0 0 basechar 0
AnchorPoint: "Anchor-9" 0 0 basechar 0
AnchorPoint: "Anchor-8" 0 0 basechar 0
LayerCount: 2
Fore
SplineSet
278 488 m 1xf0
 335 540 388 557 449 557 c 0
 550 557 607 504 607 423 c 0
 607 342 566 283 480 239 c 1
 559 0 l 1
 322 0 l 1
 255 256 l 1
 364 296 388 341 388 380 c 0
 388 401 376 411 355 411 c 0xe4
 329 411 300 394 258 341 c 1
 211 0 l 1
 -8 0 l 1
 96 745 l 1
 317 767 l 1
 278 488 l 1xf0
256 -59 m 0xe8
 307 -59 342 -93 342 -145 c 0
 342 -184 328 -211 302 -251 c 2
 237 -352 l 1
 136 -352 l 1
 179 -237 l 1
 157 -222 145 -202 145 -172 c 0
 145 -102 196 -59 256 -59 c 0xe8
EndSplineSet
Substitution2: "'smcp' Lowercase to Small Capitals lookup 24 subtable" kcommaaccent.sc
Substitution2: "'aalt' Access All Alternates lookup 0 subtable" kcommaaccent.sc
EndChar

StartChar: kgreenlandic
Encoding: 312 312 193
Width: 577
GlyphClass: 2
Flags: MW
HStem: 0 21G<-8 211 -8 -8 326 326 326 560> 516 20G<66 285 285 285 404 629 629 629>
VStem: -8 637<0 536>
LayerCount: 2
Fore
SplineSet
211 0 m 1
 -8 0 l 1
 66 536 l 1
 285 536 l 1
 211 0 l 1
472 287 m 1
 560 0 l 1
 326 0 l 1
 253 283 l 1
 404 536 l 1
 629 536 l 1
 472 287 l 1
EndSplineSet
Substitution2: "'smcp' Lowercase to Small Capitals lookup 24 subtable" kgreenlandic.sc
Substitution2: "'aalt' Access All Alternates lookup 0 subtable" kgreenlandic.sc
EndChar
StartChar: Lacute
Encoding: 313 313 143
Width: 519
GlyphClass: 2
Flags: MW
HStem: 0 175<244 449> 678 20G<90 317 317 317>
VStem: -7 503<0 175>
AnchorPoint: "Anchor-14" 417 407 basechar 0
AnchorPoint: "Anchor-13" 334 698 basechar 0
AnchorPoint: "Anchor-12" 231 1002 basechar 0
AnchorPoint: "Anchor-11" 0 0 basechar 0
AnchorPoint: "Anchor-10" 222 0 basechar 0
LayerCount: 2
Back
Fore
SplineSet
304 1002 m 1
 388 843 l 1
 131 739 l 1
 70 849 l 1
 304 1002 l 1
317 698 m 1
 244 175 l 1
 496 175 l 1
 449 0 l 1
 -7 0 l 1
 90 698 l 1
 317 698 l 1
EndSplineSet
Substitution2: "'c2sc' Capitals to Small Capitals lookup 27 subtable" lacute.sc
Substitution2: "'aalt' Access All Alternates lookup 0 subtable" lacute.sc
Position2: "'cpsp' Capital Spacing lookup 0 subtable" dx=5 dy=0 dh=10 dv=0
EndChar
StartChar: lacute
Encoding: 314 314 512
Width: 288
GlyphClass: 2
Flags: MW
HStem: 0 21G<280 280>
VStem: 4.95 377.05
AnchorPoint: "Anchor-14" 414 371 basechar 0
AnchorPoint: "Anchor-13" 328 745 basechar 0
AnchorPoint: "Anchor-12" 225 1050 basechar 0
AnchorPoint: "Anchor-11" 0 0 basechar 0
AnchorPoint: "Anchor-10" 141 0 basechar 0
LayerCount: 2
Back
Fore
SplineSet
298 1050 m 1
 382 891 l 1
 125 787 l 1
 64 897 l 1
 298 1050 l 1
309 767 m 1
 228 186 l 2
 224 157 235 151 246 151 c 0
 249 151 256 153 262 154 c 1
 280 0 l 1
 249 -13 199 -22 154 -22 c 0
 46 -22 -9 43 8 160 c 2
 90 745 l 1
 309 767 l 1
EndSplineSet
Substitution2: "'smcp' Lowercase to Small Capitals lookup 28 subtable" lacute.sc
Substitution2: "'aalt' Access All Alternates lookup 0 subtable" lacute.sc
EndChar
StartChar: Lcommaaccent
Encoding: 315 315 147
Width: 519
GlyphClass: 2
Flags: MW
HStem: 0 175<244 449> 678 20G<90 317 317 317>
VStem: -7 503<0 175> 105 197<-164.5 -137.5>
AnchorPoint: "Anchor-14" 417 407 basechar 0
AnchorPoint: "Anchor-13" 334 698 basechar 0
AnchorPoint: "Anchor-12" 204 698 basechar 0
AnchorPoint: "Anchor-11" 0 0 basechar 0
AnchorPoint: "Anchor-10" 222 0 basechar 0
LayerCount: 2
Back
Fore
SplineSet
317 698 m 1xe0
 244 175 l 1
 496 175 l 1
 449 0 l 1
 -7 0 l 1
 90 698 l 1
 317 698 l 1xe0
210 -59 m 0xd0
 262 -59 302 -92 302 -145 c 0
 302 -184 288 -211 262 -251 c 2
 197 -352 l 1
 96 -352 l 1
 139 -237 l 1
 117 -222 105 -202 105 -172 c 0
 105 -103 152 -59 210 -59 c 0xd0
EndSplineSet
Substitution2: "'c2sc' Capitals to Small Capitals lookup 27 subtable" lcommaaccent.sc
Substitution2: "'aalt' Access All Alternates lookup 0 subtable" lcommaaccent.sc
Position2: "'cpsp' Capital Spacing lookup 0 subtable" dx=5 dy=0 dh=10 dv=0
EndChar

StartChar: lcommaaccent
Encoding: 316 316 197
Width: 289
GlyphClass: 2
Flags: MW
HStem: -22 21G<102 178.5> 0 21G<281 281> 747 20G<311 311>
VStem: 5.99001 305.01 30 197
AnchorPoint: "Anchor-11" 151 0 basechar 0
AnchorPoint: "Anchor-10" 0 0 basechar 0
AnchorPoint: "Anchor-9" 200 745 basechar 0
AnchorPoint: "Anchor-8" 0 0 basechar 0
LayerCount: 2
Fore
SplineSet
229 186 m 2x70
 225 157 236 151 247 151 c 0
 251 151 258 153 264 154 c 1
 281 0 l 1
 251 -13 201 -22 156 -22 c 0xb0
 48 -22 -8 43 9 160 c 2
 91 745 l 1
 311 767 l 1
 229 186 l 2x70
141 -59 m 0x68
 192 -59 227 -93 227 -145 c 0
 227 -184 213 -211 187 -251 c 2
 122 -352 l 1
 21 -352 l 1
 64 -237 l 1
 42 -222 30 -202 30 -172 c 0
 30 -102 81 -59 141 -59 c 0x68
EndSplineSet
Substitution2: "'smcp' Lowercase to Small Capitals lookup 24 subtable" lcommaaccent.sc
Substitution2: "'aalt' Access All Alternates lookup 0 subtable" lcommaaccent.sc
EndChar

StartChar: Lcaron
Encoding: 317 317 60
Width: 519
GlyphClass: 2
Flags: MW
HStem: 0 175<244 449> 678 20G<90 317 317 317> 695 20G<398 398>
VStem: -7 554
AnchorPoint: "Anchor-11" 221 0 basechar 0
AnchorPoint: "Anchor-10" 0 0 basechar 0
AnchorPoint: "Anchor-9" 204 698 basechar 0
AnchorPoint: "Anchor-8" 0 0 basechar 0
LayerCount: 2
Fore
SplineSet
547 696 m 1xb0
 466 451 l 1
 359 459 l 1
 398 715 l 1
 547 696 l 1xb0
244 175 m 1
 496 175 l 1
 449 0 l 1
 -7 0 l 1
 90 698 l 1
 317 698 l 1xd0
 244 175 l 1
EndSplineSet
Substitution2: "'c2sc' Capitals to Small Capitals lookup 23 subtable" lcaron.sc
Substitution2: "'aalt' Access All Alternates lookup 0 subtable" lcaron.sc
Position2: "'cpsp' Capital Spacing lookup 0 subtable" dx=5 dy=0 dh=10 dv=0
EndChar

StartChar: lcaron
Encoding: 318 318 196
Width: 460
GlyphClass: 2
Flags: MW
HStem: -22 21G<49 125.5> 0 21G<229 229> 743 20G<337 337> 747 20G<258 258>
VStem: -47 533.01
AnchorPoint: "Anchor-11" 98 0 basechar 0
AnchorPoint: "Anchor-10" 0 0 basechar 0
AnchorPoint: "Anchor-9" 147 745 basechar 0
AnchorPoint: "Anchor-8" 0 0 basechar 0
LayerCount: 2
Fore
SplineSet
177 186 m 2x58
 172 157 184 151 194 151 c 0
 198 151 205 153 211 154 c 1
 229 0 l 1
 198 -13 148 -22 103 -22 c 0x98
 -5 -22 -61 43 -44 160 c 2
 38 745 l 1
 258 767 l 1
 177 186 l 2x58
486 744 m 1x68
 405 499 l 1
 298 507 l 1
 337 763 l 1
 486 744 l 1x68
EndSplineSet
Substitution2: "'smcp' Lowercase to Small Capitals lookup 24 subtable" lcaron.sc
Substitution2: "'aalt' Access All Alternates lookup 0 subtable" lcaron.sc
EndChar
StartChar: Ldot
Encoding: 319 319 148
Width: 519
GlyphClass: 2
Flags: MW
HStem: 0 175<244 449> 291 232<398.5 437.5> 678 20G<90 317 317 317>
VStem: -7 544.98
AnchorPoint: "Anchor-14" 417 407 basechar 0
AnchorPoint: "Anchor-13" 334 698 basechar 0
AnchorPoint: "Anchor-12" 432 523 basechar 0
AnchorPoint: "Anchor-11" 0 0 basechar 0
AnchorPoint: "Anchor-10" 222 0 basechar 0
LayerCount: 2
Back
Fore
SplineSet
317 698 m 1
 244 175 l 1
 496 175 l 1
 449 0 l 1
 -7 0 l 1
 90 698 l 1
 317 698 l 1
433 523 m 0
 503 523 546 472 537 405 c 0
 529 341 472 291 403 291 c 0
 332 291 290 342 299 410 c 0
 307 473 364 523 433 523 c 0
EndSplineSet
Ligature2: "Ligature Substitution lookup 40 subtable" L periodcentered
Substitution2: "'c2sc' Capitals to Small Capitals lookup 27 subtable" ldot.sc
Substitution2: "'aalt' Access All Alternates lookup 0 subtable" ldot.sc
Position2: "'cpsp' Capital Spacing lookup 0 subtable" dx=5 dy=0 dh=10 dv=0
EndChar
StartChar: ldot
Encoding: 320 320 520
Width: 539
GlyphClass: 2
Flags: MW
HStem: 0 21G<280 280> 256 232<395.5 434.5>
VStem: 4.95 530.03
AnchorPoint: "Anchor-14" 414 371 basechar 0
AnchorPoint: "Anchor-13" 328 745 basechar 0
AnchorPoint: "Anchor-12" 429 488 basechar 0
AnchorPoint: "Anchor-11" 0 0 basechar 0
AnchorPoint: "Anchor-10" 141 0 basechar 0
LayerCount: 2
Back
Fore
SplineSet
309 767 m 1
 228 186 l 2
 224 157 235 151 246 151 c 0
 249 151 256 153 262 154 c 1
 280 0 l 1
 249 -13 199 -22 154 -22 c 0
 46 -22 -9 43 8 160 c 2
 90 745 l 1
 309 767 l 1
430 488 m 0
 500 488 543 437 534 370 c 0
 526 306 469 256 400 256 c 0
 329 256 287 307 296 375 c 0
 304 438 361 488 430 488 c 0
EndSplineSet
Ligature2: "Ligature Substitution lookup 40 subtable" l periodcentered
Substitution2: "'smcp' Lowercase to Small Capitals lookup 28 subtable" ldot.sc
Substitution2: "'aalt' Access All Alternates lookup 0 subtable" ldot.sc
EndChar

StartChar: Lslash
Encoding: 321 321 63
Width: 576
GlyphClass: 2
Flags: MW
HStem: 0 175<301 506 46 50> 531 20G<446 446> 678 20G<147 373 373 373>
VStem: -5 557<175 288>
LayerCount: 2
Fore
SplineSet
506 0 m 1
 50 0 l 1
 77 194 l 1
 46 175 l 1
 -5 288 l 1
 98 348 l 1
 147 698 l 1
 373 698 l 1
 345 491 l 1
 446 551 l 1
 499 439 l 1
 323 336 l 1
 301 175 l 1
 552 175 l 1
 506 0 l 1
EndSplineSet
Substitution2: "'c2sc' Capitals to Small Capitals lookup 23 subtable" lslash.sc
Substitution2: "'aalt' Access All Alternates lookup 0 subtable" lslash.sc
Position2: "'cpsp' Capital Spacing lookup 0 subtable" dx=5 dy=0 dh=10 dv=0
EndChar

StartChar: lslash
Encoding: 322 322 199
Width: 373
GlyphClass: 2
Flags: MW
HStem: -22 21G<146 222.5> 0 21G<326 326> 517 20G<323 323> 747 20G<355 355>
VStem: -10 412<343 437>
AnchorPoint: "Anchor-11" 195 0 basechar 0
AnchorPoint: "Anchor-10" 0 0 basechar 0
AnchorPoint: "Anchor-9" 244 745 basechar 0
AnchorPoint: "Anchor-8" 0 0 basechar 0
LayerCount: 2
Fore
SplineSet
291 151 m 0
 295 151 302 153 308 154 c 1
 326 0 l 1
 295 -13 245 -22 200 -22 c 0xb8
 92 -22 36 43 53 160 c 2
 65 242 l 1
 19 216 l 1
 -10 343 l 1
 87 399 l 1
 135 745 l 1
 355 767 l 1
 323 537 l 1
 377 568 l 1
 402 437 l 1
 301 379 l 1
 274 186 l 2
 269 157 280 151 291 151 c 0
EndSplineSet
Substitution2: "'smcp' Lowercase to Small Capitals lookup 24 subtable" lslash.sc
Substitution2: "'aalt' Access All Alternates lookup 0 subtable" lslash.sc
EndChar
StartChar: Nacute
Encoding: 323 323 158
Width: 630
GlyphClass: 2
Flags: MW
HStem: 0 21G<-7 189 -7 -7 279 563 279 279> 678 20G<90 369 369 369 464 660 660 660>
VStem: -7 667
AnchorPoint: "Anchor-14" 0 0 basechar 0
AnchorPoint: "Anchor-13" 0 0 basechar 0
AnchorPoint: "Anchor-12" 400 1002 basechar 0
AnchorPoint: "Anchor-11" 0 0 basechar 0
AnchorPoint: "Anchor-10" 278 0 basechar 0
LayerCount: 2
Back
Fore
SplineSet
473 1002 m 1
 557 843 l 1
 300 739 l 1
 239 849 l 1
 473 1002 l 1
660 698 m 1
 563 0 l 1
 279 0 l 1
 220 509 l 1
 226 421 234 322 215 181 c 2
 189 0 l 1
 -7 0 l 1
 90 698 l 1
 369 698 l 1
 433 189 l 1
 425 290 419 374 440 522 c 2
 464 698 l 1
 660 698 l 1
EndSplineSet
Substitution2: "'c2sc' Capitals to Small Capitals lookup 27 subtable" nacute.sc
Substitution2: "'locl' Localized Forms in Latin lookup 7 subtable" Nacute.loclPLK
AlternateSubs2: "'aalt' Access All Alternates lookup 1 subtable" Nacute.loclPLK nacute.sc
Position2: "'cpsp' Capital Spacing lookup 0 subtable" dx=5 dy=0 dh=10 dv=0
EndChar

StartChar: nacute
Encoding: 324 324 202
Width: 555
GlyphClass: 2
Flags: MW
HStem: 0 21G<-8 209 -8 -8 277 494 277 277> 377 159<66 326.5> 516 20G<66 256 256 256> 537 20G<403 474.5>
VStem: 331.57 220.9
AnchorPoint: "Anchor-11" 241 0 basechar 0
AnchorPoint: "Anchor-10" 58 536 basechar 0
AnchorPoint: "Anchor-9" 320 536 basechar 0
AnchorPoint: "Anchor-8" 0 0 basechar 0
LayerCount: 2
Fore
SplineSet
491 709 m 1x98
 222 607 l 1
 180 718 l 1
 432 868 l 1
 491 709 l 1x98
431 557 m 0
 518 557 564 500 550 397 c 2
 494 0 l 1
 277 0 l 1
 329 335 l 2
 335 369 330 377 323 377 c 0xc8
 308 377 282 344 249 269 c 1
 209 0 l 1
 -8 0 l 1
 66 536 l 1
 256 536 l 1xa8
 259 451 l 1
 299 515 375 557 431 557 c 0
EndSplineSet
Substitution2: "'smcp' Lowercase to Small Capitals lookup 24 subtable" nacute.sc
Substitution2: "'locl' Localized Forms in Latin lookup 7 subtable" nacute.loclPLK
AlternateSubs2: "'aalt' Access All Alternates lookup 1 subtable" nacute.loclPLK nacute.sc
EndChar

StartChar: Ncommaaccent
Encoding: 325 325 68
Width: 630
GlyphClass: 2
Flags: MW
HStem: 0 21G<-7 189 -7 -7 279 563 279 279> 0 189<433 433 433 563 279 433> 509 189<220 220> 678 20G<90 369 369 369 464 660 660 660>
VStem: -7 667 162 197<-164.5 -137>
AnchorPoint: "Anchor-11" 278 0 basechar 0
AnchorPoint: "Anchor-10" 0 0 basechar 0
AnchorPoint: "Anchor-9" 373 698 basechar 0
AnchorPoint: "Anchor-8" 0 0 basechar 0
LayerCount: 2
Fore
SplineSet
563 0 m 1x98
 279 0 l 1
 220 509 l 1xa8
 226 421 234 322 215 181 c 1
 189 0 l 1
 -7 0 l 1
 90 698 l 1
 369 698 l 1
 433 189 l 1x58
 425 290 419 374 440 522 c 2
 464 698 l 1
 660 698 l 1
 563 0 l 1x98
273 -59 m 0x94
 324 -59 359 -93 359 -145 c 0
 359 -184 345 -211 319 -251 c 2
 254 -352 l 1
 153 -352 l 1
 196 -237 l 1
 174 -222 162 -202 162 -172 c 0
 162 -102 213 -59 273 -59 c 0x94
EndSplineSet
Substitution2: "'c2sc' Capitals to Small Capitals lookup 23 subtable" ncommaaccent.sc
Substitution2: "'aalt' Access All Alternates lookup 0 subtable" ncommaaccent.sc
Position2: "'cpsp' Capital Spacing lookup 0 subtable" dx=5 dy=0 dh=10 dv=0
EndChar

StartChar: ncommaaccent
Encoding: 326 326 205
Width: 555
GlyphClass: 2
Flags: MW
HStem: 0 21G<-8 209 -8 -8 277 494 277 277> 377 159<66 326.5> 516 20G<66 256 256 256> 537 20G<403 474.5>
VStem: 119 197<-164.5 -137> 331.57 220.9
AnchorPoint: "Anchor-11" 241 0 basechar 0
AnchorPoint: "Anchor-10" 58 536 basechar 0
AnchorPoint: "Anchor-9" 320 536 basechar 0
AnchorPoint: "Anchor-8" 0 0 basechar 0
LayerCount: 2
Fore
SplineSet
431 557 m 0x94
 518 557 564 500 550 397 c 2
 494 0 l 1
 277 0 l 1
 329 335 l 2
 335 369 330 377 323 377 c 0xc4
 308 377 282 344 249 269 c 1
 209 0 l 1
 -8 0 l 1
 66 536 l 1
 256 536 l 1xa4
 259 451 l 1
 299 515 375 557 431 557 c 0x94
230 -59 m 0x9c
 281 -59 316 -93 316 -145 c 0
 316 -184 302 -211 276 -251 c 2
 211 -352 l 1
 110 -352 l 1
 153 -237 l 1
 131 -222 119 -202 119 -172 c 0
 119 -102 170 -59 230 -59 c 0x9c
EndSplineSet
Substitution2: "'smcp' Lowercase to Small Capitals lookup 24 subtable" ncommaaccent.sc
Substitution2: "'aalt' Access All Alternates lookup 0 subtable" ncommaaccent.sc
EndChar
StartChar: Ncaron
Encoding: 327 327 159
Width: 630
GlyphClass: 2
Flags: MW
HStem: 0 21G<-7 189 -7 -7 279 563 279 279> 678 20G<90 369 369 369 464 660 660 660>
VStem: -7 667
AnchorPoint: "Anchor-14" 0 0 basechar 0
AnchorPoint: "Anchor-13" 0 0 basechar 0
AnchorPoint: "Anchor-12" 398 976 basechar 0
AnchorPoint: "Anchor-11" 0 0 basechar 0
AnchorPoint: "Anchor-10" 278 0 basechar 0
LayerCount: 2
Back
Fore
SplineSet
541 976 m 1
 604 893 l 1
 440 745 l 1
 311 745 l 1
 187 893 l 1
 268 976 l 1
 393 889 l 1
 541 976 l 1
660 698 m 1
 563 0 l 1
 279 0 l 1
 220 509 l 1
 226 421 234 322 215 181 c 2
 189 0 l 1
 -7 0 l 1
 90 698 l 1
 369 698 l 1
 433 189 l 1
 425 290 419 374 440 522 c 2
 464 698 l 1
 660 698 l 1
EndSplineSet
Substitution2: "'c2sc' Capitals to Small Capitals lookup 27 subtable" ncaron.sc
Substitution2: "'aalt' Access All Alternates lookup 0 subtable" ncaron.sc
Position2: "'cpsp' Capital Spacing lookup 0 subtable" dx=5 dy=0 dh=10 dv=0
EndChar

StartChar: ncaron
Encoding: 328 328 204
Width: 555
GlyphClass: 2
Flags: MW
HStem: 0 21G<-8 209 -8 -8 277 494 277 277> 377 159<66 326.5> 516 20G<66 256 256 256> 537 20G<403 474.5> 736 20G<143 143 559 559>
VStem: 331.57 220.9
AnchorPoint: "Anchor-11" 241 0 basechar 0
AnchorPoint: "Anchor-10" 58 536 basechar 0
AnchorPoint: "Anchor-9" 320 536 basechar 0
AnchorPoint: "Anchor-8" 0 0 basechar 0
LayerCount: 2
Fore
SplineSet
559 756 m 1x9c
 394 596 l 1
 266 596 l 1
 143 756 l 1
 222 840 l 1
 344 741 l 1
 493 840 l 1
 559 756 l 1x9c
431 557 m 0
 518 557 564 500 550 397 c 2
 494 0 l 1
 277 0 l 1
 329 335 l 2
 335 369 330 377 323 377 c 0xcc
 308 377 282 344 249 269 c 1
 209 0 l 1
 -8 0 l 1
 66 536 l 1
 256 536 l 1xac
 259 451 l 1
 299 515 375 557 431 557 c 0
EndSplineSet
Substitution2: "'smcp' Lowercase to Small Capitals lookup 24 subtable" ncaron.sc
Substitution2: "'aalt' Access All Alternates lookup 0 subtable" ncaron.sc
EndChar

StartChar: napostrophe
Encoding: 329 329 203
Width: 685
GlyphClass: 2
Flags: MW
HStem: 0 21G<-8 209 -8 -8 277 494 277 277> 516 20G<66 79 79 79 162 256 256 256> 537 20G<403 474.5> 746 20G<152 197.5>
VStem: 86 159 331.57 220.9
AnchorPoint: "Anchor-11" 241 0 basechar 0
AnchorPoint: "Anchor-10" 58 536 basechar 0
AnchorPoint: "Anchor-9" 320 536 basechar 0
AnchorPoint: "Anchor-8" 0 0 basechar 0
LayerCount: 2
Fore
SplineSet
431 557 m 0
 518 557 564 500 550 397 c 2
 494 0 l 1
 277 0 l 1
 329 335 l 2
 335 369 330 377 323 377 c 0
 308 377 282 344 249 269 c 1
 209 0 l 1
 -8 0 l 1
 66 536 l 1
 79 536 l 1
 110 621 l 1
 93 635 82 656 86 689 c 0
 91 729 130 766 174 766 c 0
 221 766 251 731 245 684 c 0
 242 658 231 638 213 612 c 2
 162 536 l 1
 256 536 l 1xdc
 259 451 l 1
 299 515 375 557 431 557 c 0
EndSplineSet
Substitution2: "'smcp' Lowercase to Small Capitals lookup 24 subtable" napostrophe.sc
Substitution2: "'aalt' Access All Alternates lookup 0 subtable" napostrophe.sc
EndChar

StartChar: Eng
Encoding: 330 330 69
Width: 630
GlyphClass: 2
Flags: MW
HStem: -230 21G<278 278> 0 21G<-7 189 -7 -7 279 359 279 279 563 563> 509 189<220 220> 678 20G<90 369 369 369 464 660 660 660>
VStem: -7 667
AnchorPoint: "Anchor-11" 278 0 basechar 0
AnchorPoint: "Anchor-10" 0 0 basechar 0
AnchorPoint: "Anchor-9" 373 698 basechar 0
AnchorPoint: "Anchor-8" 0 0 basechar 0
LayerCount: 2
Fore
SplineSet
660 698 m 1xd8
 563 0 l 2
 548 -110 448 -192 278 -230 c 1
 229 -82 l 1
 296 -60 336 -39 359 0 c 1
 279 0 l 1
 220 509 l 1xe8
 226 421 234 322 215 181 c 1
 189 0 l 1
 -7 0 l 1
 90 698 l 1
 369 698 l 1
 433 189 l 1
 425 290 419 374 440 522 c 2
 464 698 l 1
 660 698 l 1xd8
EndSplineSet
Substitution2: "'c2sc' Capitals to Small Capitals lookup 23 subtable" eng.sc
Substitution2: "'aalt' Access All Alternates lookup 0 subtable" eng.sc
Position2: "'cpsp' Capital Spacing lookup 0 subtable" dx=5 dy=0 dh=10 dv=0
EndChar

StartChar: eng
Encoding: 331 331 206
Width: 555
GlyphClass: 2
Flags: MW
HStem: -230 21G<209 209> 0 21G<-8 209 -8 -8> 377 159<66 326.5> 516 20G<66 256 256 256> 537 20G<403 474.5>
VStem: 331.15 221.6
LayerCount: 2
Fore
SplineSet
431 557 m 0xcc
 518 557 565 501 550 397 c 2
 506 87 l 2
 479 -110 349 -189 209 -230 c 1
 158 -71 l 1
 236 -48 277 -7 290 74 c 2
 329 335 l 2
 334 370 330 377 323 377 c 0xe4
 308 377 282 344 249 269 c 1
 209 0 l 1
 -8 0 l 1
 66 536 l 1
 256 536 l 1xd4
 259 452 l 1
 300 517 375 557 431 557 c 0xcc
EndSplineSet
Substitution2: "'smcp' Lowercase to Small Capitals lookup 24 subtable" eng.sc
Substitution2: "'aalt' Access All Alternates lookup 0 subtable" eng.sc
EndChar

StartChar: Omacron
Encoding: 332 332 78
Width: 676
GlyphClass: 2
Flags: MW
HStem: -22 162<293.5 376 293.5 448.5> 558 161<323 405> 770 148<242 593 263 572>
VStem: 17 233<207 290 207 365.5> 449 233<407 492>
AnchorPoint: "Anchor-11" 0 0 basechar 0
AnchorPoint: "Anchor-10" -34 534 basechar 0
AnchorPoint: "Anchor-9" 397 698 basechar 0
AnchorPoint: "Anchor-8" 0 0 basechar 0
LayerCount: 2
Fore
SplineSet
242 770 m 1
 263 918 l 1
 593 918 l 1
 572 770 l 1
 242 770 l 1
400 719 m 0
 586 719 682 610 682 431 c 0
 682 241 598 -22 299 -22 c 0
 113 -22 17 90 17 269 c 0
 17 462 104 719 400 719 c 0
381 558 m 0
 265 558 250 336 250 244 c 0
 250 170 269 140 318 140 c 0
 434 140 449 359 449 455 c 0
 449 529 429 558 381 558 c 0
EndSplineSet
Substitution2: "'c2sc' Capitals to Small Capitals lookup 23 subtable" omacron.sc
Substitution2: "'aalt' Access All Alternates lookup 0 subtable" omacron.sc
Position2: "'cpsp' Capital Spacing lookup 0 subtable" dx=5 dy=0 dh=10 dv=0
EndChar
StartChar: omacron
Encoding: 333 333 579
Width: 571
GlyphClass: 2
Flags: MW
HStem: -22 158<250 301 250 365.5> 400 157<267 318.5> 644 148<182 491 161 512>
VStem: 4 221<177.5 233 177.5 295> 344 221
AnchorPoint: "Anchor-14" 0 0 basechar 0
AnchorPoint: "Anchor-13" 550 536 basechar 0
AnchorPoint: "Anchor-12" 338 792 basechar 0
AnchorPoint: "Anchor-11" 0 0 basechar 0
AnchorPoint: "Anchor-10" 252 0 basechar 0
LayerCount: 2
Back
Fore
SplineSet
491 644 m 1
 161 644 l 1
 182 792 l 1
 512 792 l 1
 491 644 l 1
323 557 m 0
 474 557 566 467 565 323 c 0
 564 158 486 -22 245 -22 c 0
 95 -22 4 65 4 212 c 0
 4 378 82 557 323 557 c 0
304 400 m 0
 230 400 225 264 225 202 c 0
 225 153 236 136 264 136 c 0
 338 136 343 272 344 333 c 0
 345 383 333 400 304 400 c 0
EndSplineSet
Substitution2: "'smcp' Lowercase to Small Capitals lookup 28 subtable" omacron.sc
Substitution2: "'aalt' Access All Alternates lookup 0 subtable" omacron.sc
EndChar

StartChar: Obreve
Encoding: 334 334 73
Width: 676
GlyphClass: 2
Flags: MW
HStem: -22 162<293.5 376 293.5 448.5> 558 161<323 405> 743 149<386.5 430 386.5 456>
VStem: 17 233<207 290 207 365.5> 231 109<944 961> 449 233<407 492>
AnchorPoint: "Anchor-11" 0 0 basechar 0
AnchorPoint: "Anchor-10" -34 534 basechar 0
AnchorPoint: "Anchor-9" 397 698 basechar 0
AnchorPoint: "Anchor-8" 0 0 basechar 0
LayerCount: 2
Fore
SplineSet
393 743 m 0xec
 266 743 224 848 231 944 c 1
 340 961 l 1
 343 924 365 892 408 892 c 0
 452 892 481 926 495 962 c 1
 607 943 l 1
 587 847 519 743 393 743 c 0xec
400 719 m 0xd4
 586 719 682 610 682 431 c 0
 682 241 598 -22 299 -22 c 0
 113 -22 17 90 17 269 c 0
 17 462 104 719 400 719 c 0xd4
381 558 m 0
 265 558 250 336 250 244 c 0
 250 170 269 140 318 140 c 0
 434 140 449 359 449 455 c 0
 449 529 429 558 381 558 c 0
EndSplineSet
Substitution2: "'c2sc' Capitals to Small Capitals lookup 23 subtable" obreve.sc
Substitution2: "'aalt' Access All Alternates lookup 0 subtable" obreve.sc
Position2: "'cpsp' Capital Spacing lookup 0 subtable" dx=5 dy=0 dh=10 dv=0
EndChar

StartChar: obreve
Encoding: 335 335 210
Width: 571
GlyphClass: 2
Flags: MW
HStem: -22 158<250 301 250 365.5> 400 157<267 318.5> 622 149<322 365 322 389>
VStem: 4 221<177.5 233 177.5 295> 164 111<833 850> 344 221
AnchorPoint: "Anchor-11" 0 0 basechar 0
AnchorPoint: "Anchor-10" 0 0 basechar 0
AnchorPoint: "Anchor-9" 311 536 basechar 0
AnchorPoint: "Anchor-8" 0 0 basechar 0
LayerCount: 2
Fore
SplineSet
326 622 m 0xec
 199 622 157 727 164 833 c 1
 275 850 l 1
 277 803 301 771 343 771 c 0
 387 771 417 805 433 851 c 1
 540 832 l 1
 520 726 452 622 326 622 c 0xec
323 557 m 0
 474 557 566 467 565 323 c 0
 564 158 486 -22 245 -22 c 0
 95 -22 4 65 4 212 c 0xf4
 4 378 82 557 323 557 c 0
304 400 m 0xf4
 230 400 225 264 225 202 c 0
 225 153 236 136 264 136 c 0
 338 136 343 272 344 333 c 0
 345 383 333 400 304 400 c 0xf4
EndSplineSet
Substitution2: "'smcp' Lowercase to Small Capitals lookup 24 subtable" obreve.sc
Substitution2: "'aalt' Access All Alternates lookup 0 subtable" obreve.sc
EndChar

StartChar: Ohungarumlaut
Encoding: 336 336 77
Width: 676
GlyphClass: 2
Flags: MW
HStem: -22 162<293.5 376 293.5 448.5> 558 161<323 405>
VStem: 17 233<207 290 207 365.5> 449 233<407 492>
AnchorPoint: "Anchor-11" 0 0 basechar 0
AnchorPoint: "Anchor-10" -34 534 basechar 0
AnchorPoint: "Anchor-9" 397 698 basechar 0
AnchorPoint: "Anchor-8" 0 0 basechar 0
LayerCount: 2
Fore
SplineSet
454 954 m 1
 299 747 l 1
 200 789 l 1
 329 1013 l 1
 454 954 l 1
646 948 m 1
 484 743 l 1
 387 794 l 1
 524 1013 l 1
 646 948 l 1
400 719 m 0
 586 719 682 610 682 431 c 0
 682 241 598 -22 299 -22 c 0
 113 -22 17 90 17 269 c 0
 17 462 104 719 400 719 c 0
381 558 m 0
 265 558 250 336 250 244 c 0
 250 170 269 140 318 140 c 0
 434 140 449 359 449 455 c 0
 449 529 429 558 381 558 c 0
EndSplineSet
Substitution2: "'c2sc' Capitals to Small Capitals lookup 23 subtable" ohungarumlaut.sc
Substitution2: "'aalt' Access All Alternates lookup 0 subtable" ohungarumlaut.sc
Position2: "'cpsp' Capital Spacing lookup 0 subtable" dx=5 dy=0 dh=10 dv=0
EndChar
StartChar: OE
Encoding: 338 338 210
Width: 888
GlyphClass: 2
Flags: MW
HStem: 0 140<286.5 838 286.5 398> 0 159<590 838> 278 153<660 836 643 855> 539 159<633 898 633 633> 558 161<318 388.5>
VStem: 17 232<205.5 315.5 205.5 362.5> 428 227<394 403 394 494.5>
LayerCount: 2
Back
Fore
SplineSet
942 698 m 1x76
 898 539 l 1
 633 539 l 1xb6
 648 499 655 452 655 403 c 2
 655 394 l 1
 660 431 l 1
 855 431 l 1
 836 278 l 1
 643 278 l 1
 633 237 617 197 590 159 c 1
 861 159 l 1
 838 0 l 1
 398 0 l 1
 362 -15 322 -22 280 -22 c 0
 109 -22 17 86 17 268 c 0
 17 457 104 719 381 719 c 0x6e
 424 719 463 712 494 698 c 1
 942 698 l 1x76
307 140 m 0
 403 140 428 309 428 459 c 0
 428 530 409 558 368 558 c 0x6e
 268 558 249 389 249 242 c 0
 249 169 266 140 307 140 c 0
EndSplineSet
Substitution2: "'c2sc' Capitals to Small Capitals lookup 27 subtable" oe.sc
Substitution2: "'aalt' Access All Alternates lookup 0 subtable" oe.sc
Position2: "'cpsp' Capital Spacing lookup 0 subtable" dx=5 dy=0 dh=10 dv=0
EndChar
StartChar: oe
Encoding: 339 339 592
Width: 885
GlyphClass: 2
Flags: MW
HStem: -22 154<611.5 647.5> -22 158<253 287> 190 121 400 157<269.5 321> 421 136<629.5 656>
VStem: 4 221<177.5 233 177.5 295> 679 216<385.5 398>
AnchorPoint: "Anchor-14" 0 0 basechar 0
AnchorPoint: "Anchor-13" 0 0 basechar 0
AnchorPoint: "Anchor-12" 481 536 basechar 0
AnchorPoint: "Anchor-11" 0 0 basechar 0
AnchorPoint: "Anchor-10" 433 0 basechar 0
LayerCount: 2
Back
Fore
SplineSet
895 400 m 0x76
 895 252 706 203 556 190 c 1
 563 145 593 132 630 132 c 0
 673 132 710 150 760 181 c 1
 833 57 l 1
 774 13 695 -22 600 -22 c 0xb6
 514 -22 459 3 421 42 c 1
 381 4 326 -22 248 -22 c 0
 97 -22 4 65 4 212 c 0
 4 378 85 557 313 557 c 0
 390 557 445 527 483 487 c 1
 528 529 589 557 670 557 c 0
 815 557 895 491 895 400 c 0x76
565 311 m 1
 679 315 679 385 679 386 c 0
 679 410 670 421 642 421 c 0x6e
 599 421 576 368 565 311 c 1
267 136 m 0
 340 136 348 272 349 333 c 0
 350 383 336 400 306 400 c 0
 233 400 225 264 225 202 c 0
 225 153 239 136 267 136 c 0
EndSplineSet
Substitution2: "'smcp' Lowercase to Small Capitals lookup 28 subtable" oe.sc
Substitution2: "'aalt' Access All Alternates lookup 0 subtable" oe.sc
EndChar

StartChar: Racute
Encoding: 340 340 87
Width: 615
GlyphClass: 2
Flags: MW
HStem: 0 21G<-7 220 -7 -7 362 608 362 362> 238 153<274 278 253 315> 541 157<295 329 295 295>
VStem: 396 232<471.5 506>
AnchorPoint: "Anchor-11" 270 0 basechar 0
AnchorPoint: "Anchor-10" 0 0 basechar 0
AnchorPoint: "Anchor-9" 369 698 basechar 0
AnchorPoint: "Anchor-8" 0 0 basechar 0
LayerCount: 2
Fore
SplineSet
294 739 m 1
 233 849 l 1
 467 1002 l 1
 551 843 l 1
 294 739 l 1
628 513 m 0
 628 421 612 350 487 276 c 1
 608 0 l 1
 362 0 l 1
 278 238 l 1
 253 238 l 1
 220 0 l 1
 -7 0 l 1
 90 698 l 1
 358 698 l 2
 536 698 628 642 628 513 c 0
274 391 m 1
 315 391 l 2
 385 391 396 455 396 488 c 0
 396 524 371 541 329 541 c 2
 295 541 l 1
 274 391 l 1
EndSplineSet
Substitution2: "'c2sc' Capitals to Small Capitals lookup 23 subtable" racute.sc
Substitution2: "'aalt' Access All Alternates lookup 0 subtable" racute.sc
Position2: "'cpsp' Capital Spacing lookup 0 subtable" dx=5 dy=0 dh=10 dv=0
EndChar

StartChar: racute
Encoding: 341 341 224
Width: 403
GlyphClass: 2
Flags: MW
HStem: 0 21G<-8 209 -8 -8> 339 197<66 358> 516 20G<66 256 256 256> 524 20G<458 458> 534 20G<379 416.5>
VStem: -8 466
AnchorPoint: "Anchor-11" 101 0 basechar 0
AnchorPoint: "Anchor-10" 0 0 basechar 0
AnchorPoint: "Anchor-9" 261 536 basechar 0
AnchorPoint: "Anchor-8" 0 0 basechar 0
LayerCount: 2
Fore
SplineSet
432 709 m 1x8c
 163 607 l 1
 121 718 l 1
 373 868 l 1
 432 709 l 1x8c
405 554 m 0
 428 554 441 551 458 544 c 1x94
 397 330 l 1
 379 335 366 339 350 339 c 0xc4
 287 339 261 275 239 213 c 1
 209 0 l 1
 -8 0 l 1
 66 536 l 1
 256 536 l 1xa4
 258 444 l 1
 290 509 353 554 405 554 c 0
EndSplineSet
Substitution2: "'smcp' Lowercase to Small Capitals lookup 24 subtable" racute.sc
Substitution2: "'aalt' Access All Alternates lookup 0 subtable" racute.sc
EndChar

StartChar: Rcommaaccent
Encoding: 342 342 89
Width: 615
GlyphClass: 2
Flags: MW
HStem: 0 21G<-7 220 -7 -7 362 608 362 362> 238 153<274 278 253 315> 541 157<295 329 295 295>
VStem: 154 197<-164.5 -137> 396 232<471.5 506>
AnchorPoint: "Anchor-11" 270 0 basechar 0
AnchorPoint: "Anchor-10" 0 0 basechar 0
AnchorPoint: "Anchor-9" 369 698 basechar 0
AnchorPoint: "Anchor-8" 0 0 basechar 0
LayerCount: 2
Fore
SplineSet
628 513 m 0
 628 421 612 350 487 276 c 1
 608 0 l 1
 362 0 l 1
 278 238 l 1
 253 238 l 1
 220 0 l 1
 -7 0 l 1
 90 698 l 1
 358 698 l 2
 536 698 628 642 628 513 c 0
274 391 m 1
 315 391 l 2
 385 391 396 455 396 488 c 0
 396 524 371 541 329 541 c 2
 295 541 l 1
 274 391 l 1
265 -59 m 0
 316 -59 351 -93 351 -145 c 0
 351 -184 337 -211 311 -251 c 2
 246 -352 l 1
 145 -352 l 1
 188 -237 l 1
 166 -222 154 -202 154 -172 c 0
 154 -102 205 -59 265 -59 c 0
EndSplineSet
Substitution2: "'c2sc' Capitals to Small Capitals lookup 23 subtable" rcommaaccent.sc
Substitution2: "'aalt' Access All Alternates lookup 0 subtable" rcommaaccent.sc
Position2: "'cpsp' Capital Spacing lookup 0 subtable" dx=5 dy=0 dh=10 dv=0
EndChar
StartChar: rcommaaccent
Encoding: 343 343 607
Width: 403
GlyphClass: 2
Flags: MW
HStem: 0 21G<-8 209 -8 -8> 339 197<66 358> 516 20G<66 256 256 256> 524 20G<458 458> 534 20G<379 416.5>
VStem: -30 488 -21 197<-164.5 -137.5>
AnchorPoint: "Anchor-14" 0 0 basechar 0
AnchorPoint: "Anchor-13" 0 0 basechar 0
AnchorPoint: "Anchor-12" 261 536 basechar 0
AnchorPoint: "Anchor-11" 0 0 basechar 0
AnchorPoint: "Anchor-10" 101 0 basechar 0
LayerCount: 2
Back
Fore
SplineSet
405 554 m 0x8c
 428 554 441 551 458 544 c 1x94
 397 330 l 1
 379 335 366 339 350 339 c 0xc4
 287 339 261 275 239 213 c 1
 209 0 l 1
 -8 0 l 1
 66 536 l 1
 256 536 l 1xa4
 258 444 l 1
 290 509 353 554 405 554 c 0x8c
84 -59 m 0x8a
 136 -59 176 -92 176 -145 c 0
 176 -184 162 -211 136 -251 c 2
 71 -352 l 1
 -30 -352 l 1
 13 -237 l 1
 -9 -222 -21 -202 -21 -172 c 0
 -21 -103 26 -59 84 -59 c 0x8a
EndSplineSet
Substitution2: "'smcp' Lowercase to Small Capitals lookup 28 subtable" rcommaaccent.sc
Substitution2: "'aalt' Access All Alternates lookup 0 subtable" rcommaaccent.sc
EndChar
StartChar: Rcaron
Encoding: 344 344 220
Width: 615
GlyphClass: 2
Flags: MW
HStem: 0 21G<-7 220 -7 -7 362 608 362 362> 238 153<274 278 253 315> 541 157<295 295 295 329>
VStem: -7 635<0 575>
AnchorPoint: "Anchor-14" 0 0 basechar 0
AnchorPoint: "Anchor-13" 0 0 basechar 0
AnchorPoint: "Anchor-12" 394 976 basechar 0
AnchorPoint: "Anchor-11" 0 0 basechar 0
AnchorPoint: "Anchor-10" 270 0 basechar 0
LayerCount: 2
Back
Fore
SplineSet
436 745 m 1
 307 745 l 1
 183 893 l 1
 264 976 l 1
 389 889 l 1
 537 976 l 1
 600 893 l 1
 436 745 l 1
628 511 m 0
 628 420 612 350 487 276 c 1
 608 0 l 1
 362 0 l 1
 278 238 l 1
 253 238 l 1
 220 0 l 1
 -7 0 l 1
 90 698 l 1
 358 698 l 2
 536 698 628 639 628 511 c 0
295 541 m 1
 274 391 l 1
 315 391 l 2
 380 391 396 449 396 489 c 0
 396 523 371 541 329 541 c 2
 295 541 l 1
EndSplineSet
Substitution2: "'c2sc' Capitals to Small Capitals lookup 27 subtable" rcaron.sc
Substitution2: "'aalt' Access All Alternates lookup 0 subtable" rcaron.sc
Position2: "'cpsp' Capital Spacing lookup 0 subtable" dx=5 dy=0 dh=10 dv=0
EndChar
StartChar: sacute
Encoding: 347 347 620
Width: 486
GlyphClass: 2
Flags: MW
HStem: -22 151<181 221 181 320.5> 406 151<265 299>
VStem: -33 525<76 486>
AnchorPoint: "Anchor-14" 0 0 basechar 0
AnchorPoint: "Anchor-13" 0 0 basechar 0
AnchorPoint: "Anchor-12" 314 868 basechar 0
AnchorPoint: "Anchor-11" 0 0 basechar 0
AnchorPoint: "Anchor-10" 205 0 basechar 0
LayerCount: 2
Back
Fore
SplineSet
408 868 m 1
 467 709 l 1
 198 607 l 1
 156 718 l 1
 408 868 l 1
278 557 m 0
 363 557 441 527 492 486 c 1
 401 371 l 1
 364 392 318 406 280 406 c 0
 250 406 243 399 243 389 c 0
 243 375 251 373 341 342 c 0
 422 315 470 262 470 178 c 0
 470 98 428 -22 213 -22 c 0
 116 -22 18 17 -33 76 c 1
 71 185 l 1
 104 156 150 129 212 129 c 0
 230 129 257 128 257 150 c 0
 257 167 242 170 158 201 c 0
 76 232 28 280 28 366 c 0
 28 476 121 557 278 557 c 0
EndSplineSet
Substitution2: "'smcp' Lowercase to Small Capitals lookup 28 subtable" sacute.sc
Substitution2: "'locl' Localized Forms in Latin lookup 7 subtable" sacute.loclPLK
AlternateSubs2: "'aalt' Access All Alternates lookup 1 subtable" sacute.loclPLK sacute.sc
EndChar
StartChar: Scedilla
Encoding: 350 350 231
Width: 584
GlyphClass: 2
Flags: MW
HStem: -283 112<203.5 228 203.5 296> -19 21G<199 199> -18 21G<315 315> 558 161<336 387>
VStem: -30 639<87 620> 262 148
AnchorPoint: "Anchor-14" 0 0 basechar 0
AnchorPoint: "Anchor-13" 0 0 basechar 0
AnchorPoint: "Anchor-12" 367 698 basechar 0
AnchorPoint: "Anchor-11" 0 0 basechar 0
AnchorPoint: "Anchor-10" 251 -283 basechar 0
LayerCount: 2
Back
Fore
SplineSet
395 450 m 0xb8
 521 407 570 339 570 245 c 0
 570 129 504 5 315 -18 c 1
 311 -40 l 1xb4
 375 -49 410 -83 410 -140 c 0
 410 -194 370 -283 222 -283 c 0
 167 -283 124 -265 96 -246 c 1
 154 -154 l 1
 174 -165 192 -171 215 -171 c 0
 241 -171 261 -166 262 -148 c 0
 263 -130 235 -125 172 -125 c 1
 199 -19 l 1xd4
 91 -8 18 40 -30 87 c 1
 95 216 l 1
 138 173 189 149 249 149 c 0
 310 149 330 170 330 195 c 0
 330 228 309 252 239 276 c 0
 95 324 51 397 51 484 c 0
 51 606 141 719 360 719 c 0
 467 719 551 683 609 620 c 1
 497 504 l 1
 457 540 413 558 361 558 c 0
 311 558 291 539 291 515 c 0
 291 486 316 479 395 450 c 0xb8
EndSplineSet
Substitution2: "'c2sc' Capitals to Small Capitals lookup 27 subtable" scedilla.sc
Substitution2: "'locl' Localized Forms in Latin lookup 5 subtable" Scommaaccent
Substitution2: "'locl' Localized Forms in Latin lookup 4 subtable" Scommaaccent
AlternateSubs2: "'aalt' Access All Alternates lookup 1 subtable" Scommaaccent scedilla.sc
Position2: "'cpsp' Capital Spacing lookup 0 subtable" dx=5 dy=0 dh=10 dv=0
EndChar
